<svg width="34" height="25" viewBox="0 0 34 25" fill="none" xmlns="http://www.w3.org/2000/svg">
<path fill-rule="evenodd" clip-rule="evenodd" d="M32.2948 4.08625C30.7522 3.52202 28.8437 2.42019 27.1289 2.79577C25.3065 3.19458 24.5729 5.01983 23.2479 6.11714C19.6455 9.10087 17.5472 4.65387 15.5679 2.21681C13.6984 -0.0842912 11.4177 -0.642852 8.78013 0.771119C7.72929 1.33478 3.30212 3.91743 4.07426 5.57216C4.62942 6.76294 6.81667 5.69396 7.56274 5.43394C9.18235 4.87027 10.6864 4.37686 12.3428 5.19885C15.45 6.73971 16.2562 10.9652 20.0154 11.624C23.9027 12.3055 24.0302 8.60631 26.8043 7.21386C28.6641 6.28085 29.9597 7.93275 31.7538 7.60361C33.4635 7.29034 34.2543 4.8023 32.2948 4.08625Z" fill="#2D1A45"/>
<path fill-rule="evenodd" clip-rule="evenodd" d="M0.912995 18.9947C2.28788 19.2933 3.18522 16.6268 4.04573 15.9504C5.4733 14.8293 7.94829 14.6033 9.40192 15.7317C12.2406 17.9342 11.2623 22.6894 15.3042 23.9289C18.9168 25.037 20.6185 20.279 23.6595 19.0944C25.4275 18.4056 27.3683 17.9546 26.6783 15.483C26.2019 13.7739 24.7981 13.3349 23.272 13.9914C20.6491 15.1188 19.7586 19.7113 16.6491 19.7935C13.432 19.8785 13.083 15.2406 11.7019 13.2204C9.59622 10.1415 5.26766 9.39773 2.80794 12.3418C2.06526 13.2301 -1.70535 18.4277 0.912995 18.9947Z" fill="#2D1A45"/>
</svg>
