<svg width="211" height="189" viewBox="0 0 211 189" fill="none" xmlns="http://www.w3.org/2000/svg">
<path fill-rule="evenodd" clip-rule="evenodd" d="M205.772 60.4786C206.089 59.7337 206.405 58.9887 206.722 58.2444C207.114 59.5428 207.224 60.1886 205.772 60.4786ZM206.194 63.9195C205.507 64.0424 205.777 61.8869 205.777 61.5113C206.964 62.1832 205.981 62.9888 206.194 63.9195ZM205.123 57.7011C205.708 57.355 206.294 57.0094 206.88 56.6633C206.064 58.1747 206.384 57.2303 206.721 58.2398C206.105 58.4166 205.507 58.2104 205.123 57.7011ZM201.651 69.5137C199.455 77.4803 192.481 83.7633 185.115 87.0178C180.882 88.8872 176.721 89.3551 172.15 89.1467C170.387 89.0662 168.312 88.4935 166.616 88.6C165.309 88.6821 165.368 88.7388 164.286 89.8446C163.808 88.9631 164.154 88.3445 163.194 87.8313C161.996 87.1911 161.499 87.9366 160.904 88.8232C160.126 88.0171 159.808 87.5962 158.8 87.1175C158.832 87.1328 157.836 87.0948 157.876 87.1073C157.696 87.0518 156.613 86.355 156.273 86.2281C154.881 85.7058 153.271 85.4911 151.986 84.7416C150.862 84.0873 149.936 82.2502 148.65 83.6619C148.649 81.303 145.472 80.3246 143.983 79.0891C141.655 77.1585 139.805 74.3 138.645 71.5349C137.408 68.5863 136.995 65.7595 136.416 62.7208C136.011 60.5976 133.362 57.5283 134.953 55.3858C135.332 56.2843 135.154 57.2043 135.784 58.0189C136.35 56.9273 136.662 55.7059 136.918 54.5112C137.044 53.926 137.772 52.2084 137.689 51.6985C137.521 50.655 136.229 50.5984 136.946 49.3192C138.431 50.9354 139.63 48.0973 138.507 46.966C137.953 47.5909 137.75 48.3007 137.494 49.0745C136.034 46.1265 140.076 47.0759 139.192 44.4145C140.667 44.1307 141.515 43.7591 142.076 42.3015C142.699 40.6796 142.241 40.3261 143.657 39.2543C144.144 38.8861 145.522 38.3564 145.774 37.7503C146.262 36.5793 145.02 36.2321 146.107 35.1348C146.475 35.7789 147.905 37.054 148.689 35.8406C148.846 35.5987 148.187 35.4271 148.666 34.8696C149.376 34.0448 150.17 33.2359 151.371 33.4092C150.42 31.0328 156.494 30.8447 158.05 30.2839C159.609 29.7225 160.931 29.3537 162.585 29.2234C164.236 29.0931 164.318 28.6093 165.716 27.6151C165.834 29.0376 166.177 28.7249 167.188 28.9758C167.431 28.5589 167.68 28.5119 167.935 28.8353C168.189 29.0767 168.499 29.19 168.865 29.1764C169.42 29.2052 170.05 29.1327 170.632 29.1446C171.998 29.1713 173.407 29.0574 174.747 29.0863C175.092 29.0285 175.415 28.9084 175.718 28.7254C175.844 28.9634 175.971 29.2019 176.097 29.4403C176.806 29.5293 176.861 30.4187 177.734 29.446C177.993 30.6827 178.735 30.0391 179.519 30.3745C180.234 30.681 180.348 31.1704 181.007 31.512C181.441 31.8638 181.907 31.9103 182.404 31.6525C182.877 32.0032 183.357 32.3436 183.845 32.6739C184.742 33.1809 185.801 33.4914 186.747 33.8919C187.376 34.1513 188.001 34.4215 188.622 34.7014C188.64 35.4503 188.976 35.7149 189.629 35.4945C190.219 35.9879 190.385 35.9686 190.957 36.8088C192.253 38.7127 193.403 40.1919 195.04 41.8936C202.156 49.292 204.342 59.7518 201.651 69.5137ZM203.835 38.0539C200.622 33.752 196.075 28.8257 191.989 26.1088C189.918 24.7311 187.011 22.2583 184.478 21.5298C183.877 21.357 183.256 21.3457 182.666 21.1644C182.21 21.0245 181.961 20.5566 181.441 20.4722C181.078 20.4132 181.038 21.2273 180.651 21.1525C179.843 20.995 179.331 20.1934 178.761 19.6921C177.535 21.8034 176.87 18.2526 175.071 20.6398C172.93 17.2822 167.899 18.0164 164.48 18.1858C163.466 18.2356 162.99 18.5965 162.091 18.8639C161.254 19.1126 161.171 19.0486 160.257 19.0418C157.982 19.0242 155.962 19.3103 153.858 20.3096C150.324 21.9881 147.081 24.6036 143.724 26.6266C139.973 28.8875 136.591 31.7652 133.722 35.0719C123.347 47.0283 120.573 64.4803 128.845 78.3413C141.985 100.356 175.879 102.709 195.085 87.7712C209.923 76.23 215.57 53.7651 203.835 38.0539Z" fill="#2D1A45"/>
<path fill-rule="evenodd" clip-rule="evenodd" d="M139.298 174.033C136.267 172.948 131.196 173.182 130.446 177.097C130.132 178.736 130.743 180.47 131.875 181.66C133.187 183.041 135.278 183.169 135.166 180.765C135.089 179.101 133.505 177.656 136.289 177.32C138.021 177.112 140.584 178.407 140.67 180.321C140.865 184.634 133.398 184.973 130.647 184.226C125.186 182.747 126.669 177.027 130.42 174.416C131.388 173.742 134.168 172.703 134.295 171.302C134.464 169.444 132.166 169.823 131.04 170.068C122.762 171.87 120.957 185.738 129.607 188.352C133.535 189.539 139.067 188.314 141.435 184.756C143.654 181.421 143.684 175.603 139.298 174.033Z" fill="#2D1A45"/>
<path fill-rule="evenodd" clip-rule="evenodd" d="M17.5371 3.86173C14.9493 5.10745 12.3616 6.35317 9.77437 7.59889C8.91896 5.76854 7.47383 0.768092 5.30415 0.129652C1.79188 -0.904202 4.02841 4.54662 4.63456 5.79291C5.13251 6.81657 6.28759 8.40274 6.00717 9.62297C5.63102 11.2669 3.31179 11.8493 2.09779 12.6973C-0.906332 14.7968 -0.882539 19.2058 3.46814 17.3375C5.93013 16.2799 8.97844 13.3471 10.8654 16.677C11.7367 18.2133 13.801 26.7968 15.9571 21.1834C17.2912 17.708 10.87 14.0972 14.0355 11.157C15.0547 10.211 16.2477 10.1311 17.2657 9.58729C19.7243 8.27359 18.3381 5.84616 17.5371 3.86173Z" fill="#2D1A45"/>
</svg>
