<svg width="199" height="167" viewBox="0 0 199 167" fill="none" xmlns="http://www.w3.org/2000/svg">
<path fill-rule="evenodd" clip-rule="evenodd" d="M17.5371 146.862C14.9493 148.107 12.3616 149.353 9.77437 150.599C8.91896 148.769 7.47383 143.768 5.30415 143.13C1.79188 142.096 4.02841 147.547 4.63456 148.793C5.13251 149.817 6.28759 151.403 6.00717 152.623C5.63102 154.267 3.31179 154.849 2.09779 155.697C-0.906332 157.797 -0.882539 162.206 3.46814 160.338C5.93013 159.28 8.97844 156.347 10.8654 159.677C11.7367 161.213 13.801 169.797 15.9571 164.183C17.2912 160.708 10.87 157.097 14.0355 154.157C15.0547 153.211 16.2477 153.131 17.2657 152.587C19.7243 151.274 18.3381 148.846 17.5371 146.862Z" fill="#2D1A45"/>
<path fill-rule="evenodd" clip-rule="evenodd" d="M154.481 87.5813C162.601 93.3488 171.914 97.2888 180.399 102.483C182.523 103.783 189.139 106.482 189.075 108.894C189.038 110.304 187.05 112.072 186.179 113.049C184.687 114.723 183.284 116.415 181.907 118.186C175.607 126.295 169.673 134.481 162.845 142.183C161.817 143.341 158.72 148.873 157.72 146.126C157.267 144.88 157.64 143.48 156.459 142.319C155.851 141.721 153.502 141.391 154.186 140.108C154.642 140.313 155.099 140.519 155.555 140.723C155.201 139.698 155.227 138.574 154.695 137.605C154.365 137.003 153.72 136.718 153.496 136.04C153.187 135.103 153.711 134.014 153.623 133.048C153.537 132.085 153.038 131.175 152.74 130.266C150.973 124.88 150.339 119.45 149.434 113.893C148.539 108.394 147.145 103.067 146.598 97.5069C146.019 91.634 145.311 85.7731 144.365 79.9472C146.053 80.184 147.35 82.0178 148.544 83.0545C150.42 84.6837 152.457 86.1436 154.481 87.5813ZM148.116 144.439C147.729 144.135 147.425 143.761 147.207 143.318C151.186 141.346 148.785 144.71 148.116 144.439ZM145.696 140.234C143.961 140.712 142.715 140.809 141.378 140.095C141.251 140.028 141.397 139.506 141.168 139.399C140.968 139.306 140.663 139.421 140.492 139.334C139.909 139.038 138.89 139.687 138.79 138.553C141.004 137.875 143.181 136.625 145.519 136.414C148.767 136.122 148.617 139.429 145.696 140.234ZM138.096 133.697C135.729 134.25 133.779 135.543 131.264 135.205C128.904 134.889 126.853 133.665 124.991 132.255C129.649 130.936 134.534 130.698 139.188 129.422C140.703 129.007 142.695 127.912 144.328 128.353C146.142 128.844 146.257 130.543 146.801 132.09C143.897 132.612 140.971 133.025 138.096 133.697ZM123.293 127.135C121.019 127.678 118.695 128.866 116.793 126.816C116.486 126.485 116.218 126.815 116.254 125.796C116.292 124.721 117.268 124.029 118.107 123.651C120.079 122.761 122.844 123.336 124.939 123.205C128.281 122.997 131.682 122.303 134.988 121.768C137.276 121.398 139.64 120.577 141.979 120.739C143.785 120.864 145.964 122.403 143.332 123.526C140.935 124.549 137.341 124.392 134.744 124.835C130.906 125.49 127.081 126.229 123.293 127.135ZM121.072 116.437C121.219 116.587 121.366 116.737 121.513 116.887C121.489 116.882 122.385 116.156 122.623 116.135C123.775 116.035 124.935 116.114 126.09 116.049C128.75 115.899 131.431 115.435 134.044 114.925C136.172 114.509 138.34 113.792 140.531 113.972C142.427 114.127 142.627 114.516 142.751 116.346C137.909 116.346 132.923 116.244 128.165 117.269C125.067 117.936 121.653 119.922 120.102 116.342C120.425 116.373 120.748 116.405 121.072 116.437ZM124.098 108.688C125.299 109.602 128.571 108.082 130.01 107.93C131.573 107.764 133.043 107.593 134.557 107.204C135.9 106.858 140.341 105.132 141.371 106.783C142.95 109.311 136.557 109.775 135.544 109.9C131.293 110.425 126.883 110.891 122.747 112.006C123.198 110.9 123.648 109.794 124.098 108.688ZM129.929 100.1C130.239 101.269 139.851 96.9625 140.026 100.092C140.161 102.494 130.516 103.69 128.782 103.479C129.188 102.374 130.269 101.383 129.929 100.1ZM133.156 92.7546C133.361 90.3974 133.677 90.411 135.567 90.1889C137.009 90.0195 138.99 89.1743 138.615 91.7439C138.294 93.9442 132.95 95.1333 133.156 92.7546ZM136.592 84.644C137.047 83.3785 138.07 85.0819 138.092 85.7255C138.149 87.438 136.851 87.0675 135.601 87.0675C135.949 86.2676 136.28 85.4587 136.592 84.644ZM152.412 75.1445C152.157 74.8375 150.726 74.7202 150.319 74.5712C149.318 74.2041 149.46 73.4218 148.178 74.1933C148.114 74.1288 148.236 73.5487 148.166 73.522C148.131 73.5085 147.233 73.1697 146.942 72.9827C146.238 72.5318 145.603 72.0905 144.956 71.5246C144.268 70.9235 143.58 70.0511 142.794 69.5724C142.462 69.3708 142.192 69.0847 141.792 69.0229C140.756 68.8632 141.053 69.5849 140.147 69.7282C139.589 69.8166 139.183 69.1651 138.453 69.4461C137.823 69.6886 137.457 70.5729 137.176 71.0991C136.154 73.0145 135.366 75.0759 134.367 77.0117C129.253 86.91 123.442 96.4328 118.489 106.424C116.103 111.236 113.614 116.083 111.935 121.198C110.725 124.887 107.991 130.276 110.343 133.962C112.053 136.642 115.477 137.799 118.21 139.094C122.321 141.043 126.111 143.59 130.267 145.479C135.223 147.732 140.036 150.089 144.867 152.605C146.928 153.678 148.787 155.223 150.84 156.239C152.096 156.861 154.036 155.8 154.445 157.225C156.019 155.318 158.567 156.589 160.389 155.247C161.46 154.457 162.243 152.902 163.136 151.929C164.476 150.471 165.931 149.118 167.299 147.685C172.726 141.995 177.738 136.068 182.676 129.956C187.393 124.12 192.903 118.605 196.887 112.216C198.47 109.68 198.756 107.021 197.712 104.219C196.95 102.175 195.113 99.0885 192.49 100.442C193.484 98.79 189.647 97.0259 188.483 96.703C188.465 96.6985 188.236 97.9674 187.911 97.9357C188.027 97.947 186.936 95.1242 186.456 94.7622C185.033 93.6853 183.302 92.4288 181.749 91.5423C180.325 90.7293 178.822 90.3266 177.443 89.4168C175.771 88.3144 174.235 87.0069 172.557 85.9119C170.936 84.8548 169.13 83.6051 167.338 82.8783C165.785 82.2478 164.39 82.1243 162.993 81.091C161.264 79.8124 159.756 78.9451 157.762 78.0642C156.037 77.3023 153.646 76.6366 152.412 75.1445Z" fill="#2D1A45"/>
<path fill-rule="evenodd" clip-rule="evenodd" d="M167.351 9.63627C166.983 10.516 163.539 10.2198 163.464 9.18251C163.351 7.63258 167.992 8.1073 167.351 9.63627ZM171.009 9.06071C172.961 9.21933 176.167 10.5449 178.048 9.7439C180.918 8.52141 177.904 6.64518 176.364 6.08435C174.797 5.51389 172.463 5.81696 171.658 4.17865C171.052 2.94653 172.55 -0.493231 170.691 0.0596683C168.742 0.639759 169.309 5.56714 166.249 3.90618C164.79 3.11365 165.385 -1.71403 162.941 0.752487C162.272 1.42718 162.213 2.6661 161.327 3.16915C160.423 3.68296 159.289 3.14763 158.335 3.19239C155.807 3.31078 155.002 5.67476 157.563 6.61231C158.511 6.95957 162.083 7.38331 159.919 8.93211C158.555 9.90761 155.526 7.86031 154.355 9.55866C152.746 11.8915 157.057 11.9442 158.215 12.6421C160.177 13.8238 158.557 16.5843 158.713 18.5501C158.953 21.5536 160.697 20.9259 161.331 18.3841C161.869 16.2274 161.203 13.123 164.454 13.9802C169.748 15.376 161.51 22.0975 165.388 23.8173C167.861 24.9141 168.211 18.9857 168.403 17.9649C169.114 14.1971 171.23 15.0763 174.437 15.1919C178.182 15.3267 179.086 12.556 175.12 11.7623C173.854 11.5091 172.113 11.8292 171.014 11.023C170.364 10.5466 169.47 8.93608 171.009 9.06071Z" fill="#2D1A45"/>
</svg>
