<svg fill="none" viewBox="0 0 74 32" xmlns="http://www.w3.org/2000/svg">
  <g fill="#632baa">
    <path d="m.617188.168213h18.166212v8.089297h-8.3204v3.42059h8.1818v7.6733h-8.1818v3.5593h8.644v8.0893h-18.489812z" />
    <path d="m28.119 15.0525-8.1818-14.884287h10.7704l2.7734 5.038477 2.7735-5.038477h10.8166l-8.1818 14.884287 8.7827 15.9475h-10.7703l-3.4207-6.1479-3.3744 6.1479h-10.7703z" />
    <path d="m72.3671 11.9093c0 2.1263-.3698 3.9444-1.1094 5.4544-.7396 1.4792-1.7565 2.6811-3.0508 3.6056-1.2635.9245-2.7581 1.6024-4.4838 2.0338-1.6949.4315-3.5285.6472-5.5007.6472v7.3497h-9.8459v-30.831787h9.8459c1.9722 0 3.8058.215714 5.5007.647143 1.7257.431434 3.2203 1.109394 4.4838 2.033884 1.2943.92449 2.3112 2.14173 3.0508 3.65174.7396 1.47918 1.1094 3.28194 1.1094 5.40832zm-14.1447 3.4206h.416c1.2943 0 2.2188-.2928 2.7735-.8783.5855-.6163.8782-1.4638.8782-2.5423 0-1.0786-.2927-1.91066-.8782-2.49617-.5547-.61633-1.4792-.9245-2.7735-.9245h-.416z" />
  </g>
  <path clip-rule="evenodd" d="m20.107 23.9107h-8.644v-3.5593h8.1818v-7.6733h-8.1818v-3.42059h8.3204v-8.0893h-18.16621v30.83179h18.48981zm-.3905 7.6988v-7.3083h-8.644v-4.3403h8.1818v-6.8923h-8.1818v-4.20157h8.3205v-7.30834h-17.38533v30.05081zm11.3901.3905 3.3744-6.1479 3.4207 6.1479h10.7703l-8.7827-15.9475 8.1818-14.88429h-10.8166l-2.7735 5.03848-2.7734-5.03848h-10.7704l8.1818 14.88429-8.7827 15.9475zm-10.1094-.3905h9.8783l3.6032-6.5647 3.6525 6.5647h9.88l-8.5676-15.5568 7.9672-14.49401h-9.9255l-3.0043 5.45774-3.0042-5.45774h-9.8793l7.9672 14.49401zm38.2252-6.9592c1.9722 0 3.8058-.2157 5.5007-.6472 1.7257-.4314 3.2203-1.1093 4.4838-2.0338 1.2943-.9245 2.3112-2.1264 3.0508-3.6056.7396-1.51 1.1094-3.3281 1.1094-5.4544 0-2.1264-.3698-3.92914-1.1094-5.40832-.7396-1.51-1.7565-2.72725-3.0508-3.65174-1.2635-.92449-2.7581-1.60245-4.4838-2.03388-1.6949-.43143-3.5285-.64715-5.5007-.64715h-9.8459v30.83179h9.8459zm-9.2224 6.8497h8.8319v-7.2402h.3905c1.9438 0 3.7447-.2126 5.4044-.6351l.0016-.0004c1.6834-.4208 3.1303-1.0793 4.3479-1.9702l.0036-.0026c1.24-.8857 2.2156-2.0371 2.9279-3.461.7069-1.444 1.0688-3.1999 1.0688-5.2812 0-2.0825-.3623-3.82196-1.0682-5.2337l-.0014-.00286c-.7128-1.45527-1.6885-2.62107-2.9271-3.50576l-.0036-.00259c-1.2176-.89091-2.6645-1.54937-4.3479-1.97021l-.0016-.00041c-1.6597-.42247-3.4606-.63508-5.4044-.63508h-9.4554m9.0649 15.16161v-7.62215h.8065c1.3389 0 2.3946.31629 3.0568 1.04605.674.6785.9854 1.6196.9854 2.7651 0 1.1504-.3139 2.1039-.9853 2.8109-.6626.6995-1.7182 1.0001-3.0569 1.0001zm3.58-1.2687c.5855-.6163.8782-1.4638.8782-2.5423 0-1.0786-.2927-1.9107-.8782-2.4962-.5547-.6163-1.4792-.92447-2.7735-.92447h-.416v6.84127h.416c1.2943 0 2.2188-.2928 2.7735-.8783z" fill="#31dcbd" fill-rule="evenodd" />
</svg>