<svg width="456" height="326" viewBox="0 0 456 326" fill="none" xmlns="http://www.w3.org/2000/svg">
<path fill-rule="evenodd" clip-rule="evenodd" d="M405.365 192.294C395.427 204.9 378.532 206.892 363.526 206.768C354.516 206.694 345.488 206.016 336.654 204.179C331.891 203.189 327.161 201.878 322.559 200.302C319.52 199.261 314.995 198.741 313.701 195.484C310.289 186.891 312.8 176.115 314.205 167.393C314.919 162.956 315.456 158.493 316.151 154.053C316.596 151.213 316.808 148.07 317.999 145.412C319.393 142.299 321.154 142.921 324.102 143.781C328.164 144.967 332.334 145.46 336.51 146.097C346.702 147.654 355.594 150.792 364.856 155.24C374.015 159.638 382.899 163.979 391.069 170.095C395.208 173.194 398.774 176.558 402.097 180.508C404.664 183.559 408.495 188.323 405.365 192.294ZM361.925 248.286C361.845 249.643 346.27 245.546 344.221 245.086C330.773 242.07 317.058 238.634 304.363 233.184C292.512 228.098 282.071 222.278 272.746 213.24C268.4 209.028 264.49 204.592 260.749 199.867C258.874 197.499 256.312 197.774 254.222 195.771C252.341 193.968 250.898 192.56 251.486 189.865C256.186 191.103 264.864 198.887 269.736 194.956C272.513 192.716 268.661 190.375 266.883 189.077C263.541 186.636 260.683 183.624 258.026 180.463C262.588 181.347 266.834 183.056 270.804 185.434C272.568 186.491 278.614 190.322 280.021 186.67C280.888 184.421 276.788 181.596 275.51 180.352C272.371 177.298 268.983 173.733 267.317 169.627C271.437 168.671 275.32 171.855 278.126 174.449C281.24 177.328 285.058 180.35 287.669 183.668C289.017 185.379 289.31 187.4 290.362 189.246C291.547 191.323 293.441 193.103 295.251 194.639C298.739 197.6 302.819 199.78 307.006 201.583C316.575 205.703 326.832 208.619 337.031 210.664C342.035 211.668 346.916 212.13 351.995 212.3C355.942 212.433 357.689 213.613 359.196 217.25C363.274 227.09 362.533 237.916 361.925 248.286ZM244.796 173.302C242.514 175.438 239.549 176.777 237.163 178.83C235.064 180.636 232.643 182.564 230.3 184.024C227.799 185.583 225.931 184.49 223.679 183.08C221.036 181.424 217.997 180.754 215.274 179.273C205.86 174.149 194.343 161.595 196.101 150.067C196.846 145.182 199.371 140.374 203.958 138.158C208.124 136.145 214.18 135.028 218.636 136.71C221.15 137.66 222.949 139.755 224.559 141.815C226.437 144.217 227.157 143.838 229.069 141.522C232.492 137.378 238.136 133.743 243.716 133.83C246.489 133.874 249.244 134.459 251.742 135.61C252.08 135.766 252.269 136.238 252.608 136.398C253.026 136.595 253.711 136.186 254.001 136.37C254.733 136.833 255.463 138.279 255.884 139.013C257.577 141.958 260.625 147.734 257.554 150.213C257.552 150.215 257.69 153.568 257.648 153.951C257.432 155.952 256.74 157.603 255.849 159.433C253.173 164.93 249.222 169.163 244.796 173.302ZM249.347 219.813C247.185 220.485 244.856 213.71 246.93 212.628C248.907 211.597 251.304 219.205 249.347 219.813ZM215.392 211.712C214.643 214.271 214.327 217.176 212.496 219.258C210.82 217.269 210.654 213.599 212.28 211.554C213.209 210.387 216.211 208.916 215.392 211.712ZM284.573 166.872C284.561 166.938 287.174 168.187 285.899 169.554C284.157 171.421 284.397 167.787 284.573 166.872ZM295.373 146.015C295.343 148.603 289.865 147.978 289.904 145.375C289.952 142.172 295.405 143.272 295.373 146.015ZM288.834 124.389C289.376 122.019 298.905 118.724 298.645 122.853C298.515 124.923 287.684 129.425 288.834 124.389ZM191.154 204.733C190.085 206.017 188.568 206.523 187.288 207.509C185.945 208.542 184.986 209.882 183.813 211.094C180.593 214.424 176.717 217.16 173.243 220.218C166.856 225.84 160.737 231.884 153.656 236.653C141.001 245.173 126.327 249.833 111.759 253.913C110.552 254.251 107.076 255.615 105.882 254.599C104.594 253.503 105.249 249.646 105.308 248.188C105.549 242.21 106.246 236.161 106.171 230.191C106.14 227.739 105.422 224.253 106.701 222.01C108.13 219.504 112.118 218.771 114.585 217.828C122.084 214.962 129.307 210.127 135.931 205.65C144.074 200.145 152.297 194.549 160.677 189.41C168.886 184.376 177.942 181.005 187.099 178.129C187.524 179.021 183.154 181.89 182.654 182.292C180.259 184.221 177.652 186.22 175.874 188.766C174.615 190.568 173.324 194.647 176.8 194.752C178.485 194.803 180.977 193.172 182.505 192.645C185.029 191.774 187.63 191.163 190.27 190.765C188 193.264 180.307 197.753 181.706 201.91C183.065 205.943 190.92 201.236 193.624 201.236C193.181 202.643 192.067 203.635 191.154 204.733ZM98.346 215.99C93.3152 217.759 88.1585 218.765 82.9661 219.907C78.0171 220.996 73.4424 221.816 68.3733 221.179C61.3742 220.299 53.629 217.4 52.7417 209.447C51.6895 200.024 58.3442 191.365 64.0586 184.605C71.0129 176.38 78.822 169.027 87.2852 162.369C95.7389 155.717 104.863 149.853 114.423 144.902C121.695 141.136 129.909 138.849 137.598 136.022C139.061 135.485 143.108 133.595 144.476 135.161C145.582 136.427 144.077 138.537 143.573 139.713C142.59 142.005 142.454 144.312 142.2 146.773C141.067 157.763 139.702 168.751 139.074 179.788C138.899 182.865 138.591 186.082 138.771 189.161C138.87 190.866 139.757 193.037 139.166 194.702C138.03 197.902 132.829 200.02 130.072 201.449C125.137 204.008 119.912 205.917 114.926 208.365C109.451 211.053 104.12 213.958 98.346 215.99ZM168.118 144.577C169.499 144.388 171.568 144.012 172.799 144.906C174.404 146.073 173.983 147.696 172.5 148.542C171.329 149.211 168.589 149.394 167.432 148.787C165.461 147.754 165.794 144.897 168.118 144.577ZM175.766 170.027C174.65 171.885 170.572 173.104 170.927 169.636C171.232 166.666 177.821 166.604 175.766 170.027ZM174.252 117.668C176.046 118.363 179.301 118.958 179.833 121.265C180.329 123.413 178.293 123.271 176.825 122.68C175.616 122.195 170.235 117.631 174.252 117.668ZM455.316 199.6C454.268 195.522 455.066 191.008 454.488 186.832C453.927 182.784 452.918 179.064 451.47 175.249C448.263 166.803 444.589 159.2 439.391 151.788C429.601 137.829 418.242 125.533 404.526 115.337C390.986 105.272 375.992 97.0916 360.108 91.3585C343.266 85.2786 326.312 83.1625 308.55 81.997C303.246 81.6496 297.947 81.2371 292.673 80.567C288.818 80.0773 283.986 79.4742 280.175 80.655C277.78 81.3971 276.443 83.4851 279.051 84.8553C280.9 85.8269 283.322 85.943 285.364 86.2012C282.897 94.0395 278.882 101.905 272.52 107.302C266.309 112.571 257.998 114.377 250.16 115.714C245.909 116.438 241.15 116.998 236.833 116.686C234.104 116.489 231.975 115.225 230.873 118.036C230.109 119.989 229.748 122.132 228.74 119.183C227.549 115.697 226.964 115.719 223.258 114.729C215.678 112.704 206.989 110.857 200.376 106.478C193.516 101.935 191.13 94.5846 187.3 87.7409C186.353 86.0495 183.496 82.6257 184.956 80.6875C186.291 78.915 190.632 79.0916 192.62 78.9067C194.718 78.7116 196.829 78.7034 198.934 78.6217C200.153 78.5746 202.606 79.0744 202.116 77.2529C201.375 74.5075 193.445 74.8594 191.475 74.8148C187.813 74.7326 184.1 74.8174 180.456 75.2203C162.388 77.2185 144.158 80.9132 126.674 85.8403C92.7517 95.3988 59.8979 113.012 35.1419 138.387C11.3786 162.744 3.85 203.277 18.4588 234.377C26.0507 250.54 42.5268 257.18 58.4982 262.543C66.9225 265.371 75.8431 267.583 84.7983 267.05C89.0957 266.793 93.1733 265.636 97.3647 264.765C99.1924 264.384 101.272 263.778 103.15 263.931C104.571 264.047 105.937 265.351 107.27 264.658C108.216 264.166 108.627 262.754 109.784 262.152C111.172 261.43 112.855 261.169 114.354 260.805C118.522 259.793 122.558 258.151 126.632 256.805C130.844 255.413 134.819 253.62 138.861 251.807C140.902 250.892 145.625 247.169 146.955 249.891C147.562 251.133 147.303 253.528 147.451 254.831C147.71 257.109 148.014 259.382 148.346 261.65C149.078 266.644 149.955 271.617 150.853 276.584C152.474 285.547 154.563 294.127 158.056 302.557C160.845 309.289 163.294 316.919 168.473 322.273C170.734 324.611 173.819 325.663 177.062 324.928C180.75 324.092 182.586 320.742 184.825 318.033C189.752 312.072 197.886 307.504 205.396 305.86C214.594 303.846 223.552 306.791 232.331 309.294C241.617 311.942 251.071 314.465 260.186 317.648C268.679 320.615 277.85 324.995 287.061 324.614C295.094 324.282 302.597 317.744 308.39 312.761C314.208 307.756 321.483 300.428 329.85 301.017C334.004 301.31 337.79 303.314 341.836 304.129C346.278 305.023 351.005 305.15 355.522 305.484C361.13 305.897 373.675 304.436 375.75 297.689C376.058 296.688 376.059 294.628 374.738 294.227C373.522 293.859 372.901 295.281 371.749 295.216C369.406 295.084 367.575 290.998 366.288 289.416C361.093 283.031 353.967 278.268 348.137 272.5C341.555 265.987 335.935 258.096 330.975 250.313C333.217 249.73 335.637 250.698 337.807 251.157C340.444 251.716 343.013 252.391 345.612 253.107C348.476 253.895 351.381 254.437 354.287 255.038C356.456 255.486 359.335 255.621 361.292 256.709C363.001 257.659 363.955 258.679 366.076 258.954C368.234 259.234 370.449 258.998 372.616 258.984C378.478 258.944 384.328 258.835 390.162 258.215C410.778 256.025 432.631 247.305 445.028 230C448.4 225.292 451.116 220.078 452.832 214.544C454.172 210.224 456.482 204.136 455.316 199.6Z" fill="#2D1A45"/>
<path fill-rule="evenodd" clip-rule="evenodd" d="M261.956 0.207617C267.374 0.284301 272.452 1.89084 277.5 3.71721C281.939 5.32311 286.672 6.80888 290.262 10.0143C296.718 15.7803 298.4 25.3276 299.457 33.4957C300.775 43.6884 296.389 52.24 292.698 61.4613C289.245 70.0858 282.909 77.0724 275.377 82.3962C271.431 85.185 267.07 86.8682 262.507 88.3444C257.872 89.8435 253.383 91.8514 248.425 91.8438C240.894 91.8329 231.253 88.2562 228.045 80.8369C226.585 77.459 228.007 76.8525 230.929 78.6885C235.169 81.352 239.256 84.2264 244.21 85.408C253.819 87.7002 265.327 84.1491 273.752 79.4636C282.174 74.7795 287.828 67.743 291.606 58.9812C295.419 50.142 296.9 41.4319 295.43 31.9026C294.184 23.8271 291.705 16.4507 284.428 12.0669C268.718 2.60465 247.552 3.36702 233.582 15.664C231.666 17.3498 229.772 18.9902 227.797 20.6C226.542 21.6231 225.064 22.8506 225.247 24.6201C225.402 26.1353 228.633 31.9774 224.743 30.183C221.589 28.7279 219.875 25.8835 216.055 25.5314C211.989 25.1563 207.139 28.2799 205.923 32.2113C204.763 35.9624 206.831 41.0945 210.072 43.2462C212.079 44.5786 214.287 44.3728 216.565 44.3191C217.696 44.2923 220.845 43.9248 221.593 45.1205C222.917 47.2351 218.245 49.4576 216.738 49.9254C213.069 51.0635 208.733 49.7241 206.624 46.449C204.48 43.1196 203.012 39.2663 202.717 35.2997C202.435 31.4994 203.297 27.6517 205.539 24.5313C207.924 21.2128 212.785 17.4923 217.143 18.6451C219.034 19.1455 220.554 21.0997 222.41 21.471C223.581 21.7049 223.088 21.8723 224.059 21.0038C224.675 20.453 225.257 19.4363 225.826 18.7832C229.097 15.0282 232.331 11.0208 236.334 8.01538C243.511 2.62638 253.051 0.0810873 261.956 0.207617ZM242.108 74.6544C242.957 72.6645 244.516 76.2143 244.977 76.8079C245.89 77.9821 248.036 78.8956 247.943 80.6275C247.791 83.4867 243.893 82.9563 242.594 81.4648C241.115 79.7668 241.27 76.6196 242.108 74.6544ZM269.795 61.1172C271.897 64.3935 269.335 67.9301 267.673 70.8299C266.083 73.6025 264.607 76.7367 262.757 79.3433C259.685 83.671 253.003 78.9894 252.805 74.5415C252.653 71.1367 255.065 72.6189 256.613 73.8905C258.206 75.2003 258.961 75.5264 260.632 74.0959C263.992 71.2168 265.501 66.4027 267.824 62.7576C268.285 62.0349 269.119 61.6003 269.795 61.1172ZM275.788 62.1707C276.33 63.7551 275.193 67.9534 278.354 67.5337C280.101 67.3019 280.474 64.7951 281.393 63.7009C284.481 60.0229 283.534 66.9794 282.727 68.7205C280.948 72.5578 275.969 75.2018 273.5 70.3337C272.582 68.5227 272.586 66.2372 273.052 64.2904C273.306 63.2302 274.787 59.2447 275.788 62.1707ZM247.594 54.6666C247.314 56.5153 245.577 60.1985 247.698 61.521C249.565 62.6852 252.816 60.1571 254.254 59.1016C255.747 58.0046 259.132 54.8579 259.265 58.7738C259.333 60.7699 257.335 63.1648 255.909 64.3148C252.867 66.7672 246.546 68.9669 244.304 64.351C243.083 61.8365 243.751 58.2567 244.559 55.7228C245.213 53.6692 248.27 50.2013 247.594 54.6666ZM287.492 44.5453C288.73 45.9828 291.664 49.2036 290.068 51.2508C288.203 53.6437 285.173 49.2533 283.978 48.0313C282.901 46.9305 280.637 43.7959 281.602 42.1332C283.201 39.3819 286.405 43.2831 287.492 44.5453ZM268.035 38.3553C272.081 40.9914 266.761 42.8895 264.456 43.1255C261.666 43.41 258.1 43.5988 255.538 42.23C251.906 40.2898 253.117 37.359 256.637 36.6574C260.246 35.9386 264.894 36.3091 268.035 38.3553ZM215.43 29.9634C218.406 30.5425 221.804 31.296 222.818 34.5401C223.864 37.8928 222.361 39.0055 219.321 38.2507C216.509 37.5522 212.309 36.8492 210.719 34.1023C208.819 30.8205 212.671 29.4272 215.43 29.9634Z" fill="#2D1A45"/>
<path fill-rule="evenodd" clip-rule="evenodd" d="M51.6977 102.005C50.6992 105.23 45.6449 107.369 43.1245 109.329C34.3085 116.188 25.6937 123.329 17.7235 131.156C13.5867 135.219 10.4555 140.133 6.86818 144.652C5.99291 145.755 4.44232 148.225 2.72563 147.993C0.842183 147.739 0.461406 144.495 0.521461 143.078C0.727183 138.247 5.13935 133.582 8.28588 130.255C11.8253 126.515 15.6095 122.87 19.4741 119.463C23.7291 115.714 28.3463 112.491 33.0518 109.336C37.6722 106.237 42.1023 102.658 46.9074 99.8511C49.1709 98.5292 52.9295 98.0263 51.6977 102.005ZM359.867 71.3788C363.547 71.4949 367.138 72.7019 370.608 73.8223C378.242 76.2876 385.513 79.7074 392.682 83.2816C405.252 89.5467 417.348 97.1272 428.436 105.746C430.754 107.547 433.13 109.007 435.65 110.48C437.263 111.423 439.563 112.575 440.185 114.498C441.763 119.386 433.795 114.48 432.665 113.778L431.074 112.792C407.483 98.1703 383.919 83.9643 357.234 75.5793C355.812 75.1325 355.37 73.8646 356.116 72.6076C356.924 71.2455 358.5 71.3359 359.867 71.3788ZM50.6241 81.6095C50.4535 83.0978 48.7677 83.4364 47.6307 83.9142C43.3882 85.6962 39.0399 87.216 34.8089 89.0275C26.9561 92.3897 19.7446 97.269 11.5481 99.8205C9.675 100.405 9.39862 98.5143 9.90008 97.2279C10.4586 95.7922 12.1361 94.7841 13.3494 93.9537C16.8493 91.556 20.8187 89.8323 24.7053 88.167C28.5586 86.5145 32.526 85.2646 36.4768 83.8795C40.1486 82.5919 44.4104 80.1955 48.3534 80.0185L48.5258 80.0102C49.7807 79.9468 50.8228 79.862 50.6241 81.6095ZM366.565 58.9984C362.813 57.9431 366.357 55.5681 368.587 55.7349C371.074 55.9213 373.478 57.0956 375.837 57.804C383.049 59.9694 389.734 62.3375 396.471 65.6986C397.476 66.2005 401.903 68.5793 398.975 69.6328C396.945 70.3625 392.206 67.2312 390.464 66.4801C382.807 63.1787 374.58 61.2526 366.565 58.9984Z" fill="#2D1A45"/>
<path fill-rule="evenodd" clip-rule="evenodd" d="M217.006 66.6864C217.475 65.3104 223.276 50.2696 221.005 49.816C218.601 49.3351 215.386 58.0617 214.689 59.6383C212.112 65.4614 210.587 71.7094 209.391 77.9554C208.559 82.3044 207.827 86.7597 208.119 91.2062C208.343 94.6232 209.754 95.1405 212.08 97.2344C212.08 86.8553 213.657 76.51 217.006 66.6864Z" fill="#2D1A45"/>
</svg>
