<svg width="540" height="421" viewBox="0 0 540 421" fill="none" xmlns="http://www.w3.org/2000/svg">
<path fill-rule="evenodd" clip-rule="evenodd" d="M134.684 234.164C137.753 257.183 140.822 280.201 143.891 303.219L146.369 321.808C146.682 324.153 146.387 328.78 147.579 330.88C148 331.621 149.106 331.972 149.92 332.409C152.72 333.913 155.521 335.416 158.322 336.92C182.011 349.638 205.701 362.357 229.389 375.076C252.125 387.281 274.86 399.488 297.594 411.694C299.947 412.957 303.752 416.253 306.292 415.384C308.706 414.559 311.174 412.523 313.365 411.24C317.573 408.774 321.78 406.308 325.988 403.842C351.447 388.922 376.905 374.001 402.365 359.081C412.869 352.926 423.372 346.77 433.877 340.614C436.75 338.93 439.625 337.246 442.499 335.561C444.002 334.68 444.197 334.711 444.789 333.216C447.001 327.626 448.025 321.223 449.59 315.423C451.315 309.032 453.04 302.64 454.765 296.248C455.534 293.396 455.173 293.028 453.918 290.275C451.436 284.826 448.954 279.377 446.472 273.928C440.962 261.834 435.453 249.741 429.943 237.647C427.715 232.756 422.349 229.315 418.485 225.718L358.496 169.867C356.973 168.448 355.449 167.03 353.925 165.611C353.674 174.137 351.99 183.303 354.461 191.54C358.516 205.057 362.571 218.575 366.626 232.092C368.587 238.626 370.546 245.159 372.506 251.692C372.87 252.906 375.087 257.72 374.495 258.788C374.167 259.38 371.366 259.978 370.76 260.209C368.154 261.2 365.548 262.191 362.942 263.183C355.682 265.945 348.422 268.707 341.161 271.469C334.631 273.954 328.101 276.438 321.571 278.922C319.357 279.764 316.756 281.324 314.418 281.194C312.326 281.078 309.947 280.043 307.923 279.521C304.364 278.605 300.804 277.688 297.245 276.771C290.254 274.97 283.262 273.17 276.271 271.369C268.405 269.342 261.763 263.392 255.036 258.988C243.474 251.417 231.912 243.846 220.35 236.276C217.703 234.543 217.693 233.554 216.639 230.39C214.268 223.278 211.897 216.167 209.527 209.055C208.261 205.259 206.705 201.445 205.749 197.558C204.172 191.142 203.237 184.501 201.988 178.014C201.612 176.057 201.235 174.1 200.858 172.143C196.016 174.107 191.174 176.073 186.331 178.038C185.63 178.323 182.21 179.172 181.906 179.87C181.713 180.311 182.73 182.313 182.876 182.743C186.891 194.634 190.906 206.525 194.921 218.416C196.184 222.156 197.447 225.896 198.71 229.637C195.692 224.895 192.674 220.151 189.656 215.409C187.285 223.385 184.913 231.362 182.542 239.338C176.937 232.871 171.332 226.403 165.727 219.936C163.786 226.403 161.846 232.871 159.906 239.338C153.87 231.362 147.834 223.385 141.798 215.409C141.08 219.571 140.363 223.734 139.645 227.896C139.428 229.153 139.471 232.757 138.635 233.752C137.946 234.57 135.963 234.164 134.684 234.164Z" fill="#31DCBD"/>
<path fill-rule="evenodd" clip-rule="evenodd" d="M516.859 283.921C516.519 294.756 516.755 308.822 510.825 318.349C509.868 319.886 506.625 324.676 506.263 320.462C505.908 316.326 506.926 312.23 505.918 308.045C505.379 305.806 503.564 300.916 500.463 302.938C498.883 303.969 498.467 306.514 497.849 308.12C496.934 310.497 495.91 312.836 494.947 315.195C491.584 323.428 488.099 333.254 480.624 338.703C481.602 331.603 484.269 324.022 482.476 316.845C481.865 314.399 480.014 309.933 476.828 311.366C473.722 312.762 471.71 318.993 470.244 321.768C465.801 330.18 461.256 338.433 456.254 346.531C453.737 350.604 451.02 354.327 447.727 357.81C445.669 359.99 443.102 363.673 439.857 363.998C439.857 357.787 441.901 351.787 443.767 345.938C445.773 339.65 447.603 333.307 449.573 327.007C451.281 321.541 452.684 316.118 453.822 310.513C454.293 308.195 454.666 305.795 456.642 304.298C458.418 302.953 461.223 302.313 463.203 301.324C468.403 298.726 473.751 295.923 478.581 292.694C480.565 291.368 482.272 289.655 484.349 288.466C486.715 287.111 488.924 285.971 491.114 284.32C500.56 277.195 509.075 268.43 514.813 257.997C515.744 262.189 516.978 266.285 517.115 270.605C517.254 275.035 516.998 279.493 516.859 283.921ZM439.116 333.725C437.605 331.174 435.303 332.219 433.275 333.449C430.128 335.357 426.973 337.252 423.81 339.137C417.373 342.972 411.055 347.007 404.766 351.079C391.964 359.366 378.716 366.148 365.219 373.163C352.175 379.941 339.646 388.008 327.424 396.162C324.486 398.121 321.569 400.127 318.749 402.252C316.246 404.138 314.243 406.787 311.608 408.467C308.863 410.216 306.977 408.797 304.352 407.507C301.069 405.894 297.648 404.543 294.292 403.088C280.75 397.217 267.169 391.123 253.996 384.459C240.902 377.836 228.496 370.205 215.95 362.626C209.975 359.017 204.102 355.178 198.208 351.436C191.936 347.454 185.442 344.472 178.863 341.086C175.952 339.588 173.374 337.554 170.384 336.192C167.241 334.76 163.921 333.733 161.106 331.668C159.844 330.742 158.78 329.636 157.337 328.98C156.153 328.443 154.809 328.353 153.64 327.781C151.261 326.62 150.58 324.263 150.12 321.811C147.157 306.071 145.582 289.896 143.865 273.981C142.9 265.032 141.824 256.117 140.49 247.215C139.889 243.201 141.098 240.092 141.733 236.188C142.474 231.628 142.767 226.972 143.264 222.381C145.608 226.723 147.635 231.28 150.617 235.242C152.815 238.162 156.57 242.303 160.618 242.205C166.909 242.053 166.621 231.263 166.875 226.979C169.74 229.537 170.61 233.704 172.988 236.675C175.16 239.388 178.116 242.753 181.451 243.968C188.473 246.526 187.797 233.491 187.411 229.794C187.217 227.94 186.17 225.006 188.654 225.852C190.942 226.63 193.168 229.858 195.09 231.338C198.414 233.898 202.059 236.025 205.469 238.469C209.699 241.501 214.264 243.692 218.577 246.515C221.274 248.281 224.217 248.678 227.158 249.977C231.466 251.88 235.272 254.716 239.373 256.998C247.494 261.514 256.503 265.564 265.386 268.287C268.26 269.168 272.09 271.651 274.27 269.099C275.613 267.529 276.495 265.13 277.634 263.37C279.076 261.141 280.607 258.971 282.196 256.846C287.848 249.291 294.119 242.158 301.084 235.786C309.186 228.374 318.047 221.703 327.524 216.148C331.596 213.761 348.598 203.062 352.336 210.592C349.264 210.401 346.602 211.524 343.976 212.931C343.335 213.274 340.03 215.635 340.803 213.554C339.843 213.734 339.001 214.986 338.274 215.543C337.017 216.505 335.111 217.616 333.656 218.413C332.218 219.2 330.441 219.393 329.13 220.347C328.651 220.696 328.361 221.261 327.904 221.638L326.595 221.648C326.399 222.373 326.203 223.098 326.007 223.823C325.267 221.451 324.212 224.535 322.976 225.537C322.233 226.139 321.057 226.76 320.182 227.148C319.528 227.439 319.427 226.763 318.792 227.277C318.228 227.733 317.868 228.737 317.262 229.309C316.517 230.009 315.565 230.553 314.735 231.15C313.145 232.295 311.464 233.194 309.853 234.279C307.687 235.739 306.55 238.251 304.447 239.778C303.451 240.501 301.903 240.585 301.364 241.048C300.011 242.211 300.457 243.973 297.935 244.051C298.164 244.418 298.302 244.816 298.349 245.246C297.748 245.143 297.214 244.894 296.747 244.499C296.851 247.015 294.378 247.913 292.895 249.462C292.04 250.354 290.975 251.61 290.372 252.684C290.272 252.864 290.08 254.297 290.039 254.317C289.81 254.427 288.416 253.202 288.548 253.305C288.159 255.629 285.91 257.827 284.925 259.978C284.406 261.112 283.879 262.934 282.857 263.732C282.579 263.949 281.723 263.722 281.016 264.476C280.498 265.028 279.899 266.049 279.688 266.782C279.548 267.271 279.717 268.538 279.515 268.831C279.145 269.368 278.57 268.829 277.99 269.226C276.919 269.959 276.892 271.105 275.325 271.256C276.405 273.88 282.927 274.689 285.297 275.436C292 277.545 299.033 279.652 305.299 282.884C306.92 283.719 308.453 284.408 308.74 286.333C309.141 289.012 307.775 292.574 307.515 295.28C306.809 302.587 306.665 310.11 306.812 317.449C306.952 324.4 307.177 331.416 307.501 338.359C307.801 344.796 309.099 351.105 309.8 357.497C309.992 359.251 309.864 367.162 312.88 366.764C315.398 366.431 313.808 361.028 313.761 359.479C313.655 356.051 314.377 352.551 314.347 349.092C314.333 347.429 315.059 345.997 315.129 344.406C315.198 342.833 314.417 341.591 314.651 339.961C314.876 338.398 319.499 329.403 315.059 330.456C315.319 329.171 315.547 327.874 315.89 326.607C316.365 327.034 316.748 327.532 317.036 328.102C317.432 325.339 317.3 322.581 317.545 319.817C317.655 318.564 318.162 317.193 317.989 315.93C318.022 315.407 317.956 314.893 317.79 314.39C317.517 314.101 317.179 313.949 316.777 313.934C316.566 313.243 316.511 313.053 316.886 312.374C317.047 311.915 317.367 311.627 317.845 311.514C318.755 311.406 318.86 310.882 318.157 309.944C318.523 308.092 318.571 306.922 318.306 305.074C318.084 303.521 318.902 300.515 318.068 299.132C317.095 297.516 316.611 299.083 316.43 296.843C316.391 296.369 316.36 295.381 316.551 294.908C316.76 294.393 317.388 294.604 317.468 294.421C318.013 293.176 318.049 290.725 316.12 290.938C316.196 290.049 316.271 289.159 316.346 288.27C317.74 289.875 317.253 288.517 318.043 287.625C319.108 286.423 320.149 286.216 321.671 285.741C325.727 284.476 329.634 282.572 333.597 281.028C341.989 277.758 350.537 274.838 358.683 270.973C375.817 262.843 392.611 254.019 409.849 246.104C408.618 243.818 409.384 243.707 410.284 241.561C411.486 242.396 411.233 241.814 412.088 241.762C412.01 241.047 412.233 240.831 412.755 241.114C413.171 241.242 413.597 241.287 414.034 241.25C415.102 241.433 415.973 242.02 416.943 242.243C417.262 242.478 417.611 242.654 417.993 242.772C418.336 242.694 418.628 242.524 418.87 242.263C420.44 242.554 420.969 243.737 421.038 245.449C421.05 245.748 420.138 246.053 420.399 246.453C420.855 247.153 422.083 246.986 422.785 247.075C422.631 247.802 422.477 248.529 422.324 249.255C425.406 247.833 424.602 252.284 425.536 253.746C425.797 254.154 426.377 253.829 426.679 254.301C427.072 254.918 426.954 255.792 427.29 256.406C428.048 257.796 428.808 257.627 429.564 259.219C433.515 267.529 438.771 275.271 442.563 283.759C444.369 287.799 445.997 291.909 447.882 295.913C449.617 299.599 450.608 302.732 449.372 306.757C446.504 316.094 443.437 325.601 439.679 334.619C439.492 334.321 439.304 334.023 439.116 333.725ZM239.087 403.418C238.818 403.876 238.549 404.334 238.28 404.792C237.682 401.355 239.274 402.949 239.087 403.418ZM226.438 396.982C225.576 396.724 225.948 395.316 225.976 394.714C226.521 395.393 227.056 396.086 227.51 396.832C227.153 396.882 226.795 396.932 226.438 396.982ZM191.771 383.768C192.677 383.26 193.328 382.895 194.354 382.32C193.311 384.353 193.311 384.353 191.771 383.768ZM137.233 204.664C135.85 208.059 140.068 229.024 136.141 229.708C135.578 227.868 135.507 222.802 133.176 222.197C130.283 221.446 130.568 226.662 130.173 228.275C124.234 224.143 121.596 216.164 118.759 209.84C115.142 201.78 112.297 193.396 109.579 184.998C107.255 177.817 105.334 170.51 102.986 163.341C101.51 158.838 99.9201 154.325 98.928 149.684C98.7126 148.675 97.8648 146.119 98.5852 145.16C99.6323 143.767 103.401 145.363 104.616 145.729C112.495 148.1 120.669 149.12 128.764 150.498C137.758 152.027 146.732 153.609 155.78 154.795C158.041 155.091 160.303 155.372 162.567 155.645C164.035 155.822 166.257 155.645 167.652 156.303C170.474 157.634 171.075 162.731 172.123 165.375C176.034 175.239 180.637 184.791 184.754 194.565C188.464 203.371 191.276 212.739 196.608 220.756C192.631 218.993 187.591 209.672 183.148 215.045C181.237 217.355 181.719 220.398 181.872 223.163C182.093 227.16 182.162 231.186 182.162 235.19C177.814 234.06 174.892 229.123 172.609 225.627C169.49 220.85 167.526 216.35 166.145 210.875C165.547 208.504 163.961 208.445 162.552 207.026C161.647 206.114 161.191 204.885 159.893 206.212C158.26 207.879 159.346 212.496 159.628 214.465C160.298 219.149 162.493 226.358 160.359 230.76C157.478 236.7 149.76 221.753 148.856 219.594C148.396 218.496 140.184 197.422 137.233 204.664ZM131.841 102.862C132.327 102.937 132.813 103.011 133.299 103.085C132.907 103.431 132.092 104.645 131.426 104.324C131.564 103.837 131.702 103.35 131.841 102.862ZM157.6 97.3347C157.448 97.5022 157.295 97.669 157.142 97.8365C156.445 96.9647 156.692 95.6939 156.692 94.6857C157.614 95.2425 157.839 96.3562 157.6 97.3347ZM159.682 107.007V109.857C157.751 109.02 157.713 108.588 159.682 107.007ZM162.027 110.63C160.674 110.259 160.512 109.959 160.702 107.88C161.263 109.045 161.632 109.813 162.027 110.63ZM169.815 131.733C169.248 133.192 165.933 129.715 166.055 128.675C166.17 127.682 166.679 127.386 167.382 128.024C167.614 128.235 167.269 128.999 167.417 129.264C167.952 130.224 169.03 131.009 169.815 131.733ZM169.852 140.523C169.021 142.597 167.541 139.331 169.711 139.242C169.853 139.659 169.9 140.086 169.852 140.523ZM168.241 137.254C167.919 136.825 167.607 136.391 167.304 135.948C168.421 136.174 169.308 137.803 170.487 136.716C170.348 138.373 169.171 138.419 168.241 137.254ZM95.9718 110.322C94.1745 108.36 105.894 106.983 107.308 106.646C117.567 104.2 127.254 100.66 136.847 96.3154C141.423 94.2433 145.976 92.1459 150.445 89.8488C152.375 88.8573 155.02 88.0166 156.632 86.5278C157.782 85.4652 157.736 84.6613 159.232 84.0282C160.501 83.492 160.565 83.9984 161.146 83.0283C161.495 82.4463 161.89 80.3134 161.686 79.6822C161.129 77.9599 160.306 79.3562 159.15 78.1694C158.318 77.3138 158.52 74.8808 158.747 73.8732C159.042 74.3531 159.211 74.8744 159.256 75.4357C160.51 74.8175 160.005 72.6942 161.376 72.3463C162.822 71.9802 162.672 73.1062 163.049 74.2574C164.142 72.6535 163.266 71.2857 162.675 69.7193C165.68 69.1566 168.909 68.6114 171.888 69.6113C174.042 70.3337 175.886 72.1102 178.161 72.4537C180.388 72.7893 180.816 71.7332 182.458 70.6616C183.791 69.7917 184.936 70.8161 185.622 70.159C185.199 72.3773 181.563 72.074 182.01 74.8459C182.212 76.0934 183.741 77.2142 184.437 78.185C185.31 79.4034 186.007 80.7505 186.602 82.1236C188.917 87.4643 189.906 93.6619 190.878 99.3732C193.274 113.471 193.578 127.846 195.832 141.989C196.906 148.725 197.983 155.465 198.541 162.268C198.681 163.969 199.72 167.826 198.87 169.463C198.151 170.844 196.553 170.848 195.149 171.182C192.403 171.835 189.825 172.721 187.191 173.704C184.829 174.584 184.143 175.124 182.627 172.902C181.161 170.753 180.436 168.19 179.387 165.834C178.051 162.831 176.437 159.934 174.887 157.037C177.931 157.037 179.683 155.394 179.602 152.3C179.514 148.874 176.697 148.061 175.535 145.245C174.405 146.713 174.31 146.754 173.505 145.361C172.584 143.768 171.963 140.853 171.399 139.046C171.802 139.476 172.205 139.906 172.608 140.336C173.624 138.938 172.032 136.733 171.5 135.417C170.679 133.383 170.534 131.185 169.755 129.158C169.33 128.051 168.345 127.18 168.104 126.026C167.943 125.253 168.589 124.517 168.435 123.733C168.169 122.367 166.624 120.902 166.143 119.512C165.404 117.376 164.602 115.494 163.684 113.412C162.443 110.595 162.732 107.638 162.505 104.639C162.269 101.529 161.273 98.5544 160.922 95.4585C160.678 93.3197 161.44 90.6268 159.822 88.9136C159.632 91.7611 160.448 91.7172 157.773 92.2294C154.727 92.8121 152.517 95.0815 149.637 95.7586C149.044 95.8983 148.611 93.3049 148.843 96.8425C147.461 95.8226 144.513 97.0889 145.613 97.6942C144.779 98.5861 143.137 97.9691 142.863 99.3053C140.03 96.5508 135.486 105.926 132.112 101.036C131.556 104.35 129.156 106.31 125.934 106.748C124.313 106.968 123.315 107.508 121.877 107.994C121.586 108.092 121.478 108.511 121.133 108.625C120.605 108.797 119.83 108.277 119.45 108.378C118.676 108.584 117.815 109.602 116.734 109.805C115.495 110.037 114.144 109.93 112.903 109.787C111.352 109.607 110.67 109.423 109.152 109.934C107.786 110.394 106.323 111.682 105.055 110.28C103.064 113.725 98.3162 112.883 95.9718 110.322ZM188.03 68.7479C186.523 68.5675 187.57 67.2714 188.267 66.8821C190.164 65.8253 189.657 68.9432 188.03 68.7479ZM104.589 81.1108C113.434 68.3508 128.562 59.5837 141.873 52.2071C149.143 48.178 156.565 44.2724 164.199 40.9747C167.994 39.3359 171.834 37.7604 175.71 36.3208C177.779 35.5519 179.874 34.8527 181.97 34.1569C182.55 33.9648 183.604 33.375 184.21 33.4325C184.106 33.4222 185.718 33.8607 185.401 33.9984C186.44 33.5464 186.934 32.3674 188.155 31.8959C189.527 31.3656 191.275 31.1463 192.745 31.0985C194.046 31.0558 195.172 31.5932 196.411 31.6353C197.225 31.6624 197.917 31.2757 198.715 31.2188C199.123 31.1903 199.086 31.8008 199.332 31.8364C199.439 31.8519 200.525 31.4438 200.536 31.4509C200.932 31.7051 201.282 32.6972 201.64 33.0846C202.665 34.1957 204.171 34.9698 205.539 35.5544C207.204 36.2659 211.264 36.9811 209.382 39.6133C210.719 39.4212 211.341 40.6293 209.668 40.9352C208.761 41.1015 208.374 40.2711 207.7 39.7045C206.145 38.3981 202.369 36.5381 200.129 36.6222C198.869 36.6694 197.895 37.6259 196.732 37.9732C195.588 38.3147 195.022 37.785 194.018 37.8691C192.845 37.9668 192.089 38.9595 190.971 39.136C189.924 39.3016 189.341 38.5876 188.405 38.6374C187.293 38.6963 186.215 39.6625 185.153 39.9871C183.464 40.5032 182.224 40.855 180.574 41.7107C177.378 43.3695 173.809 43.9995 170.515 45.4274C167.882 46.5689 164.896 47.1697 162.459 48.4321C159.749 49.8349 157.027 51.2325 154.373 52.7568C152.457 53.8582 148.559 54.2372 146.446 53.9572C146.415 57.8492 144.5 55.1206 142.569 56.8254C143.026 57.2283 143.545 57.5245 144.123 57.714C142.031 58.5496 140.098 59.5895 138.071 60.5499C135.976 61.5433 133.741 61.7619 132.365 63.6407C131.097 65.372 131.526 64.4788 129.635 65.1605C128.767 65.4735 128.012 66.4281 127.387 67.069C126.312 68.171 126.074 69.8396 125.46 67.5747C125.281 67.8509 124.576 69.6093 124.439 69.654C123.67 68.8378 123.559 69.8053 123.129 70.1513C123.356 70.9034 123.032 71.3962 122.159 71.6297C121.717 71.9583 121.27 72.2803 120.818 72.5953C119.178 73.7329 117.09 74.7088 115.935 76.4039C115.083 75.9014 114.768 75.0341 115.286 74.1487C113.659 75.6491 111.716 77.1903 111.276 79.4998C111.074 79.3045 110.838 79.1635 110.57 79.0768C109.909 79.5231 110.77 80.8527 111.189 81.1522C113.016 80.4421 110.732 80.6995 111.96 80.8139C112.31 80.8463 112.67 81.1082 113.056 81.1127C114.188 81.1276 115.252 81.0733 116.375 80.9006C118.851 80.519 121.284 79.8083 123.68 79.0956C126.291 78.3195 128.901 77.5447 131.454 76.5927C133.556 75.8089 135.623 74.9352 137.689 74.0647C138.514 73.7167 139.339 73.3642 140.165 73.0189C141.735 72.3631 142.563 71.2857 142.344 73.1314C143.594 72.9238 144.677 71.157 145.637 70.4359C146.987 69.4224 148.506 68.6664 150.106 68.149C150.754 67.9395 151.23 67.673 151.9 67.6711C152.228 67.6704 152.425 68.5965 152.632 68.5461C154.068 68.1982 153.413 67.4027 154.059 66.2567C155.47 63.7519 159.273 62.3666 161.608 60.9438C163.091 60.0403 164.143 58.8251 165.511 57.8246C166.152 57.357 166.617 57.1501 167.287 56.9522C167.801 56.8002 168.431 57.9798 168.764 56.7944C167.569 56.3061 166.584 55.704 165.435 55.3476C164.622 55.0948 165.597 54.2301 164.309 54.7449C163.792 54.9518 163.614 55.953 163.424 56.3721C161.985 55.087 157.939 56.4186 156.232 56.9567C156.114 56.9936 155.587 56.7155 155.338 56.7323C154.353 56.7982 153.667 58.1247 153.018 58.6964C151.293 60.2156 149.422 60.8507 147.298 61.7179C147.864 58.6298 152.017 57.3648 154.442 56.1819C157.986 54.4526 161.286 52.2453 165.166 51.3153C167.75 50.6951 171.175 50.1964 172.291 53.2011C172.959 55.0023 173.043 59.477 170.783 60.3081C170.544 59.4673 171.309 58.7488 171.539 58.0193C169.289 58.8781 168.918 61.5808 167.21 62.9913C166.249 63.7836 165.906 64.0377 165.442 64.8035C164.981 65.564 164.759 66.2735 163.679 67.0826C161.912 63.3309 162.211 68.4698 161.315 69.1146C161.676 68.8552 159.856 69.6126 160.073 69.5324C159.989 69.5634 159.196 68.279 158.682 68.3062C157.746 68.3553 157.926 69.3856 157.475 69.9042C155.947 71.6595 153.973 72.8106 151.513 72.5345C151.455 73.7833 151.841 75.2753 150.135 75.3892L149.912 72.6205C148.984 73.5596 147.762 74.4514 147.007 75.5386C146.147 76.7757 146.239 77.5376 144.813 78.3622C143.323 79.2243 140.153 80.9226 138.379 81.0694C138.818 80.4472 138.74 79.8852 138.148 79.3847C137.256 80.3043 135.939 80.3949 134.99 81.2253C138.285 82.6021 132.458 82.531 131.719 82.6869C131.224 82.7916 130.792 83.2424 130.291 83.3439C129.625 83.4791 129.539 82.7793 128.966 83.0012C128.128 83.3258 128.468 84.2422 127.591 84.7027C126.961 85.0338 125.893 85.0293 125.182 85.3436C123.488 86.0938 119.88 87.7553 118.735 85.7401C118.155 89.1975 112.231 87.093 110.038 86.8602C107.034 86.5414 101.803 85.1315 104.589 81.1108ZM117.204 45.7359C117.629 45.3731 118.054 45.3996 118.48 45.8161C117.888 42.6872 122.47 41.1681 124.469 39.8377C127.12 38.0735 130.241 34.6503 133.711 34.9213C133.119 35.3598 132.529 35.7983 131.938 36.2367C132.782 36.346 133.625 36.4553 134.468 36.5646C133.992 37.2631 133.516 37.9609 133.04 38.6588C132.261 34.3671 128.198 39.7854 127.023 40.575C125.838 41.3698 124.658 41.9623 123.605 42.9317C122.563 43.8921 121.622 45.6215 119.898 44.7574C119.741 47.2085 117.77 46.5437 116.408 47.9012C116.351 47.0494 116.839 46.4473 117.204 45.7359ZM135.205 33.5004C139.399 31.9295 143.051 29.0251 147.003 26.9503C150.778 24.9681 154.629 23.1883 158.467 21.3393C160.413 20.4009 163.979 17.9744 166.205 19.2109C169.208 20.8808 165.074 21.4195 164 21.9977C163.603 19.4263 162.212 21.7558 163.043 23.1864C160.752 22.1969 155.754 26.0682 153.568 27.136C153.074 27.3778 153.295 27.5175 152.733 27.8021C152.594 27.8719 151.16 28.1985 150.749 28.3363C148.691 29.0251 147.335 28.4779 146.448 30.962C146.263 30.3774 146.077 29.7921 145.892 29.2068C144.603 32.0996 140.687 33.3659 138.183 35.0765C137.538 35.5176 135.695 37.2282 134.876 36.8744C133.736 36.3816 134.194 33.8788 135.205 33.5004ZM210.864 42.2222C212.635 42.3393 210.927 43.1652 211.414 43.711C211.359 43.6496 212.48 44.6061 212.333 44.3435C212.531 44.6966 213.007 44.6837 213.25 45.4016C214.087 47.8701 210.43 50.4208 209.197 51.8217C206.799 54.5463 205.413 57.9966 202.914 60.634C201.785 61.8253 200.663 62.6479 199.098 63.0922C198.003 63.4033 196.845 63.0702 195.839 64.1231C195.028 64.971 195.212 65.4528 194.316 65.9036C192.738 66.6984 192.043 66.0012 190.508 67.7189C189.186 64.127 192.983 64.1328 194.964 62.1254C197.698 59.3541 200.694 56.5583 203.259 53.5937C205.536 50.9596 206.449 48.6501 207.53 45.4501C207.871 44.4412 208.242 42.2779 209.182 41.6447C210.645 40.6591 209.767 42.1492 210.864 42.2222ZM219.572 135.532C224.216 130.338 229.977 125.674 236.222 122.545C238.454 121.426 241.631 119.958 243.944 121.68C246.213 123.368 245.725 126.736 244.81 129.026C243.934 128.682 244.761 125.463 244.306 124.667C243.314 122.932 241.174 123.853 239.717 124.435C238.011 125.117 236.489 125.87 235.138 127.107C234.589 127.608 233.54 128.058 233.189 128.402C232.661 128.183 232.35 128.343 232.257 128.881C232.365 129.211 232.352 129.535 232.217 129.855C232.14 129.956 231.454 129.54 231.356 129.623C230.911 130.004 230.495 130.452 230.057 130.806C229.178 131.517 228.431 131.853 227.622 132.844C226.059 134.759 223.992 135.881 222.422 137.706C222.068 138.118 221.643 139.176 221.564 139.268C220.77 140.194 219.594 140.927 218.699 141.907C217.151 143.601 215.499 144.738 213.713 146.191C212.944 146.815 212.047 147.489 211.535 148.358C211.303 148.754 211.171 150.927 211.163 150.936C209.412 152.856 209.752 148.997 209.884 148.514C211.306 143.308 216.115 139.4 219.572 135.532ZM210.012 170.732C210.23 171.55 210.409 172.225 210.631 173.055C209.242 171.916 209.242 171.916 210.012 170.732ZM208.513 173.41C208.002 173.924 207.489 174.435 206.973 174.942C205.836 173.741 208.721 173.204 208.513 173.41ZM207.791 152.739C207.248 154.936 205.26 157.6 203.892 159.335C204.043 159.143 202.726 159.528 202.576 159.615C202.089 159.897 203.255 161.725 201.567 160.908C200.968 161.247 202.147 162.627 201.334 163.245C198.982 157.887 205.403 153.244 207.889 149.267C209.105 150.383 208.097 151.507 207.791 152.739ZM192.518 181.708C194.232 182.149 195.124 181.872 196.282 180.188C196.977 179.176 197.232 177.385 198.823 178.898L199.104 176.952C201.376 177.884 201.185 181.252 202.178 183.119C202.661 181.007 203.805 175.108 207.308 176.055C211.241 177.117 204.696 183.881 204.088 185.538C202.751 183.463 203.277 185.393 202.257 185.685C201.382 185.937 200.015 185.293 198.951 185.351C195.716 185.527 192.875 186.982 189.92 188.214C189.171 186.197 188.424 184.18 187.676 182.162C189.415 182.296 193.012 177.666 193.523 181.031C192.233 180.807 191.87 180.864 191.241 182.038C191.643 181.834 192.068 181.725 192.518 181.708ZM199.779 208.037C199.774 208.021 203.125 208.228 203.424 208.119C205.717 207.281 204.87 204.68 205.338 202.842C206.284 203.711 205.783 205.297 206.074 206.422C206.417 207.744 207.407 208.87 207.499 210.284C207.708 213.478 205.087 212.77 203.1 213.803C201.402 214.686 201.214 215.798 199.78 213.417C199.392 212.773 198.558 211.094 198.643 210.271C198.728 209.454 200.02 208.776 199.779 208.037ZM202.48 221.859L201.553 220.821C204.315 221.667 202.686 220.396 203.321 218.658C205.441 220.069 207.169 221.52 208.846 218.694L211.744 230.381C209.798 230.839 207.287 227.832 205.952 226.799C205.181 226.202 200.903 223.903 203.472 223.233C203.141 222.775 202.81 222.317 202.48 221.859ZM221.393 185.163C219.784 186.692 218.164 187.548 216.413 188.751C214.877 189.806 215.406 191.017 214.074 192.194C213.19 192.977 211.118 193.774 210.025 194.371C208.079 195.434 206.336 195.636 204.335 194.446C204.879 198.832 201.876 199.175 198.137 200.044C196.354 200.458 195.299 201.092 194.014 199.459C193.133 198.341 192.789 196.317 193.884 195.295C195.623 193.67 200.256 194.231 202.487 193.209C204.18 192.434 205.905 188.068 207.994 189.657C206.916 187.94 208.171 187.478 209.108 186.254C210.135 184.912 210.765 183.343 211.827 182.012C213.845 179.482 216.943 176.937 219.808 175.411C222.33 174.069 223.654 175.019 224.032 177.838C224.222 179.255 224.215 181.366 223.421 182.623C223.168 183.024 222.333 183.028 222.08 183.405C221.64 184.062 222.044 184.543 221.393 185.163ZM250.983 151.149C252.995 152.706 252.799 155.979 253.116 158.208C253.562 161.349 253.238 164.388 253.191 167.588C253.14 170.94 251.496 173.123 250.721 176.265C249.861 179.76 248.751 181.611 246.821 184.544C248.914 184.873 245.799 191.123 245.286 191.932C244.728 192.81 240.233 196.857 242.16 196.857C241.097 198.26 239.939 199.698 238.88 201.062C238.463 201.599 237.731 201.809 237.403 202.188C236.733 202.959 236.693 203.645 236.213 204.544C235.486 205.908 235.246 205.544 234.29 206.534C233.63 207.217 233.196 208.12 232.548 208.775C230.457 210.885 230.191 209.156 229.022 207.531C228.843 207.966 228.525 208.239 228.068 208.35C227.702 206.51 230.221 204.652 231.281 203.535C233.016 201.703 234.602 199.686 236.136 197.683C239.421 193.391 242.373 188.831 244.703 183.947C247.181 178.75 249.161 173.124 250.189 167.454C250.973 163.132 251.718 155.718 245.943 154.618C241.742 153.819 237.112 156.371 233.649 158.437C231.539 159.696 229.417 160.947 227.407 162.363C225.225 163.898 223.339 166.071 220.971 167.303C222.266 166.629 217.992 168.657 218.646 168.087C218.34 168.353 218.604 169.168 218.402 169.535C218.138 170.013 217.221 170.485 216.809 170.794C215.723 171.61 213.987 172.445 213.493 173.793C206.601 168.877 220.306 160.148 223.819 157.926C230.788 153.517 242.913 144.902 250.983 151.149ZM269.572 103.334C269.506 99.7942 272.389 94.9612 274.337 92.0742C275.289 90.661 276.811 90.7173 277.369 89.0507C277.691 88.0909 277.269 87.0846 277.365 86.121C277.494 84.8178 278.059 83.7727 278.711 82.6526C284.605 72.5267 291.766 63.5643 299.392 54.73C303.153 50.3749 306.719 45.8523 310.774 41.7611C312.469 40.0525 317.022 33.9098 319.627 34.5242C321.007 34.8495 321.809 36.9546 322.432 38.0288C323.462 39.8054 324.594 41.4694 325.846 43.1031C329.148 47.4161 332.958 51.2021 337.458 54.2592C340.267 56.1696 343.106 58.0264 345.853 60.028C348.114 61.6752 351.534 63.5585 353.149 65.8712C354.764 68.1846 352.392 70.1435 351.095 72.0643C349.08 75.0516 347.227 78.1468 345.203 81.1308C344.399 80.5527 344.607 79.3782 344.056 78.6377C343.567 77.9812 342.875 77.7142 342.2 77.3087C340.906 76.5332 339.636 75.5851 338.467 76.8844C336.422 79.1583 339.234 84.5333 342.266 83.9435C342.623 86.1876 336.569 89.8837 335.052 91.1189C330.395 94.9075 325.592 98.2013 319.441 98.544C316.952 98.6824 314.362 98.4936 311.997 97.6606C310.863 97.2616 309.611 96.7138 308.742 95.8439C307.702 94.8027 307.437 93.2531 306.428 92.2223C305.553 91.3278 304.352 91.1901 303.477 90.2924C302.601 89.3941 302.169 87.9752 301.814 86.8117C301.119 84.5385 300.988 82.141 300.32 79.8626C299.919 78.4922 299.589 76.66 298.279 77.9767C296.377 79.8898 297.333 85.905 297.82 88.197C298.516 91.4669 300.149 94.103 301.86 96.9162C303.714 99.9681 304.399 102.799 304.732 106.33C305.354 112.94 307.251 119.283 310.203 125.231C311.445 127.735 312.933 130.09 314.274 132.536C314.901 133.678 316.305 137.572 318.009 137.552C320.732 137.518 316.853 129.578 316.315 128.245C313.333 120.863 310.484 113.103 309.845 105.11C314.12 106.211 318.781 107.256 323.208 106.558C320.35 112.949 323.336 119.312 322.97 125.891C322.788 129.19 322.656 132.234 322.724 135.523C322.784 138.407 321.481 141.29 320.356 143.899C318.119 149.078 315.304 155.468 311.151 159.436C307.678 162.753 303.033 163.012 298.497 162.248C288.176 160.51 281.395 152.576 277.064 143.566C274.281 137.778 272.154 131.599 270.833 125.313C269.305 118.038 269.708 110.714 269.572 103.334ZM282.975 54.3051C273.344 47.3366 287.339 39.4232 294.463 40.5006C296.134 40.7529 299.209 41.4436 299.052 43.6244C298.924 45.4067 295.951 47.3935 294.81 48.4936C291.555 51.6328 288.242 58.115 282.975 54.3051ZM353.038 209.143C352.708 208.847 350.012 209.574 351.08 207.979C351.967 206.654 354.427 208.315 355.321 208.656C354.584 209.165 353.943 209.953 353.038 209.143ZM312.935 293.425C312.107 293.527 311.242 291.294 314.226 292.962C313.796 293.116 313.365 293.271 312.935 293.425ZM312.85 329.81C312.952 330.811 313.258 331.47 312.548 332.198C311.947 331.457 311.869 330.413 312.85 329.81ZM314.061 344.844C313.973 345.389 313.885 345.933 313.798 346.477C313.109 346.129 312.421 345.78 311.731 345.431C312.507 345.235 313.285 345.04 314.061 344.844ZM314.904 332.167C315.931 332.551 315.453 331.323 316.199 331.15C316.466 332.429 316.137 333.524 315.403 334.579C315.333 334.329 314.957 332.186 314.904 332.167ZM341.151 241.447C339.71 241.263 339.492 242.786 338.418 243.376C337.725 243.758 335.614 243.471 335.22 244.201C335.74 244.351 336.261 244.502 336.781 244.652C335.59 245.294 334.399 245.936 333.209 246.577C336.072 246.577 339.056 245.21 341.901 245.611C343.103 245.781 343.984 246.187 344.739 247.165C345.196 247.759 345.599 248.714 345.672 249.441C345.752 250.228 345.139 250.771 345.248 251.146C346.529 251.181 346.378 253.283 346.09 254.14C345.466 255.998 342.987 258.908 340.766 257.73C341.695 259.048 341.458 259.801 340.084 260.566C340.209 260.13 340.301 259.368 339.598 259.443C339.418 260.174 339.487 261.333 338.89 261.884C338.222 262.501 337.626 261.78 336.987 262.181C336.23 262.657 336.457 263.404 335.862 263.92C335.074 264.602 334.961 264.117 334.02 264.25C332.594 264.452 333.504 263.566 332.361 264.721C331.966 265.119 332.033 266.156 331.393 266.739C330.163 267.859 326.88 269.025 325.702 267.59C322.869 272.08 314.376 273.157 310.424 269.613C304.119 263.96 315.874 252.463 319.755 248.819C323.651 245.162 327.977 242.004 332.355 238.955C334.842 237.223 337.395 235.651 340.001 234.108C341.609 233.155 343.628 231.416 345.604 231.583C347.376 231.733 348.89 233.108 350.756 233.38C352.105 233.577 354.726 233.901 353.024 235.732C352.228 236.587 349.101 237.969 348.037 238.178C347.411 238.3 346.752 238.066 346.133 238.193C345.084 238.408 344.363 239.293 343.222 239.181C343.583 240.874 342.924 241.672 341.151 241.447ZM359.809 178.565C359.809 179.89 357.391 179.56 356.885 179.11C356.054 178.369 356.025 176.155 355.716 175.148C357.122 175.502 359.807 176.796 359.809 178.565ZM340.324 134.848C345.405 130.672 350.747 126.843 356.394 123.471C358.416 122.264 361.272 119.828 363.783 120.132C364.837 120.26 367.015 121.47 366.222 122.804C366.074 123.054 364.901 123.154 364.539 123.335C364.128 123.54 363.806 124.105 363.425 124.385C360.786 126.32 357.616 127.51 354.969 129.492C352.794 131.12 350.765 132.941 348.423 134.338C346.176 135.677 343.829 136.525 341.696 138.009C341.738 137.979 338.921 138.992 339.474 139.176C337.001 138.349 339.613 135.433 340.324 134.848ZM374.198 133.292C377.217 132.089 380.17 130.63 383.33 129.821C384.906 129.418 386.525 129.114 388.157 129.296C388.435 128.81 388.804 128.703 389.266 128.974C389.626 129.528 390.101 129.953 390.691 130.249C391.591 130.941 394.905 131.846 394.243 133.374C393.805 134.385 390.482 134.469 389.57 134.696C386.821 135.381 384.257 136.922 381.425 137.3C381.159 137.336 380.291 137.014 380.282 137.015C379.176 137.257 378.257 138.403 377.307 138.953C375.264 140.136 372.327 140.334 370.86 142.376C375.612 145.598 379.735 142.403 383.913 139.97C386.416 138.514 389.102 137.463 391.837 136.529C393.267 136.041 394.709 135.534 396.157 135.106C396.757 134.888 397.373 134.731 398.006 134.634C398.594 134.517 399.015 134.731 399.27 135.277C401.021 135.219 401.171 134.12 402.225 136.17C403.711 139.059 401.437 138.912 399.301 139.267C396.337 139.759 393.323 140.866 390.404 141.6C389.73 141.77 383.825 143.139 383.818 143.187C383.55 145.051 400.498 143.325 401.953 143.046C404.521 142.551 407.275 141.149 409.933 141.487C411.974 141.746 416.623 144.741 413.368 146.73C412.727 143.662 410.527 146.196 409.378 147.231C407.848 148.609 405.655 148.477 403.557 149.017C400.687 149.754 393.339 152.521 391.301 148.994C391.945 152.085 380.233 150.514 378.623 150.412C377.053 150.312 375.027 150.645 373.51 150.198C372.52 149.906 371.97 149.263 371.038 149.118C370.81 149.363 370.537 149.531 370.218 149.62C369.746 149.381 369.32 149.077 368.94 148.709C365.803 147.267 360.95 146.471 362.693 141.878C364.337 137.547 370.211 134.882 374.198 133.292ZM403.598 135.969C403.676 135.699 403.755 135.43 403.832 135.159C403.842 135.986 405.814 136.34 405.587 137.411C405.082 139.784 402.805 136.219 402.61 135.83C402.94 135.877 403.268 135.922 403.598 135.969ZM415.642 139.911C415.87 140.884 418.493 142.953 417.843 143.43C416.809 142.024 413.95 142.663 415.642 139.911ZM371.394 228.604C372.355 226.699 375.258 229.943 374.951 226.691C376.53 226.834 375.544 228.035 377.436 227.507C378.145 227.309 378.624 226.524 379.488 226.342C379.718 226.294 380.714 226.373 381.057 226.363C382.195 226.328 386.653 226.201 383.584 224.709C385.302 223.573 385.514 224.149 387.064 225.19C386.666 223.039 388.947 224.26 390.009 224.528C389.252 223.302 391.131 221.996 391.741 221.167C391.522 222.445 391.637 223.875 393.486 223.058C393.946 222.855 393.843 221.952 394.208 221.804C394.877 221.535 395.251 222.026 395.491 221.998C395.727 221.971 396.224 222.104 396.72 221.917C397.365 221.674 397.054 220.809 397.871 220.68C398.404 220.597 398.792 221.379 399.442 221.386C399.776 221.389 400.333 221.05 400.586 221.068C400.631 221.072 400.948 220.306 401.338 220.287C401.909 220.259 402.141 221.788 402.349 222.084C403.348 223.501 404.676 224.424 406.207 225.18C403.436 227.72 397.847 227.451 394.363 228.307C392.476 228.772 390.867 229.441 389.14 230.304C388.723 230.575 388.364 230.907 388.064 231.301C387.82 231.139 387.575 230.976 387.33 230.814C386.384 230.872 385.489 230.404 384.424 230.584C381.134 231.139 378.558 233.603 375.214 234.152C373.712 234.399 372.477 234.744 371.499 233.442C370.64 232.3 370.782 229.819 371.394 228.604ZM366.883 213.423C367.629 214.054 366.732 216.107 368.175 215.884C369.2 215.725 368.995 214.136 369.8 213.799C370.857 213.357 371.494 214.406 372.488 214.309C374.339 214.126 374.233 212.51 372.669 211.799C374.295 211.37 374.817 213.293 376.257 213.276C378.149 213.253 377.697 211.021 379.307 210.651C380.004 210.491 379.771 211.515 380.223 211.642C381.129 211.896 381.759 211.46 382.56 211.076C383.277 210.732 383.787 210.069 384.57 209.844C384.926 209.741 385.832 209.929 386.093 209.738C386.62 209.354 387.092 207.858 387.611 207.66C387.505 207.7 389.206 208.552 389.45 208.632C389.3 209.264 388.954 209.339 388.411 208.858C388.411 210.284 392.374 210.728 391.561 208.966C393.704 209.853 392.108 210.31 391.894 211.549C391.809 212.047 391.519 212.033 391.605 212.559C391.645 212.802 392.768 212.593 392.754 212.923C392.659 215.052 385.876 215.706 384.591 215.894C381.93 216.283 379.412 216.936 376.847 217.742C374.938 218.341 371.646 220.058 369.614 219.951C366.691 219.798 366.31 215.985 366.883 213.423ZM360.353 191.705C359.641 189.337 361.927 184.447 364.904 185.058C365.636 185.208 365.817 185.814 366.385 186.084C367.177 186.46 368.467 186.262 369.155 186.651C370.696 187.523 369.919 189.746 371.463 190.549C369.025 191.14 361.486 195.468 360.353 191.705ZM363.175 200.904C364.225 200.339 365.928 200.267 366.644 199.181C367.001 199.428 367.675 200.928 368.315 200.698C368.614 200.592 368.922 199.779 368.901 199.779C369.471 199.763 369.584 198.992 370.455 199.078C371.254 199.158 372.15 200.119 372.862 200.478C372.739 198.095 373.35 197.868 375.282 196.592C375.705 196.313 376.059 195.264 376.45 194.84C376.076 197.34 377.018 197.353 379.015 197.729C381.517 198.2 383.077 199.544 384.08 201.962C381.947 201.546 379.196 202.047 378.355 204.339C376.653 201.229 370.466 205.521 368.464 206.4C366.979 207.052 365.251 207.929 364.005 206.409C363.128 205.338 363.631 204.05 363.65 203.098C363.655 202.8 363.963 202.782 363.935 202.337C363.899 201.769 363.159 201.542 363.175 200.904ZM385.946 249.81C385.383 250.024 382.484 250.143 382.465 249.183C382.449 248.335 387.582 249.19 385.946 249.81ZM381.237 246.703C379.043 248.056 376.589 243.291 375.782 241.918C378.083 242.213 379.207 240.288 380.562 238.825C381.852 241.651 383.81 240.157 385.87 239.214C388.299 238.101 390.961 238.092 393.45 237.199C394.226 236.92 394.942 236.506 395.7 236.187C396.311 235.959 396.919 235.725 397.525 235.485C397.955 235.097 398.109 234.619 397.983 234.052C397.78 233.576 397.919 233.275 398.4 233.151C398.973 233.322 399.558 233.422 400.156 233.448C401.115 233.258 402.493 232.353 401.335 231.378C402.576 230.251 403.818 231.371 405.012 231.865C404.729 231.056 404.446 230.247 404.162 229.438C404.754 229.689 406.514 232.147 406.693 232.133C407.83 232.048 407.711 230.522 408.365 229.907C408.742 230.372 408.85 233.839 410.332 232.671C410.966 232.171 409.601 230.471 409.265 230.083C410.96 230.466 412.441 232.49 412.899 234.062C412.094 234.178 411.35 234.017 410.666 233.576C410.229 235.764 414.28 234.877 414.936 236.021C416.22 238.259 407.866 239.814 406.777 240.021C404.599 240.437 402.028 240.591 400.032 241.557C398.119 242.481 397.666 242.745 395.431 242.919C392.88 243.117 390.391 243.957 387.923 244.612C385.78 245.18 383.136 245.533 381.237 246.703ZM427.866 166.579C429.881 165.854 436.666 162.092 438.393 163.766C438.211 163.588 439.639 166.539 439.624 166.353C439.747 167.888 439.71 168.505 437.82 169.241C436.467 169.767 435.289 168.648 434.072 169.093C432.735 169.581 433.67 170.445 432.982 171.048C432.228 171.71 430.774 171.996 429.836 172.286C427.539 172.995 425.223 173.588 422.937 174.352C418.285 175.908 413.359 177.355 408.579 178.455C405.006 179.277 398.942 181.32 395.65 178.907C395.329 180.279 394.544 180.092 393.453 180.291C392.598 180.448 391.051 180.872 390.29 180.893C389.025 180.93 385.506 180.599 385.99 178.823C385.857 179.312 388.727 177.639 388.23 177.534C389.45 177.791 389.054 177.177 390.053 176.836C391.357 176.39 392.721 176.414 394.052 175.942C397.41 174.752 400.225 173.208 403.769 172.462C411.863 170.759 420.057 169.389 427.866 166.579ZM103.403 349.987C102.748 350.004 102.237 348.141 104.232 349.471C103.956 349.644 103.68 349.815 103.403 349.987ZM87.6426 347.576C86.7507 347.804 86.395 347.306 86.5768 346.083C87.8204 345.592 88.1755 346.089 87.6426 347.576ZM75.475 345.08C75.2467 343.99 76.0551 343.744 76.7878 343.254C76.7141 344.699 76.7141 344.699 75.475 345.08ZM44.8601 336.107C43.6268 335.836 41.9834 334.63 41.7008 336.655C41.4945 336.186 40.4416 333.981 40.8937 333.471C41.1297 333.204 42.0235 334.439 41.9284 334.317C43.0078 332.133 44.8685 334.768 45.9084 335.547C45.5592 335.734 45.2093 335.921 44.8601 336.107ZM365.519 94.815C365.945 93.9147 366.447 93.6289 367.024 93.9581C366.118 96.0638 363.047 97.2053 365.519 94.815ZM386.855 75.0483C387.615 76.4744 386.471 77.0771 385.655 78.2626C386.132 76.984 386.464 76.098 386.855 75.0483ZM479.582 214.253C482.326 214.252 488.17 212.804 489.824 215.94C490.919 213.809 492.163 217.806 493.113 218.447C493.22 218.519 493.904 217.996 494.222 218.189C494.702 218.479 495.116 219.27 495.391 219.74C496.22 221.158 496.576 222.843 497.035 224.403C492.243 224.403 487.33 223.287 482.543 222.882C479.4 222.615 476.319 222.608 473.172 222.777C472.547 222.811 471.305 222.604 470.77 222.722C470.227 222.842 469.242 223.948 468.643 223.77C469.574 225.517 481.492 229.746 482.402 227.812C481.324 227.16 478.931 226.659 478.933 225.084C478.935 223.319 481.178 223.322 482.367 223.374C484.966 223.488 489.32 224.353 490.386 227.056C490.843 228.215 490.983 231.133 490.481 232.252C490.157 232.975 489.609 233.843 488.74 233.99C488.383 234.05 487.87 233.576 487.815 233.588C486.032 233.966 482.73 235.399 480.785 233.379C479.382 235.194 472.625 233.211 470.556 232.527C466.938 231.329 461.956 229.684 459.759 226.308C457.08 222.194 462.526 218.716 465.653 217.044C469.927 214.758 474.811 214.255 479.582 214.253ZM497.84 223.767C498.682 224.004 499.522 224.242 500.363 224.479C500.138 225.954 496.82 224.787 497.84 223.767ZM523.263 277.366C523.521 271.458 521.813 266.255 520.827 260.541C520.583 259.125 520.832 256.648 519.756 255.483C518.728 254.37 516.434 255.275 516.343 253.307C515.331 254.492 515.433 254.74 514.186 253.376C514.413 253.961 514.446 254.555 514.285 255.161C513.511 254.717 510.705 253.244 510.941 255.258C508.634 254.748 509.302 253.305 507.986 252.204C507.799 252.047 507.048 252.603 506.755 252.366C506.226 251.937 505.965 251.548 505.518 250.996C504.951 251.681 504.179 252.177 503.486 252.719C503.083 251.841 502.298 251.197 501.355 250.984C502.237 252.828 504.416 255.217 501.427 256.267C499.643 256.893 496.72 256.125 494.83 256.271C487.826 256.814 480.155 255.288 473.383 253.619C466.426 251.905 459.391 249.486 453.134 245.949C451.801 245.195 450.961 244.303 449.812 243.368C448.696 242.458 447.884 242.315 446.542 241.733C444.127 240.687 441.918 239.009 440.08 237.138C436.129 233.116 432.458 227.856 433.559 221.968C434.655 216.099 438.69 211.512 443.007 207.647C448.105 203.083 453.861 199.272 459.97 196.199C462.702 194.826 469.689 189.666 472.388 192.685C474.113 194.614 473.143 197.075 470.786 197.503C470.205 197.61 469.598 197.22 469.01 197.487C468.162 197.872 468.461 198.327 468.111 198.649C467.503 199.207 466.858 200.077 465.951 200.561C462.784 202.25 459.722 203.588 456.695 205.645C455.299 206.592 453.956 206.999 452.726 207.827C451.502 208.649 451.224 210.009 449.579 209.17C450.165 211.563 446.646 214.125 445.268 215.591C443.131 217.861 440.57 220.759 441.567 224.117C443.518 230.692 452.334 235.685 457.975 238.575C465.015 242.182 472.779 245.052 480.618 246.24C484.516 246.831 488.544 247.196 492.47 247.57C495.527 247.862 500.218 246.794 502.418 249.547C502.486 246.337 512.513 246.62 514.647 246.209C510.368 231.584 501.966 218.58 492.985 206.43C488.577 200.466 484.247 194.333 479.223 188.865C473.722 182.88 467.437 177.53 461.466 172.023C449.753 161.221 436.507 151.58 423.028 143.087C409.58 134.614 395.652 126.275 380.919 120.234C364.092 113.335 346.376 108.797 328.641 104.932C331.047 101.866 334.96 100.371 338.04 98.1282C339.119 97.3431 340.577 95.4585 341.978 95.2011C343.495 94.9217 344.689 96.5541 345.769 97.3735C348.869 99.725 351.013 98.7264 354.564 98.5848C356.688 98.5001 361.719 99.6829 362.615 96.8095C363.806 98.3953 362.079 99.6668 361.195 100.83C361.838 101.727 362.357 100.796 362.992 100.656C363.188 100.493 363.384 100.33 363.58 100.168C363.895 99.7114 364.18 99.7088 364.433 100.159C364.812 100.729 365.193 100.603 365.577 99.7799C365.683 99.714 365.788 99.6474 365.893 99.5814C366.352 99.3369 366.795 98.9502 367.222 98.6456C370.449 96.34 373.324 94.3759 376.886 92.6776C379.877 91.2522 378.268 88.5249 380.24 86.5989C380.686 86.163 381.437 86.3816 381.915 86.0124C382.382 85.6495 382.452 85.2382 382.793 84.8495C383.612 83.915 382.637 82.8304 384.727 83.9745L383.973 79.7313C388.071 83.7074 388.055 72.2654 388.615 70.5723C388.542 70.7961 388.983 69.0635 388.983 69.0784C389.103 65.6449 389.572 63.1562 385.55 62.9571C387.073 61.9993 387.538 63.8696 388.241 61.9333C388.593 60.9632 387.495 59.2959 389.246 59.9213C389.615 57.8595 389.25 56.191 388.791 54.1874C388.32 52.1366 388.597 50.7681 388.619 48.7174C388.642 46.3911 387.553 44.0531 387.205 41.7624C386.932 39.9684 387.213 37.1389 384.894 37.798C384.568 37.2877 385.713 35.7181 385.667 34.942C385.594 33.7365 384.286 32.5116 383.916 31.3539C383.37 31.9166 382.602 32.1041 381.86 31.85C382.557 30.2771 381.903 29.7488 381.236 28.3926C380.854 27.6158 381.085 26.7583 380.267 26.2014C379.798 25.882 378.998 26.42 378.631 26.0456C377.843 25.2436 378.134 24.1798 377.592 23.123C376.913 21.7978 375.36 20.7857 374.29 19.791C368.275 14.2001 361.742 9.92712 353.74 7.74246C345.669 5.5384 336.258 4.74875 328.213 7.29104C324.998 8.30706 322.143 8.20293 319.249 10.1004C318.311 10.7161 318.21 10.5512 317.733 11.5776C317.623 11.8169 318.622 12.4539 318.01 12.8452C317.346 13.2701 316.612 12.406 316.273 11.6888C312.086 14.7194 308.163 18.7595 305.778 23.392C303.409 27.9955 303.191 33.4034 302.286 38.4059C298.113 33.6382 292.469 31.3526 286.332 33.6447C280.983 35.6418 276.838 40.0318 275.791 45.7191C275.153 49.1862 275.85 52.6973 277.425 55.8256C278.106 57.1772 278.931 58.6738 280.183 59.5837C281.173 60.3029 282.868 60.202 283.335 61.4993C284.049 63.4867 279.922 67.7791 278.85 69.5188C276.912 72.6671 275.111 75.9182 273.74 79.3568C268.824 72.4129 264.118 64.8287 258.529 58.4261C253.253 52.383 246.965 46.9634 240.797 41.8555C227.995 31.2543 214.684 21.2947 200.364 12.849C187.031 4.9848 170.925 0.618725 155.385 2.16247C140.202 3.67129 128.577 13.2739 118.796 24.3492C99.9874 45.6441 88.4678 75.9958 87.3425 104.343C87.0042 112.858 87.6529 121.262 89.7561 129.522C90.7579 133.455 90.6124 137.323 91.1944 141.306C91.8515 145.799 92.9878 150.277 94.0866 154.678C98.2722 171.446 103.605 188.201 109.589 204.413C112.701 212.844 116.465 221.086 121.558 228.52C123.911 231.954 126.958 234.641 129.489 237.901C131.945 241.064 132.594 244.946 133.134 248.826C134.428 258.131 135.287 267.475 136.066 276.833C136.396 280.8 136.782 284.731 137.308 288.67C137.765 292.104 136.614 291.935 133.725 293.101C134.311 290.016 120.508 292.115 119.205 292.326C117.787 292.555 116.285 292.558 115.168 292.74C113.919 292.943 112.697 293.238 111.259 293.196C109.144 293.135 105.186 292.595 104.379 295.294C103.823 292.165 100.154 295.587 102.869 295.006C100.082 295.318 97.2381 294.799 94.4177 295.061C91.1853 295.362 87.9252 295.647 84.7155 296.134C82.481 296.472 80.3487 297.333 78.1104 297.582C75.246 297.903 72.2569 297.873 69.3647 298.128C58.6969 299.069 47.6397 301.396 37.27 304.06C34.9211 304.663 32.2223 305.092 29.9782 306.061C29.3773 306.32 28.8367 306.899 28.2611 307.122C27.2962 307.494 27.4281 307.237 26.5712 307.408C21.4368 308.434 16.1401 310.11 11.0063 311.426C8.15877 312.156 3.52689 312.814 1.20384 314.802C0.162602 315.691 -0.747348 317.27 0.921216 318.282C2.25413 319.089 4.15681 317.8 5.23555 317.103C4.27451 319.607 2.46173 320.856 3.44088 323.705C4.21372 325.957 5.9586 328.732 8.64318 327.28C9.00276 328.116 9.14827 329.779 10.207 330.086C11.1583 330.363 11.8471 329.157 12.779 329.441C13.1127 329.543 12.986 330.173 13.2848 330.338C13.7996 330.621 14.3215 330.742 14.9113 330.941C15.4183 331.113 16.2345 331.467 16.7635 331.504C17.0992 331.528 17.8901 330.954 17.8875 330.954C18.6584 331.071 19.073 332.546 19.6279 332.972C20.3483 333.526 20.9433 333.652 21.8455 333.852C23.721 334.269 26.1385 334.983 27.3764 333.063C27.0931 334.434 28.9576 334.299 29.7803 334.473C29.6891 333.751 29.29 333.089 28.6744 332.693C30.5137 332.814 29.768 334.643 31.1274 335.126C32.0962 335.469 31.9863 334.596 32.7274 334.499C33.704 334.372 34.4451 335.08 35.9701 334.427C36.3006 335.895 36.4215 337.376 38.2253 337.596C39.284 337.724 41.7525 335.813 41.6128 337.404C43.9779 336.71 44.8756 337.179 46.1115 339.264C46.3204 337.984 47.3312 338.355 48.2586 338.276C49.7287 338.151 49.7662 338.269 50.9057 337.437C51.0098 337.361 51.9062 335.307 52.3046 336.583C52.4837 337.155 51.2996 338.5 50.8611 338.842C51.4056 339.118 53.19 340.082 53.8761 339.905C54.4698 339.752 54.4718 338.737 55.1851 338.685C55.0105 339.268 54.8365 339.852 54.6613 340.435C56.0491 340.637 57.2087 339.708 58.3049 339.028C59.3501 341.671 62.3373 340.182 63.9619 342.171C64.8214 343.223 64.8615 344.022 66.499 344.297C68.1747 344.578 69.6382 343.843 71.0623 345.225C70.6109 344.367 69.4863 343.656 70.6038 342.734C71.3644 343.814 71.7569 345.114 72.6339 346.118C72.7548 345.607 72.8758 345.097 72.9967 344.586C75.2829 347.031 78.1609 347.053 81.0892 348.408V346.619C83.186 349.819 83.2978 347.794 85.8026 346.487C85.6325 347.428 85.4618 348.369 85.2917 349.309C87.0941 349.173 88.7782 351.309 90.2579 349.495C91.1517 350.994 92.235 350.256 93.6998 350.732C94.5328 351.003 95.153 351.823 95.9634 352.12C97.1786 352.565 97.5414 352.544 98.6855 352.932C99.7028 353.276 100.281 353.946 101.554 354.16C102.382 354.3 103.132 354.29 103.923 354.252C104.229 354.237 104.128 353.548 104.808 353.709C105.859 353.958 106.642 355.276 107.398 355.952C108.536 353.091 111.724 356.923 113.264 357.433C113.412 356.7 113.385 355.816 113.916 355.213C114.539 356.579 114.777 357.727 116.072 358.607C116.819 359.114 117.915 359.478 118.778 359.663C119.323 359.78 120.314 359.64 120.657 359.808C121.241 360.095 121.457 360.86 122.047 360.932C122.395 360.974 122.909 360.06 123.169 360.131C124.359 360.456 125.02 361.901 126.222 362.683C129.798 365.009 134.298 365.235 138.282 365.745C139.281 365.873 139.426 365.6 140.239 366.186C140.672 366.5 140.475 367.453 141.008 367.72C143.016 368.727 143.018 366.579 143.439 365.245C144.103 366.122 144.217 367.279 145.126 367.976C145.622 367.962 146.119 367.973 146.614 368.009C146.893 368.328 147.077 368.696 147.162 369.113C148.365 369.926 149.728 369.643 150.97 370.253C151.378 370.453 152.1 371.661 152.601 372.009C153.5 372.631 154.889 372.963 155.915 373.234C158.068 373.8 161.154 373.047 162.434 375.295C164.135 373.472 163.477 375.649 164.631 376.106C165.313 376.375 166.338 375.303 167.094 375.409C168.455 375.601 168.946 377.075 169.382 378.146C170.211 377.961 169.641 375.616 169.618 375.101C170.648 374.98 170.877 377.693 171.055 378.289C172.682 377.506 170.012 375.068 171.761 374.287C171.6 376.363 173.255 378.073 170.3 378.371C170.708 379.621 180.241 381.011 180.903 379.907C181.05 381.948 182.421 380.041 182.927 379.343C182.984 380.533 182.578 382.223 183.914 382.777C184.822 383.153 186.87 382.181 187.226 381.291C187.633 382.65 188.315 382.606 189.162 383.469C189.744 384.063 190.127 385.091 190.738 385.587C191.861 386.501 193.951 386.362 195.26 386.157C197.821 385.758 197.518 385.267 198.431 387.929C198.637 386.919 199.284 384.806 200.412 386.377C201.13 387.374 199.601 389.574 199.16 390.45C200.146 389.908 201.126 389.265 202.249 389.032C202.312 389.378 202.369 390.112 202.204 390.432C202.237 390.367 203.435 391.171 203.879 391.393C203.773 391.34 204.231 389.34 204.218 389.405C205.798 390.38 204.701 392.245 206.101 393.207C206.462 393.456 207.311 393.165 207.748 393.317C208.509 393.58 209.168 394.294 209.844 394.711C209.304 393.987 209.382 392.771 209.419 391.935C209.763 392.125 210.008 392.836 210.356 392.892C210.487 392.914 211.848 393.094 211.839 393.088C213.256 394.08 212.965 394.205 211.748 395.398C212.183 396.081 213.999 394.894 214.491 394.697C214.594 394.964 214.62 395.934 214.814 396.107C214.931 396.394 215.048 396.682 215.166 396.969C215.529 396.698 215.918 396.608 216.333 396.698C216.596 396.789 218.646 397.623 218.785 397.337C218.336 397.192 217.93 396.97 217.566 396.671C218.749 395.607 219.527 395.042 220.617 396.577C220.754 396.771 220.282 397.465 220.422 397.718C220.943 398.657 222.012 399.404 222.739 400.169C223.039 399.113 222.34 396.468 224.01 396.564C225.344 396.641 226.358 399.873 225.897 400.878C226.427 400.298 229.593 399.722 230.191 399.903C231.881 400.415 231.407 401.978 233.486 399.688C234.904 400.667 233.654 401.037 233.91 402.23C234.284 402.308 234.639 402.216 234.974 401.952C234.723 407.021 238.463 403.148 240.892 403.922C241.845 404.226 242.089 405.308 243.112 405.625C243.653 405.791 244.255 405.396 244.782 405.493C245.204 405.432 245.623 405.358 246.039 405.269C246.567 405.005 246.815 405.301 246.782 406.157C247.631 406.597 247.31 406.769 248.302 406.854C248.941 406.91 249.529 406.245 250.255 406.358C251.508 406.555 251.342 407.516 252.143 408.019C252.863 408.471 253.676 408.457 254.563 408.369C255.015 408.325 256.285 407.742 256.437 407.74C257.385 407.727 256.871 407.525 258.009 408.34C258.895 408.975 259.267 409.386 260.355 409.678C261.603 410.013 263.816 410.744 264.655 409.842C265.789 411.542 266.677 410.295 268.173 410.407C268.939 410.465 269.061 410.763 269.742 410.882C270.847 411.075 272.225 410.908 273.4 411.285C275.252 411.88 275.461 412.179 277.353 412.259C277.695 412.126 278.036 411.992 278.377 411.859C278.479 412.429 278.747 412.894 279.183 413.254C280.241 413.476 280.937 412.942 281.81 412.356C282.46 414.383 284.571 414.56 286.377 414.826C289.29 415.256 292.077 415.491 294.886 416.449C297.259 417.257 299.636 418.165 301.919 419.201C303.927 420.112 305.823 421.475 308.095 420.835C313.245 419.385 318.235 414.099 322.543 411.064C327.645 407.47 333.148 404.508 338.48 401.276C359.706 388.41 382.13 377.526 403.058 364.181C414.484 356.896 425.086 348.239 437.356 342.345C435.609 349.563 432.636 356.891 433.173 364.448C433.389 367.493 434.286 371.091 436.648 373.217C439.568 375.846 442.82 374.172 445.613 372.294C451.597 368.271 455.587 362.4 460.066 356.887C465.363 350.365 469.472 343.359 473.362 335.926C474.294 337.234 473.585 339.426 473.599 340.876C473.617 342.727 474.116 344.511 474.974 346.163C477.19 350.428 481.407 351.462 485.217 348.54C492.549 342.917 496.805 332.902 500.734 324.838C502.975 329.006 506.155 334.254 511.537 331.276C515.977 328.819 518.586 323.329 519.944 318.679C523.91 305.106 522.653 291.279 523.263 277.366Z" fill="#2D1A45"/>
<path fill-rule="evenodd" clip-rule="evenodd" d="M516.529 195.834C516.022 194.604 515.8 194.805 516.731 193.612C517.457 194.327 516.876 194.917 516.529 195.834ZM538.97 270.281C537.546 266.232 538.426 261.836 537.561 257.683C537.164 255.778 536.537 253.93 536.311 251.99C536.211 251.129 535.445 247.255 535.967 246.645C534.36 245.672 534.355 244.952 533.984 243.045C534.556 242.438 534.484 241.92 533.768 241.49C533.3 240.923 532.831 240.356 532.362 239.789C534.411 240.791 533.199 238.227 532.99 236.749C532.824 235.581 532.713 234.363 532.324 233.243C531.844 231.867 530.779 231.171 532.996 231.171C532.266 230.341 531.175 229.485 530.812 228.469C530.289 227.007 531.151 225.074 530.085 223.783C529.491 223.062 526.427 222.78 526.965 221.224C527.238 220.431 528.48 221.023 528.864 220.468C530.374 218.284 525.916 217.38 525.697 216.451C525.414 215.247 527.024 214.978 527.123 213.852C527.22 212.75 525.507 210.939 525.054 209.953C524.437 210.103 523.76 211.079 523.054 210.613C522.92 210.525 523.121 206.71 522.961 206.203C522.803 205.705 522.48 204.385 522.365 204.14C521.908 203.17 520.6 202.697 520.392 201.55C520.268 200.866 522.949 199.83 519.874 199.798C520.979 197.851 518.955 196.668 518.219 195.005C517.272 192.866 516.714 190.556 515.741 188.406C514.795 186.316 513.738 184.334 512.375 182.486C511.141 180.813 510.607 179.204 509.621 177.437C509.424 177.282 509.226 177.126 509.029 176.971C508.207 177.09 507.943 176.716 508.238 175.847C507.608 174.915 507.141 173.921 506.586 172.947C505.941 171.816 505.071 170.894 504.405 169.794C503.521 168.335 503.26 166.691 502.26 165.228C501.032 163.428 499.651 161.841 498.512 159.974C497.085 157.635 495.505 156.181 493.71 154.369C492.856 153.507 492.753 151.352 491.706 150.127C490.566 148.793 489.44 148.431 488.649 146.68C487.621 144.401 486.112 143.313 484.643 141.344C483.432 139.72 482.84 137.852 481.505 136.281C480.357 134.931 479.054 133.698 477.828 132.418C476.281 130.802 475.139 128.838 473.529 127.301C473.761 127.523 472.127 126.228 472.209 126.269C471.848 126.085 470.681 125.937 470.851 126.037C468.421 124.609 465.375 119.38 461.718 122.15C459.794 123.608 460.717 126.28 462.06 127.731C462.637 128.355 465.635 131.428 466.282 130.132C466.981 131.123 469.134 135.912 470.925 134.54C470.743 136.177 471.691 135.633 472.317 136.74C472.729 137.47 472.528 137.828 472.828 138.968C473.654 142.101 476.805 145.16 478.483 147.892C482.661 154.691 487.269 161.14 491.45 167.947C495.434 174.434 499.897 180.59 503.719 187.164C508.067 194.641 513.484 201.698 516.76 209.757C516.871 210.028 517.781 210.457 518.006 210.864C518.4 211.571 518.316 212.793 518.569 213.594C519.448 216.369 520.873 219.102 522.496 221.401C523.92 223.418 524.024 226.16 525.003 228.526C526.385 231.861 527.845 235.161 529.188 238.513C531.277 243.731 532.693 248.731 534.137 254.178C535.073 257.708 535.817 261.236 536.115 264.881C536.39 268.233 536.457 271.724 537.697 274.898C538.543 273.591 539.54 271.899 538.97 270.281Z" fill="#632BAA"/>
<path fill-rule="evenodd" clip-rule="evenodd" d="M60.9477 342.108C59.446 341.804 58.0329 341.399 57.7147 339.675C57.4968 340.488 57.2795 341.301 57.0615 342.114C58.8898 342.528 60.7188 342.943 62.5471 343.356C62.1202 342.604 61.8085 342.282 60.9477 342.108Z" fill="#2D1A45"/>
<path fill-rule="evenodd" clip-rule="evenodd" d="M64.9762 59.1364C65.0901 58.6501 65.2375 58.1735 65.4192 57.7085C65.5428 58.1618 66.1481 59.1423 65.7956 59.5697C65.3468 60.1124 64.8928 59.8052 64.9762 59.1364ZM72.338 45.1296C72.8308 45.3469 73.8972 45.3889 74.509 45.5726C72.922 46.9378 72.6426 46.5362 70.5905 46.3777C70.4993 44.9963 71.0607 44.5675 72.338 45.1296ZM58.5814 79.3274C58.7941 79.3332 59.0076 79.3383 59.2216 79.3435C59.2346 78.7421 59.219 78.1413 59.1738 77.5411C61.3377 78.0138 60.1128 74.2324 59.4331 73.4486C61.544 73.5191 62.5723 66.8358 63.2411 65.5481C63.8348 64.4047 64.5074 63.9623 64.9413 62.568C65.3209 61.3476 65.7316 60.2495 66.2794 59.095C67.5379 56.4409 69.189 54.0305 68.8844 50.9372C69.9509 53.2583 70.8886 50.9411 71.5651 49.8313C72.6549 48.0431 75.3136 45.7614 75.5962 43.6375C75.8458 41.7678 74.4567 41.6689 75.2767 39.935C76.1058 38.1798 76.7875 38.3557 78.24 37.7943C79.2062 37.4205 79.3983 37.8745 80.08 36.6548C80.5217 35.8651 80.3658 35.2766 80.9317 34.6292C81.1652 34.8323 81.431 34.9164 81.7285 34.8815C82.1877 34.2755 82.489 33.6003 82.632 32.8559C83.0064 31.8509 83.1875 30.928 83.7515 29.9708C84.2863 29.0641 85.2357 26.6382 85.7389 26.2011C86.2731 25.7367 89.303 25.9728 89.2901 25.9896C90.5415 24.4154 88.2449 22.8471 91.4249 23.1789C90.7969 22.0096 93.0029 20.5583 93.6432 19.9077C95.2426 18.2838 95.37 17.5323 95.7076 15.4899C95.8789 14.4487 94.7601 14.569 96.2599 14.3316C96.8801 14.234 97.4751 15.0268 97.9226 14.9104C99.8984 14.3982 97.8314 14.4959 98.3766 13.6907C98.5486 13.4352 99.4276 12.4044 99.4192 12.4153C99.3765 12.4671 99.6171 11.5183 99.8162 11.2745C100.194 11.2422 100.566 11.1762 100.931 11.0766C101.117 10.7015 101.281 10.3174 101.423 9.92414C102.853 8.73157 104.993 8.19802 105.982 6.88774C106.621 6.04053 106.43 5.21077 107.256 4.36614C108.043 3.56161 109.085 4.14431 109.24 2.327C109.439 0.0149389 106.956 -1.01401 105.939 1.31939C103.184 -2.074 91.6687 10.3762 90.3384 12.0027C84.5599 19.0637 78.8803 26.2994 74.1404 34.1073C69.5221 41.7155 65.7316 49.7207 62.7689 58.112C61.3403 62.158 60.4705 66.1858 59.598 70.3708C59.3051 71.7723 57.1159 78.0177 58.0271 79.4153C58.2114 79.3862 58.3964 79.3565 58.5814 79.3274Z" fill="#632BAA"/>
<path fill-rule="evenodd" clip-rule="evenodd" d="M513.43 252.483C514.404 251.833 514.404 251.833 514.574 250.607C513.269 250.845 513.269 250.845 513.43 252.483Z" fill="#2D1A45"/>
<path fill-rule="evenodd" clip-rule="evenodd" d="M33.6636 335.023C33.6761 335.021 33.6853 335.025 33.6925 335.032C33.6715 335.005 33.5953 334.925 33.6636 335.023Z" fill="#2D1A45"/>
<path fill-rule="evenodd" clip-rule="evenodd" d="M33.0094 335.68C33.3101 336.33 33.7932 336.492 34.4593 336.164C34.7219 336.539 32.1815 333.823 33.0094 335.68Z" fill="#2D1A45"/>
<path fill-rule="evenodd" clip-rule="evenodd" d="M76.9383 39.028C75.414 42.0165 77.3231 39.8428 77.2255 40.8136C77.2895 40.1759 77.554 39.2672 76.9383 39.028Z" fill="#2D1A45"/>
<path fill-rule="evenodd" clip-rule="evenodd" d="M324.76 85.2829C325.42 90.6417 332.752 88.1072 334.401 84.8657C335.602 82.5058 338.634 73.1806 335.371 71.2107C332.953 69.7504 332.436 76.0443 331.84 77.4503C330.841 79.8051 330.06 78.1365 327.838 78.7406C325.387 79.4073 324.487 83.0607 324.76 85.2829Z" fill="#2D1A45"/>
<path fill-rule="evenodd" clip-rule="evenodd" d="M316.75 75.4744C319.37 76.0565 321.939 75.7564 323.8 73.6868C324.831 72.5408 326.203 70.2676 324.347 69.1584C322.665 68.1541 320.757 70.5062 318.986 70.0199C316.577 69.3583 317.817 66.7752 316.991 65.0692C313.954 66.8179 312.259 74.4771 316.75 75.4744Z" fill="#2D1A45"/>
<path fill-rule="evenodd" clip-rule="evenodd" d="M319.468 89.0056C316.941 89.0004 316.921 92.1073 318.239 93.4389C319.501 94.713 322.692 96.0025 324.403 95.0118C327.777 93.056 321.512 89.2073 319.468 89.0056Z" fill="#2D1A45"/>
<path fill-rule="evenodd" clip-rule="evenodd" d="M172.485 212.555C173.024 212.817 174.614 214.165 175.284 213.556C174.339 212.603 173.392 211.651 172.447 210.698C171.924 211.271 171.566 212.109 172.485 212.555Z" fill="#2D1A45"/>
<path fill-rule="evenodd" clip-rule="evenodd" d="M160.549 76.2495C160.281 76.45 160.012 76.6498 159.743 76.8497C160.649 77.6044 160.627 77.8288 161.54 77.1142C161.269 76.7572 160.939 76.4694 160.549 76.2495Z" fill="#2D1A45"/>
<path fill-rule="evenodd" clip-rule="evenodd" d="M331.756 254.045C331.248 253.133 330.289 254.815 329.641 255.089C328.585 255.533 327.719 253.179 328.022 256C325.636 254.908 324.188 257.414 322.65 258.719C320.476 260.564 317.817 261.564 316.367 264.183C323.192 265.78 330.691 259.896 335.78 256.031C336.61 255.4 340.761 252.216 337.948 251.909C336.797 251.783 332.61 255.578 331.756 254.045Z" fill="#2D1A45"/>
<path fill-rule="evenodd" clip-rule="evenodd" d="M329.732 248.521C331.069 247.468 328.185 247.372 327.729 247.261C327.769 248.099 327.807 248.935 327.847 249.773C328.492 249.382 329.121 248.964 329.732 248.521Z" fill="#2D1A45"/>
<path fill-rule="evenodd" clip-rule="evenodd" d="M324.709 252.033C325.109 251.783 326.223 251.004 325.465 250.423C324.781 250.859 324.291 251.57 324.184 252.382C324.359 252.266 324.534 252.149 324.709 252.033Z" fill="#2D1A45"/>
<path fill-rule="evenodd" clip-rule="evenodd" d="M214.176 184.121C213.321 184.456 212.939 184.986 213.028 185.711C214.341 185.443 214.091 184.203 214.176 184.121Z" fill="#2D1A45"/>
</svg>
