<svg width="503" height="371" viewBox="0 0 503 371" fill="none" xmlns="http://www.w3.org/2000/svg">
  <path fill-rule="evenodd" clip-rule="evenodd" d="M356.182 273.064C354.003 275.584 350.785 277.454 348.316 279.758C345.724 282.179 342.91 284.294 340.328 286.685C328.936 272.761 313.33 264.224 299.811 252.67C293.402 247.192 288.68 239.763 285.225 232.138C283.453 228.228 282.145 224.205 281.12 220.041C280.659 218.165 280.208 216.296 279.907 214.395C279.541 212.092 279.447 211.896 277.893 210.099C277.225 209.325 275.93 207.066 274.62 207.315C273.517 207.524 271.501 210.88 270.805 211.708C267.455 215.695 264.207 219.802 260.68 223.634C255.284 229.497 250.372 235.267 245.362 241.482C235.113 254.196 224.058 266.164 212.903 278.128C212.075 279.015 210.146 281.617 208.957 281.966C207.512 282.391 205.163 280.619 203.708 279.628C200.194 277.236 197.425 274.275 194.421 271.311C188.561 265.525 184.592 257.405 181.922 249.678C180.324 245.053 179.285 240.259 177.635 235.65C176.948 233.729 175.389 231.368 176.181 229.695C176.416 229.196 177.915 227.871 178.444 227.77C179.069 227.65 180.112 228.507 180.329 228.448C182.403 227.88 181.252 225.708 182.486 224.54C183.186 223.877 186.744 223.974 187.806 223.61C191.69 222.277 195.175 219.736 198.846 218.219C214.218 211.868 229.776 205.691 243.046 195.32C246.488 192.631 248.774 190.61 252.881 188.872C257.031 187.116 261.202 185.549 265.436 184.016C269.172 182.664 272.928 181.396 276.788 180.427C280.961 179.378 286.881 178.049 291.05 179.4C299.238 182.051 301.882 188.797 305.143 195.914C309.555 205.544 314.889 214.656 320.672 223.519C331.796 240.571 345.326 255.873 356.182 273.064Z" fill="#31DCBD" />
  <path fill-rule="evenodd" clip-rule="evenodd" d="M109.587 122.308C109.136 122.079 105.619 123.511 105.028 123.73C102.67 124.605 100.448 126.059 98.2259 127.242C99.9289 129.315 101.632 131.388 103.335 133.461C105.004 129.366 107.149 125.988 109.587 122.308ZM110.748 147.782C110.169 147.848 115.061 159.603 115.632 160.923C117.71 165.723 119.893 170.477 121.999 175.266C124.04 179.906 126.629 184.175 129.236 188.51C131.467 192.217 133.762 197.971 137.126 200.717C135.002 191.291 135.282 180.453 129.188 172.539C122.871 164.335 116.625 156.323 110.748 147.782ZM356.182 273.482C346.743 258.534 334.926 245.311 325.083 230.63C319.571 222.409 314.207 214.084 309.567 205.333C306.193 198.968 304.095 189.887 298.883 185.021C296.586 182.877 294.132 180.778 291.05 179.818C286.832 178.504 281.025 179.806 276.788 180.845C268.892 182.781 261.178 185.788 253.699 188.945C246.113 192.147 239.641 197.9 232.787 202.521C225.434 207.48 217.475 211.092 209.237 214.253C202.065 217.007 195.684 220.959 188.549 223.73C187.128 224.282 184.226 224.201 183.034 224.922C181.749 225.697 182.255 227.987 180.694 228.831C179.991 229.212 179.756 227.831 179.216 227.853C178.555 227.881 177.952 228.657 177.316 229.148C174.723 231.148 176.311 232.482 177.338 235.235C180.684 244.204 182.483 253.33 187.182 261.797C191.045 268.757 196.574 274.994 203.084 279.601C204.074 280.303 207.302 283.02 208.464 282.839C209.511 282.677 211.639 279.895 212.362 279.14C215.64 275.712 218.636 272.024 221.913 268.591C226.975 263.284 231.849 257.836 236.762 252.457C242.465 246.213 247.512 239.139 252.649 232.467C255.012 229.398 258.054 226.898 260.68 224.052C264.212 220.226 267.455 216.112 270.805 212.127C271.818 210.921 273.516 207.836 275.091 207.872C276.195 207.898 278.141 210.496 278.719 211.311C280.865 214.338 280.855 219.805 281.922 223.583C284.526 232.798 289.222 241.797 295.661 248.908C302.065 255.979 310.268 261.007 317.842 266.69C326.047 272.848 333.82 279.149 340.327 287.103C342.91 284.712 345.724 282.597 348.316 280.177C350.786 277.872 354.004 276.002 356.182 273.482ZM234.675 315.771C236.51 315.79 239.618 316.919 241.26 316.239C236.39 310.851 231.918 306.228 225.757 302.279C219.364 298.182 212.991 294.121 206.781 289.75C194.267 280.942 185.062 270.496 179.835 255.828C178.489 252.05 177.587 248.089 176.601 244.206C176.07 242.114 175.013 232.331 173.219 231.486C172.157 230.985 164.158 236.607 162.891 237.307C159.928 238.946 156.954 240.217 153.89 241.499C147.306 244.256 140.517 246.359 133.535 248.115C125.163 250.219 119.461 246.737 114.275 240.157C108.392 232.692 103.502 224.269 98.1227 216.43C95.6763 212.865 93.6497 209.305 91.843 205.372C90.6606 202.799 85.971 195.856 87.5914 193.115C92.2145 196.634 93.8779 203.633 97.0271 208.346C100.952 214.219 105.375 219.757 109.321 225.625C112.638 230.559 116.023 236.539 120.924 240.086C125.236 243.206 129.332 242.247 133.971 240.845C139.595 239.145 145.424 238.308 150.935 236.2C156.9 233.92 162.542 230.685 168.361 228.047C171.074 226.817 174.322 226.118 176.879 224.584C179.082 223.263 178.753 222.566 178.915 219.753C179.104 216.471 179.322 213.186 179.467 209.901C179.564 207.694 178.371 204.702 179.181 203.054C172.574 204.2 166.118 205.734 159.558 207.091C155.966 207.834 152.503 208.752 148.874 209.336C147.491 209.558 145.601 209.552 144.362 210.155C143.374 209.871 142.871 210.052 142.851 210.696C142.804 211.045 142.729 211.39 142.627 211.729C140.601 212.651 139.423 210.674 137.666 208.778C135.498 206.439 133.874 203.804 132.284 201.054C128.728 194.907 124.628 189.126 121.337 182.806C117.983 176.363 115.259 169.465 112.415 162.78C109.806 156.648 108.135 150.016 105.252 144.028C103.966 141.356 102.335 139.146 100.431 136.888C98.8598 135.025 96.4424 131.006 94.0959 130.15C93.4755 129.924 91.8507 130.304 91.1459 130.254C89.7411 130.153 88.4892 129.638 87.0516 129.75C83.939 129.994 80.5456 131.962 78.0583 133.693C79.6657 135.126 83.6867 136.867 80.7984 139.448C77.9956 141.954 76.4475 137.459 75.3779 135.49C70.3415 139.626 71.0694 145.328 70.4876 151.172C70.1837 154.223 69.3843 157.227 68.8686 160.232C68.4972 162.395 68.7577 164.632 68.6515 166.84C68.3809 172.451 67.8169 177.822 67.8435 183.354C67.8734 189.268 68.2762 194.979 68.7495 200.849C69.5459 210.733 71.3709 220.62 72.9359 230.426C73.8163 235.937 75.0214 241.292 76.1913 246.715C77.5189 252.869 79.9749 258.698 81.3523 264.836C82.7556 263.052 83.8112 263.044 86.081 263.28C87.8268 263.462 88.9996 263.047 88.8973 265.47C88.8312 267.041 87.4448 268.242 85.9107 268.516C83.9101 268.874 83.2303 267.876 82.1994 266.36C81.9582 269.23 83.8879 272.23 84.6511 275.032C85.3732 277.688 85.8518 280.291 87.0656 282.833C88.2499 285.313 89.264 287.759 90.4623 290.215C91.0142 291.344 91.5304 292.492 92.0886 293.619C92.3708 294.19 92.7032 294.976 93.1243 295.457C94.1123 296.584 93.955 296.038 95.1114 296.681C97.6306 298.08 96.6846 297.731 96.7434 300.621C96.8009 303.472 98.2626 305.566 100.607 307.168C105.58 310.568 110.485 311.514 116.139 313.231C121.407 314.832 126.956 316.206 132.534 316.174C139.366 316.136 146.108 315.24 152.94 315.15C160.477 315.05 168.087 315.091 175.609 315.351C178.707 315.458 181.585 315.596 184.577 316.387C188.05 317.307 191.411 316.942 194.992 316.803C202.63 316.506 210.532 315.915 218.071 315.862C223.499 315.823 229.227 315.444 234.675 315.771ZM432.752 318.732C434.11 319.45 437.154 319.156 438.519 318.956C440.924 318.606 441.182 317.652 442.707 315.508C445.334 311.815 447.466 308.278 449.011 304.001C451.969 295.814 453.176 287.438 454.474 278.873C455.917 269.357 453.282 259.493 452.339 250.041C452.123 247.873 451.827 245.724 451.484 243.572C451.279 242.286 451.226 237.908 450.379 236.795C448.752 234.655 441.188 236.381 438.214 236.575C429.912 237.117 421.556 237.244 413.258 237.338C408.834 237.388 404.385 237.573 400.005 237.607C397.993 237.623 396.026 237.524 394.007 237.328C393.332 237.263 392.673 237.107 391.992 237.07C389.663 236.941 389.838 236.603 389.236 238.665C388.182 242.279 388.993 246.876 388.716 250.626C388.346 255.637 388.146 260.72 388.237 265.742C388.322 270.383 388.164 275.013 388.337 279.664C388.409 281.59 388.62 283.161 389.128 285C389.702 287.08 390.334 291.939 391.765 293.378C391.928 293.542 393.144 293.16 393.467 293.568C393.964 294.196 393.873 295.527 394.214 295.933C395.32 297.248 397.604 297.352 399.261 297.943C403.808 299.564 407.979 301.325 412.264 303.511C416.093 305.464 422.267 307.127 424.569 310.98C425.624 312.747 425.767 315.077 426.737 316.899C427.843 318.976 425.631 317.89 428.339 318.732C429.559 319.112 431.502 318.732 432.752 318.732ZM29.0828 295.249C28.7384 300.044 26.0373 304.611 25.097 309.325C24.6571 311.533 23.9108 313.703 23.3936 315.897C22.8977 318.003 21.106 320.496 21.2874 322.579C27.9004 320.223 34.5988 319.63 41.5105 318.995C48.0613 318.392 54.9816 318.153 61.4774 318.15C68.0968 318.146 75.1744 317.5 81.99 317.4C89.1178 317.295 96.3532 317.11 103.378 316.371C99.7045 313.651 95.1085 311.096 92.3963 307.311C89.4478 303.196 87.9166 298.041 85.3221 293.699C80.1158 284.986 76.8059 274.175 74.0769 264.386C68.5671 244.625 62.41 225.229 60.926 204.731C58.1019 206.178 55.8601 211.789 54.4461 214.583C52.6414 218.15 51.6963 222.018 50.5231 225.809C48.1071 233.619 46.435 241.717 43.4768 249.453C37.8228 264.24 34.1888 280.173 29.0828 295.249ZM388.059 180.077C389.282 188.915 391.846 197.867 391.945 206.812C391.966 208.78 391.633 210.965 392.043 212.906C392.481 214.977 393.906 216.808 394.728 218.777C396.034 221.902 399.34 228.308 396.151 230.956C396.087 228.443 393.787 225.252 392.629 223.054C390.883 219.743 388.589 216.716 386.696 213.487C382.735 206.729 378.295 200.116 373.19 194.158C368.217 188.354 362.486 183.206 357.213 177.68C355.628 176.02 342.919 160.038 342.413 160.262C346.356 175.465 353.058 188.693 362.229 201.422C366.726 207.662 372.122 211.768 377.596 217.055C382.155 221.457 390.746 226.165 389.17 233.379C396.296 232.694 403.375 231.599 410.566 231.599C409.383 222.498 408.478 213.541 406.367 204.59C403.97 194.426 402.347 183.958 400.318 173.703C398.249 163.235 394.738 153.1 392.554 142.651C390.463 132.646 388.667 122.658 387.133 112.542C385.867 118.147 386.334 124.304 385.884 130.024C385.425 135.868 385.47 141.604 385.623 147.481C385.906 158.399 387.069 169.185 388.059 180.077ZM418.937 128.025C418.977 123.352 419.882 118.742 420.161 114.079C420.247 112.649 421.672 102.89 420.343 102.381C419.251 104.763 418.996 107.811 418.004 110.311C417.012 112.808 415.686 115.187 414.735 117.701C412.674 123.148 411.963 129.311 411.741 135.102C411.239 148.201 410.979 161.27 411.859 174.369C412.237 179.984 412.526 185.608 412.423 191.233C412.31 197.423 411.362 202.796 412.513 208.935C413.652 215.015 414.368 221.069 414.748 227.237C415.014 231.567 415.121 231.26 419.252 230.956C422.233 230.736 425.245 230.971 428.231 230.834C426.835 213.961 426.607 197.053 424.376 180.245C423.238 171.67 423.208 162.971 421.794 154.427C421.092 150.183 419.914 146.025 419.236 141.776C418.509 137.214 418.867 132.622 418.937 128.025ZM116.888 117.406C124.84 118.095 133.298 120.473 141.449 118.903C140.105 118.359 136.59 117.608 138.172 115.46C139.781 113.276 142.492 116.046 144.097 115.76C145.086 115.584 147.272 111.448 147.882 110.592C149.266 108.645 149.433 108.306 151.922 107.808C154.333 107.325 154.88 107.848 155.185 105.45C155.536 102.694 154.582 99.5948 154.677 96.776C154.88 90.7076 156.837 85.386 158.659 79.6765C150.918 81.3607 143.348 83.3579 135.433 84.4433C132.049 84.9074 126.785 85.9779 123.711 83.6777C122.911 83.0795 123.039 82.272 122.385 81.5787C121.288 80.4156 119.253 79.2124 117.697 78.881C108.123 76.8428 107.189 90.4919 111.987 95.5993C113.189 96.8792 114.861 97.5112 116.091 98.6839C117.734 100.248 117.869 101.895 118.108 104.283C118.558 108.76 117.947 113.254 116.037 117.349L116.888 117.406ZM233.077 181.843C235.904 182.38 238.854 182.257 241.688 182.715C242.694 182.878 245.713 183.445 246.598 182.856C247.95 181.958 248.43 178.661 249.07 177.126C250.194 174.426 251.784 172.071 252.856 169.322C257.237 158.092 261.321 146.817 266.619 135.971C264.589 135.443 263.029 135.422 260.983 135.15C258.851 134.866 256.919 133.605 254.885 133.063C252.952 132.549 250.926 132.68 249.011 132.081C247.956 131.752 247.051 131.019 246.011 130.763C244.352 130.355 242.417 130.117 241.431 131.205C240.421 132.321 240.066 135.382 239.516 136.824C238.052 140.666 236.35 144.373 235.123 148.303C234.016 151.847 232.964 155.354 231.99 158.931C230.96 162.707 228.931 165.819 227.695 169.426C226.755 172.171 225.868 174.978 225.728 177.905C225.591 180.762 225.175 180.944 228.032 181.4C229.474 181.63 231.721 182.487 233.077 181.843ZM419.046 315.53C419.782 315.873 420.476 315.828 421.128 315.393C414.745 312.697 408.537 308.959 401.879 307.109C395.633 305.375 389.562 303.302 383.545 301.166C378.655 299.43 374.26 298.079 369.839 295.024C367.156 293.17 364.772 291.085 362.928 288.375C360.876 285.358 360.419 281.065 358.196 278.348C355.195 281.643 351.67 284.138 348.12 286.757C346.892 287.663 343.946 289.638 343.525 291.04C342.995 292.809 344.415 294.501 345.118 296.292C346.917 300.877 347.796 305.459 348.772 310.226C349.163 312.136 350.008 315.008 351.577 315.809C353.006 316.536 357.144 316.007 358.922 315.872C368.199 315.169 377.312 314.45 386.645 315.09C397.206 315.814 408.512 316.314 419.046 315.53ZM437.575 230.57C439.262 230.576 440.909 230.365 442.588 230.365C441.619 225.837 443.886 219.979 444.689 215.459C445.588 210.404 446.273 205.177 446.873 200.081C448.137 189.347 448.709 178.744 448.726 167.932C448.741 157.47 450.646 147.909 453.314 137.852C456.178 127.05 460.869 117.337 464.748 106.92C460.493 109.169 458.138 114.432 455.903 118.455C453.077 123.542 451.194 129.175 450.04 134.886C447.814 145.903 445.372 156.953 442.803 167.952C440.128 179.404 438.555 190.962 435.491 202.32C433.996 207.859 431.964 214.674 431.852 220.386C431.805 222.749 431.093 227.698 432.164 229.75C433.165 231.67 435.379 230.766 437.575 230.57ZM183.073 216.361C182.985 217.537 182.901 218.656 182.692 219.817C185.027 219.795 187.985 217.372 189.988 216.284C192.428 214.959 194.871 213.497 197.257 212.165C201.865 209.593 207.095 207.898 212.014 205.785C217.665 203.357 222.86 200.424 228.264 197.502C230.151 196.481 243.718 190.6 243.49 188.994C240.512 188.894 237.533 188.796 234.554 188.697C232.001 188.612 228.046 189.189 225.601 188.399C224.262 187.967 222.758 186.374 222.252 185.127C221.752 183.893 222.877 178.217 222.223 177.856C218.889 181.259 216.793 185.783 213.813 189.455C210.519 193.513 206.263 195.882 201.573 198.039C196.393 200.42 191.032 202.265 185.738 204.306C183.506 205.167 183.55 205.659 183.356 208.107C183.138 210.843 183.162 213.618 183.073 216.361ZM452.239 319.29C457.854 319.893 463.608 319.549 469.267 320.019C471.326 320.19 474.181 320.445 472.109 323.208C470.805 324.948 466.626 324.39 464.731 324.511C459.641 324.835 454.253 324.66 449.153 324.585C448.079 324.57 446.892 324.25 445.807 324.322C444.554 324.405 443.053 325.306 441.911 325.299C441.208 325.295 440.955 324.552 440.348 324.484C439.026 324.336 437.704 324.227 436.371 324.228C416.21 324.232 396.327 323.827 376.217 323.805C366.601 323.795 356.83 323.629 347.218 323.178C345.199 323.082 333.704 323.495 334.023 319.861C334.186 317.989 337.938 317.725 339.307 317.526C340.322 317.379 341.374 317.402 342.391 317.348C345.091 317.203 346.274 317.853 345.704 314.898C343.544 303.691 339.672 294.428 331.399 286.37C324.635 279.78 316.489 273.803 308.828 268.301C299.525 261.619 291.978 254.592 286.454 244.368C283.229 238.398 280.529 232.294 278.872 225.692C278.275 223.317 278.261 220.616 277.531 218.327C276.969 216.564 275.687 215.33 274.933 213.504C265.677 228.964 253.409 241.898 242.161 255.837C236.787 262.497 230.656 268.822 224.234 274.615C222.328 276.334 220.55 278.129 218.772 279.98C217.284 281.528 214.922 282.904 213.666 284.622C212.461 286.27 212.757 286.192 214.591 287.501C217.016 289.23 219.688 290.667 222.151 292.354C226.088 295.05 230.384 297.328 233.904 300.573C237.711 304.082 241.037 308.147 244.364 312.104C246.582 314.741 249.492 318.125 250.049 321.46C250.234 322.563 250.936 325.291 250.01 326.1C249.219 326.79 249.298 326.528 248.316 326.107C247.029 325.555 246.65 324.289 245.078 323.685C241.055 322.141 236.187 322.671 232.001 322.653C227.814 322.634 223.591 323.104 219.406 323.087C209.848 323.048 200.494 323.822 190.939 324.237C180.791 324.678 170.518 323.619 160.404 323.769C152.91 323.88 145.216 323.32 137.515 323.737C133.554 323.95 129.664 323.455 125.802 323.399C120.745 323.327 115.552 324.015 110.451 324.112C102.08 324.274 93.8118 324.273 85.3896 324.474C67.2737 324.908 49.2558 325.356 31.1292 325.643C28.7113 325.681 26.0643 325.599 23.6749 325.871C21.1388 326.16 22.4481 326.699 20.708 327.612C15.8365 330.168 16.9615 320.695 17.0782 318.832C17.7044 308.848 20.2391 299.055 23.2851 289.577C26.1748 280.587 28.5208 271.178 30.9681 261.993C33.647 251.941 37.1373 242.3 40.3068 232.347C43.5545 222.148 46.1987 211.551 52.0972 202.51C53.4408 200.451 54.8292 198.235 56.9904 196.937C59.4132 195.481 59.5174 196.331 59.5154 193.668C59.514 191.159 59.6684 187.808 59.0764 185.414C58.5414 183.252 58.6239 184.534 57.4193 182.98C56.439 181.717 55.4134 180.853 54.71 179.319C50.3895 183.7 40.4993 181.388 36.3249 178.234C31.2156 174.373 27.3239 167.858 25.8979 161.654C24.7526 156.673 26.1579 147.176 31.672 144.78C34.36 143.612 44.2333 142.73 44.6284 138.923C44.832 136.958 41.3571 134.195 40.5553 132.506C39.0694 129.376 37.6424 125.213 37.2295 121.782C36.4229 115.085 39.4631 107.596 44.3061 103.073C53.1904 94.7739 68.8223 90.5151 80.2504 95.7803C77.8354 86.5549 76.3775 78.5964 77.5937 69C78.6415 60.7328 83.5193 56.1073 90.2312 51.9894C101.685 44.9614 117.26 42.1875 130.357 44.2311C133.333 44.6956 136.189 45.6918 138.944 46.4845C142.947 47.636 147.74 47.2525 151.52 49.1233C154.26 50.4794 156.341 53.181 158.748 54.9847C161.558 57.0905 163.893 60.2335 165.846 63.1401C170.021 69.3556 168.389 80.8913 164.895 87.1304C164.146 88.4687 163.22 89.5951 161.98 90.5083C160.689 91.4587 158.721 91.7544 158.056 92.987C156.352 96.1445 157.996 102.98 158.223 106.393C158.488 110.355 156.484 113.332 151.991 113.648C149.392 113.831 149.309 112.323 148.064 115.426C147.257 117.437 146.525 119.628 145.36 121.472C142.96 125.272 138.565 124.901 134.56 124.798C129.925 124.679 125.36 123.946 120.722 123.484C121.947 127.409 125.3 130.455 127.394 133.951C130.224 138.68 131.928 142.599 132.389 148.109C132.742 152.341 131.98 155.684 129.083 158.834C127.884 160.138 126.821 160.202 127.119 161.707C127.301 162.624 128.887 164.138 129.449 164.87C130.934 166.808 132.659 168.586 133.966 170.655C138.997 178.616 140.483 190.752 140.495 200.019C140.496 200.444 140.722 201.348 140.535 201.787C140.396 202.112 139.34 203.14 139.325 203.228C139.118 204.42 140.28 206.462 142.103 206.664C144.018 206.876 147.525 205.278 149.306 204.754C152.156 203.913 155.061 203.293 157.905 202.43C162.498 201.036 167.07 199.925 171.739 198.832C173.849 198.339 175.971 197.928 178.088 197.467C180.499 196.942 181.619 195.928 182.864 198.381C183.932 200.486 183.268 200.868 185.854 199.807C188.422 198.753 190.931 197.446 193.438 196.257C197.86 194.159 203.126 192.289 206.941 189.193C213.303 184.026 215.659 175.799 221.749 170.317C223.445 168.791 224.456 168.764 225.528 166.649C226.676 164.386 227.268 161.484 227.871 159.05C228.928 154.787 229.68 150.51 230.639 146.251C231.833 140.945 234.413 136.14 236.296 131.08C237.03 129.108 237.41 126.602 238.593 124.83C238.907 124.36 239.506 124.095 239.751 123.706C240.592 122.371 240.584 122.005 240.802 120.399C241.822 112.895 246.301 116.842 251.196 118.563C253.258 119.288 263.051 123.99 259.312 127.117C263.769 128.411 270.909 127.708 270.849 134.096C270.818 137.369 268.86 140.871 267.81 143.935C266.876 146.655 265.974 149.386 265.026 152.102C262.949 158.052 260.43 163.823 258.403 169.791C257.479 172.511 256.717 175.295 255.431 177.862C254.297 180.126 251.55 182.622 251.098 185.099C262.976 180.031 273.965 172.704 287.261 173.171C293.083 173.375 298.367 175.822 301.582 180.941C305.613 187.357 308.266 194.541 312.206 201.017C326.539 224.573 343.634 245.973 359.369 268.554C360.577 270.29 362.131 271.93 362.551 274.075C362.824 275.474 362.294 276.873 362.622 278.217C363.302 281.01 366.741 284.498 369.073 286.103C373.544 289.18 380.81 293.52 386.389 293.136C382.888 284.722 382.934 275.504 383.097 266.529C383.252 258.004 384.173 249.548 385.267 241.111C385.514 239.202 385.73 237.432 386.279 235.582C386.908 233.46 387.773 233.661 385.887 231.753C382.985 228.815 379.532 226.397 376.607 223.423C370.279 216.99 363.793 211.948 358.812 204.267C354.076 196.961 349.079 189.443 345.573 181.442C341.963 173.206 340.52 164.41 338.729 155.687C338.002 152.147 335.35 148.196 335.883 144.5C336.556 139.828 338.722 143.23 339.604 145.744C342.295 153.418 348.596 160.286 353.815 166.457C359.454 173.125 366.35 178.703 372.235 185.176C378.644 192.226 383.034 200.328 388.734 207.854C388.734 198.514 385.545 189.004 384.24 179.765C383.093 171.632 382.732 163.475 382.007 155.307C380.359 136.754 381.783 117.655 384.095 99.2344C385.194 90.4862 384.571 81.9439 384.604 73.1658C384.615 70.3721 383.458 63.9332 384.932 61.454C387.755 56.7055 389.401 67.0887 389.544 68.6368C390.397 77.8588 388.867 86.978 389.649 96.1604C390.466 105.749 392.239 115.069 393.748 124.548C395.383 134.81 398.045 144.841 400.593 154.907C403.269 165.475 405.519 176.264 408.493 186.748C409.295 183.453 408.17 179.404 407.948 176.048C407.63 171.245 407.01 166.441 406.957 161.626C406.871 153.951 406.811 146.134 407.245 138.494C407.673 130.965 407.544 123.075 409.853 115.821C410.949 112.377 412.557 109.018 414.129 105.775C416.07 101.776 416.756 97.8981 417.83 93.6446C418.75 90.0018 420.097 86.455 420.71 82.7394C421.092 80.4286 422.155 73.6072 424.801 78.7754C426.337 81.7751 425.673 86.222 425.716 89.4446C425.771 93.5761 425.139 97.5932 425.042 101.707C424.853 109.779 424.717 117.841 424.115 125.9C423.484 134.354 424.035 141.931 425.644 150.262C427.404 159.38 427.919 168.519 428.832 177.749C429.302 182.515 430.095 187.254 430.478 192.027C430.681 194.554 429.642 201.802 431.453 203.602C431.628 199.224 432.882 194.843 433.833 190.577C434.959 185.524 435.414 180.211 436.244 175.086C437.589 166.781 440.198 158.851 441.924 150.639C445.482 133.713 448.438 111.958 463.349 100.878C465.3 99.4288 467.444 98.3588 469.553 97.1658C470.747 96.4904 472.521 94.743 473.887 94.4382C475.378 94.1053 476 94.3639 476.604 96.0938C477.447 98.5055 475.906 99.6319 474.467 101.384C469.487 107.445 467.359 115.215 464.284 122.323C457.243 138.6 454.127 155.769 454.092 173.364C454.073 182.575 453.437 191.458 452.455 200.613C451.398 210.466 450.006 220.886 447.013 230.364C450.015 231.037 453.272 230.034 454.087 233.524C454.288 234.381 453.926 235.395 454.147 236.51C454.362 237.595 454.88 238.674 455.186 239.74C455.819 241.946 456.154 244.123 456.462 246.389C457.652 255.144 459.695 263.471 459.913 272.348C460.113 280.553 458.507 288.867 457.027 296.914C455.536 305.02 451.259 311.93 447.892 319.26C449.341 319.26 450.79 319.275 452.239 319.29Z" fill="white" />
  <path fill-rule="evenodd" clip-rule="evenodd" d="M261.682 300.658C260.085 301.109 252.377 301.961 252.378 304.38C252.379 305.831 260.078 305.802 261.44 305.96C261.521 304.193 261.602 302.425 261.682 300.658ZM278.698 317.349C283.14 318.194 289.17 317.006 292.01 313.09C293.337 311.26 293.966 308.477 294.398 306.293C294.811 304.212 296.084 299.018 295.218 297.067C294.154 294.672 283.947 297.175 280.975 297.45C275.79 297.929 270.428 297.985 265.239 297.647C265.239 303.005 264.965 308.227 268.116 312.838C270.389 316.165 274.659 316.951 278.698 317.349ZM277.805 323.967C272.978 322.2 267.911 323.348 264.768 318.167C263.97 316.852 263.299 315.438 262.816 313.978C262.58 313.338 262.397 312.683 262.267 312.012C262.512 310.568 261.983 310.161 260.68 310.79C258.121 310.293 255.316 312.049 252.621 311.531C246.086 310.276 247.273 300.914 251.659 297.673C252.525 297.032 253.391 296.854 254.383 296.538C256.569 295.841 257.752 296.619 259.752 296.421C261.368 296.262 261.812 294.567 263.549 293.821C264.686 293.332 266.265 293.37 267.46 293.321C273.716 293.064 279.992 293.066 286.288 292.658C289.225 292.468 292.395 292.933 295.272 292.432C296.619 292.196 296.425 291.3 297.701 292.086C299.021 292.901 298.451 295.912 298.384 297.113C297.999 304.056 297.585 311.503 293.866 317.573C290.463 323.127 283.767 323.696 277.805 323.967Z" fill="white" />
  <path fill-rule="evenodd" clip-rule="evenodd" d="M22.8994 325.88C24.4523 325.863 26.0048 325.846 27.5524 325.83C25.9975 325.847 24.4485 325.863 22.8994 325.88Z" fill="white" />
  <path fill-rule="evenodd" clip-rule="evenodd" d="M496.583 190.468C496.58 188.977 496.577 187.485 496.573 185.996C496.576 187.489 496.579 188.979 496.583 190.468Z" fill="white" />
  <path fill-rule="evenodd" clip-rule="evenodd" d="M63.1795 197.624C63.1747 199.077 63.1699 200.53 63.165 201.98C63.1694 200.526 63.1742 199.074 63.1795 197.624Z" fill="white" />
  <path fill-rule="evenodd" clip-rule="evenodd" d="M188.162 324.232C189.398 324.234 190.633 324.236 191.863 324.239C190.625 324.238 189.394 324.235 188.162 324.232Z" fill="white" />
  <path fill-rule="evenodd" clip-rule="evenodd" d="M113.147 323.936C114.383 323.94 115.618 323.944 116.848 323.949C115.61 323.945 114.379 323.94 113.147 323.936Z" fill="white" />
  <path fill-rule="evenodd" clip-rule="evenodd" d="M418.844 284.989C418.79 285.97 418.735 286.95 418.681 287.929C418.735 286.947 418.79 285.968 418.844 284.989Z" fill="white" />
  <path fill-rule="evenodd" clip-rule="evenodd" d="M452.239 319.29C451.284 319.28 450.33 319.27 449.375 319.26C450.334 318.86 451.289 318.878 452.239 319.29Z" fill="white" />
  <path fill-rule="evenodd" clip-rule="evenodd" d="M367.475 323.633C368.16 323.622 368.845 323.612 369.524 323.6C368.837 323.61 368.156 323.622 367.475 323.633Z" fill="white" />
  <path fill-rule="evenodd" clip-rule="evenodd" d="M496.176 203.966C496.193 203.224 496.21 202.483 496.226 201.745C496.21 202.487 496.193 203.226 496.176 203.966Z" fill="white" />
  <path fill-rule="evenodd" clip-rule="evenodd" d="M389.648 96.1606C389.592 95.396 389.535 94.6318 389.479 93.8691C389.535 94.6343 389.592 95.3975 389.648 96.1606Z" fill="white" />
  <path fill-rule="evenodd" clip-rule="evenodd" d="M496.547 193.883C496.556 193.117 496.565 192.351 496.574 191.587C496.565 192.354 496.556 193.119 496.547 193.883Z" fill="white" />
  <path fill-rule="evenodd" clip-rule="evenodd" d="M238.577 322.682C239.186 322.691 239.796 322.7 240.4 322.708C239.789 322.698 239.183 322.69 238.577 322.682Z" fill="white" />
  <path fill-rule="evenodd" clip-rule="evenodd" d="M395.512 323.932C396.107 323.944 396.703 323.956 397.293 323.968C396.695 323.957 396.104 323.944 395.512 323.932Z" fill="white" />
  <path fill-rule="evenodd" clip-rule="evenodd" d="M502.873 291.871C502.83 291.199 502.787 290.527 502.745 289.856C502.788 290.528 502.831 291.2 502.873 291.871Z" fill="white" />
  <path fill-rule="evenodd" clip-rule="evenodd" d="M449.152 324.586C449.637 324.583 450.122 324.58 450.601 324.579C450.115 324.582 449.633 324.584 449.152 324.586Z" fill="white" />
  <path fill-rule="evenodd" clip-rule="evenodd" d="M383.101 323.963C383.581 323.951 384.061 323.939 384.536 323.928C384.054 323.94 383.577 323.952 383.101 323.963Z" fill="white" />
  <path fill-rule="evenodd" clip-rule="evenodd" d="M275.188 323.596C275.717 323.593 276.245 323.59 276.769 323.586C276.239 323.589 275.714 323.593 275.188 323.596Z" fill="white" />
  <path fill-rule="evenodd" clip-rule="evenodd" d="M153.324 323.594C153.826 323.597 154.329 323.601 154.826 323.606C154.322 323.603 153.823 323.598 153.324 323.594Z" fill="white" />
  <path fill-rule="evenodd" clip-rule="evenodd" d="M123.679 323.675C124.191 323.647 124.702 323.618 125.21 323.59C124.696 323.619 124.188 323.647 123.679 323.675Z" fill="white" />
  <path fill-rule="evenodd" clip-rule="evenodd" d="M265.61 128.479C264.848 128.413 264.085 128.347 263.323 128.281C264.086 128.335 264.894 127.883 265.61 128.479Z" fill="white" />
  <path fill-rule="evenodd" clip-rule="evenodd" d="M459.917 319.58C459.165 319.504 458.414 319.428 457.662 319.352C458.414 319.428 459.165 319.504 459.917 319.58Z" fill="white" />
  <path fill-rule="evenodd" clip-rule="evenodd" d="M407.49 133.106C407.44 133.765 407.389 134.424 407.339 135.081C407.39 134.421 407.44 133.764 407.49 133.106Z" fill="white" />
  <path fill-rule="evenodd" clip-rule="evenodd" d="M454.257 160.562C454.308 159.938 454.359 159.313 454.41 158.692C454.359 159.317 454.307 159.939 454.257 160.562Z" fill="white" />
  <path fill-rule="evenodd" clip-rule="evenodd" d="M407.191 143.321C407.137 143.979 407.083 144.636 407.029 145.291C407.083 144.633 407.137 143.977 407.191 143.321Z" fill="white" />
  <path fill-rule="evenodd" clip-rule="evenodd" d="M496.404 199.415C496.399 198.78 496.394 198.144 496.39 197.511C496.8 198.144 496.783 198.778 496.404 199.415Z" fill="white" />
  <path fill-rule="evenodd" clip-rule="evenodd" d="M383.271 277.004C383.265 277.641 383.26 278.278 383.253 278.912C382.832 278.27 382.916 277.635 383.271 277.004Z" fill="white" />
  <path fill-rule="evenodd" clip-rule="evenodd" d="M471.411 218.684C471.338 218.039 471.264 217.394 471.19 216.752C471.264 217.397 471.338 218.041 471.411 218.684Z" fill="white" />
  <path fill-rule="evenodd" clip-rule="evenodd" d="M34.498 144.168C33.9997 144.827 33.3209 144.376 32.7285 144.456C33.319 144.36 33.9085 144.264 34.498 144.168Z" fill="white" />
  <path fill-rule="evenodd" clip-rule="evenodd" d="M280.915 293.115C280.286 293.116 279.656 293.116 279.026 293.117C279.656 293.116 280.286 293.115 280.915 293.115Z" fill="white" />
  <path fill-rule="evenodd" clip-rule="evenodd" d="M381.499 146.874C381.558 147.41 381.616 147.945 381.675 148.479C381.616 147.942 381.558 147.408 381.499 146.874Z" fill="white" />
  <path fill-rule="evenodd" clip-rule="evenodd" d="M70.3617 93.6912C69.7288 93.7037 69.0958 93.7162 68.4629 93.7288C69.0891 93.3602 69.7201 93.2536 70.3617 93.6912Z" fill="white" />
  <path fill-rule="evenodd" clip-rule="evenodd" d="M407.176 152.584C407.135 153.146 407.094 153.707 407.054 154.266C407.095 153.704 407.135 153.144 407.176 152.584Z" fill="white" />
  <path fill-rule="evenodd" clip-rule="evenodd" d="M389.819 83.6547C389.869 83.1429 389.917 82.631 389.966 82.1221C389.917 82.6349 389.869 83.1448 389.819 83.6547Z" fill="white" />
  <path fill-rule="evenodd" clip-rule="evenodd" d="M384.845 82.0513C384.795 82.6065 384.745 83.1623 384.696 83.7156C384.746 83.1594 384.795 82.6051 384.845 82.0513Z" fill="white" />
  <path fill-rule="evenodd" clip-rule="evenodd" d="M109.916 44.957C109.272 45.0352 108.628 45.1133 107.984 45.191C108.628 45.1129 109.272 45.0352 109.916 44.957Z" fill="white" />
  <path fill-rule="evenodd" clip-rule="evenodd" d="M63.3993 94.1331C62.7383 94.2006 62.0774 94.2681 61.417 94.3357C62.0779 94.2681 62.7388 94.2006 63.3993 94.1331Z" fill="white" />
  <path fill-rule="evenodd" clip-rule="evenodd" d="M425.569 95.7607C425.61 95.2441 425.65 94.7269 425.69 94.2131C425.65 94.7303 425.609 95.2455 425.569 95.7607Z" fill="white" />
  <path fill-rule="evenodd" clip-rule="evenodd" d="M44.1191 194.409C44.4998 194.415 44.8799 194.421 45.2548 194.426C44.8727 194.421 44.4959 194.415 44.1191 194.409Z" fill="white" />
  <path fill-rule="evenodd" clip-rule="evenodd" d="M420.608 264.375C420.57 264.947 420.532 265.519 420.494 266.089C420.533 265.517 420.571 264.946 420.608 264.375Z" fill="white" />
  <path fill-rule="evenodd" clip-rule="evenodd" d="M423.693 133.457C423.677 132.906 423.662 132.355 423.646 131.805C423.663 132.357 423.678 132.907 423.693 133.457Z" fill="white" />
  <path fill-rule="evenodd" clip-rule="evenodd" d="M126.129 43.6523C125.541 43.6523 124.954 43.6528 124.368 43.6528C124.955 43.2494 125.542 43.2596 126.129 43.6523Z" fill="white" />
  <path fill-rule="evenodd" clip-rule="evenodd" d="M308.531 186.046C307.888 186.062 307.245 186.079 306.603 186.095C307.234 185.648 307.878 185.637 308.531 186.046Z" fill="white" />
  <path fill-rule="evenodd" clip-rule="evenodd" d="M339.07 322.66C339.451 322.667 339.833 322.676 340.209 322.685C339.826 322.678 339.448 322.668 339.07 322.66Z" fill="white" />
  <path fill-rule="evenodd" clip-rule="evenodd" d="M353.426 323.33C353.806 323.316 354.187 323.303 354.562 323.29C354.18 323.303 353.803 323.317 353.426 323.33Z" fill="white" />
  <path fill-rule="evenodd" clip-rule="evenodd" d="M128.764 323.594C129.161 323.605 129.558 323.615 129.949 323.624C129.551 323.614 129.157 323.605 128.764 323.594Z" fill="white" />
  <path fill-rule="evenodd" clip-rule="evenodd" d="M502.507 284.909C502.45 284.363 502.394 283.818 502.337 283.275C502.394 283.821 502.45 284.365 502.507 284.909Z" fill="white" />
  <path fill-rule="evenodd" clip-rule="evenodd" d="M445.633 184.237C445.678 184.757 445.723 185.276 445.767 185.793C445.723 185.273 445.678 184.755 445.633 184.237Z" fill="white" />
  <path fill-rule="evenodd" clip-rule="evenodd" d="M467.508 174.29C467.446 173.739 467.385 173.188 467.323 172.639C467.385 173.191 467.446 173.74 467.508 174.29Z" fill="white" />
  <path fill-rule="evenodd" clip-rule="evenodd" d="M131.984 323.923C132.385 323.917 132.786 323.911 133.182 323.905C132.779 323.912 132.382 323.917 131.984 323.923Z" fill="white" />
  <path fill-rule="evenodd" clip-rule="evenodd" d="M277.805 323.967C278.194 323.949 278.583 323.931 278.968 323.914C278.578 323.932 278.191 323.949 277.805 323.967Z" fill="white" />
  <path fill-rule="evenodd" clip-rule="evenodd" d="M424.36 122.612C424.342 122.053 424.325 121.495 424.308 120.938C424.325 121.497 424.343 122.054 424.36 122.612Z" fill="white" />
  <path fill-rule="evenodd" clip-rule="evenodd" d="M94.0166 324.288C94.4074 324.285 94.7976 324.281 95.1831 324.279C94.7904 324.282 94.404 324.285 94.0166 324.288Z" fill="white" />
  <path fill-rule="evenodd" clip-rule="evenodd" d="M424.196 324.282C424.598 324.286 425 324.29 425.396 324.295C424.992 324.291 424.594 324.287 424.196 324.282Z" fill="white" />
  <path fill-rule="evenodd" clip-rule="evenodd" d="M432.868 324.234C433.256 324.262 433.643 324.29 434.026 324.316C433.637 324.289 433.253 324.262 432.868 324.234Z" fill="white" />
  <path fill-rule="evenodd" clip-rule="evenodd" d="M436.371 324.228C436.766 324.239 437.161 324.251 437.551 324.26C437.155 324.248 436.763 324.238 436.371 324.228Z" fill="white" />
  <path fill-rule="evenodd" clip-rule="evenodd" d="M496.853 176.718C496.827 176.169 496.801 175.619 496.775 175.072C496.801 175.622 496.827 176.17 496.853 176.718Z" fill="white" />
  <path fill-rule="evenodd" clip-rule="evenodd" d="M189.343 317.031C190.544 316.969 191.745 316.906 192.946 316.844C191.745 316.906 190.544 316.969 189.343 317.031Z" fill="white" />
  <path fill-rule="evenodd" clip-rule="evenodd" d="M116.889 117.406C117.931 117.497 118.974 117.588 120.015 117.678C118.973 117.587 117.931 117.497 116.889 117.406Z" fill="white" />
  <path fill-rule="evenodd" clip-rule="evenodd" d="M449.555 174.33C449.587 175.325 449.62 176.32 449.653 177.312C449.62 176.316 449.587 175.324 449.555 174.33Z" fill="white" />
  <path fill-rule="evenodd" clip-rule="evenodd" d="M432.752 318.732C433.84 318.799 434.928 318.864 436.017 318.93C434.921 318.98 433.81 319.292 432.752 318.732Z" fill="white" />
  <path fill-rule="evenodd" clip-rule="evenodd" d="M466.094 216.115C466.102 215.166 466.11 214.217 466.118 213.27C466.11 214.22 466.102 215.167 466.094 216.115Z" fill="white" />
  <path fill-rule="evenodd" clip-rule="evenodd" d="M463.037 249.102C463.992 249.115 464.948 249.128 465.902 249.14C464.947 249.127 463.992 249.115 463.037 249.102Z" fill="white" />
  <path fill-rule="evenodd" clip-rule="evenodd" d="M199.29 230.798C199.266 231.521 199.242 232.245 199.22 232.964C199.244 232.24 199.267 231.52 199.29 230.798Z" fill="white" />
  <path fill-rule="evenodd" clip-rule="evenodd" d="M480.463 197.202C480.424 197.921 480.385 198.641 480.347 199.357C480.386 198.636 480.425 197.919 480.463 197.202Z" fill="white" />
  <path fill-rule="evenodd" clip-rule="evenodd" d="M419.046 315.53C419.741 315.483 420.435 315.436 421.129 315.391C420.606 315.81 420.081 315.844 419.046 315.53Z" fill="white" />
  <path fill-rule="evenodd" clip-rule="evenodd" d="M453.021 238.764C453.069 239.54 453.117 240.316 453.164 241.089C453.117 240.313 453.069 239.539 453.021 238.764Z" fill="white" />
  <path fill-rule="evenodd" clip-rule="evenodd" d="M154.654 99.0179C154.662 98.2687 154.669 97.5195 154.676 96.7732C154.669 97.5234 154.662 98.2706 154.654 99.0179Z" fill="white" />
  <path fill-rule="evenodd" clip-rule="evenodd" d="M453.944 249.268L456.533 249.212C455.679 249.625 454.816 249.639 453.944 249.268Z" fill="white" />
  <path fill-rule="evenodd" clip-rule="evenodd" d="M479.975 255.34C479.364 255.345 478.754 255.35 478.147 255.356C478.76 255.351 479.368 255.346 479.975 255.34Z" fill="white" />
  <path fill-rule="evenodd" clip-rule="evenodd" d="M215.536 315.828C216.381 315.839 217.227 315.851 218.072 315.861C217.22 316.288 216.374 316.348 215.536 315.828Z" fill="white" />
  <path fill-rule="evenodd" clip-rule="evenodd" d="M56.3223 318.319C57.18 318.242 58.0382 318.165 58.896 318.089C58.0382 318.165 57.18 318.242 56.3223 318.319Z" fill="white" />
  <path fill-rule="evenodd" clip-rule="evenodd" d="M449.881 181.34C449.923 182.119 449.965 182.897 450.007 183.674C449.965 182.894 449.923 182.117 449.881 181.34Z" fill="white" />
  <path fill-rule="evenodd" clip-rule="evenodd" d="M137.74 119.234C138.463 118.878 139.192 118.818 139.928 119.196C139.199 119.209 138.47 119.222 137.74 119.234Z" fill="white" />
  <path fill-rule="evenodd" clip-rule="evenodd" d="M423.928 191.205C423.988 191.861 424.047 192.518 424.107 193.173C424.047 192.516 423.988 191.86 423.928 191.205Z" fill="white" />
  <path fill-rule="evenodd" clip-rule="evenodd" d="M490.925 174.204C490.553 173.562 490.566 172.922 490.943 172.289C490.937 172.928 490.931 173.567 490.925 174.204Z" fill="white" />
  <path fill-rule="evenodd" clip-rule="evenodd" d="M478.452 248.732C479.197 248.504 479.941 248.181 480.682 248.74C479.938 248.737 479.196 248.734 478.452 248.732Z" fill="white" />
  <path fill-rule="evenodd" clip-rule="evenodd" d="M197.037 316.737C197.786 316.667 198.535 316.598 199.284 316.528C198.535 316.598 197.786 316.667 197.037 316.737Z" fill="white" />
  <path fill-rule="evenodd" clip-rule="evenodd" d="M94.3564 316.739C95.0424 316.437 95.727 316.279 96.4029 316.762C95.7203 316.754 95.0386 316.747 94.3564 316.739Z" fill="white" />
  <path fill-rule="evenodd" clip-rule="evenodd" d="M234.675 315.771C235.409 315.451 236.14 315.275 236.865 315.794C236.134 315.786 235.405 315.779 234.675 315.771Z" fill="white" />
  <path fill-rule="evenodd" clip-rule="evenodd" d="M76.6758 238.115C76.7308 238.777 76.7863 239.44 76.8408 240.1C76.7853 239.437 76.7303 238.776 76.6758 238.115Z" fill="white" />
  <path fill-rule="evenodd" clip-rule="evenodd" d="M263.531 196.232C264.253 195.97 264.972 195.833 265.681 196.271C264.964 196.258 264.248 196.245 263.531 196.232Z" fill="white" />
  <path fill-rule="evenodd" clip-rule="evenodd" d="M449.869 217.888C449.909 218.536 449.949 219.183 449.989 219.829C449.949 219.181 449.909 218.535 449.869 217.888Z" fill="white" />
  <path fill-rule="evenodd" clip-rule="evenodd" d="M70.9143 144.014C70.8545 144.536 70.7947 145.058 70.7354 145.576C70.7952 145.054 70.8545 144.534 70.9143 144.014Z" fill="white" />
  <path fill-rule="evenodd" clip-rule="evenodd" d="M29.0822 295.249C29.045 295.757 29.0083 296.265 28.9717 296.769C29.0098 296.261 29.046 295.755 29.0822 295.249Z" fill="white" />
  <path fill-rule="evenodd" clip-rule="evenodd" d="M466.433 221.495C466.393 220.97 466.352 220.445 466.312 219.923C466.352 220.448 466.393 220.972 466.433 221.495Z" fill="white" />
  <path fill-rule="evenodd" clip-rule="evenodd" d="M374.072 314.791C374.715 314.796 375.358 314.8 376.001 314.805C375.358 314.8 374.715 314.796 374.072 314.791Z" fill="white" />
  <path fill-rule="evenodd" clip-rule="evenodd" d="M198.997 235.699C199.117 236.081 199.237 236.463 199.357 236.846C198.555 237.04 198.435 236.657 198.997 235.699Z" fill="white" />
  <path fill-rule="evenodd" clip-rule="evenodd" d="M251.935 195.308C252.588 195.305 253.241 195.302 253.894 195.3C253.242 195.609 252.589 195.822 251.935 195.308Z" fill="white" />
  <path fill-rule="evenodd" clip-rule="evenodd" d="M77.0781 241.556C77.1003 242.135 77.1225 242.714 77.1437 243.291C77.1211 242.712 77.0994 242.134 77.0781 241.556Z" fill="white" />
  <path fill-rule="evenodd" clip-rule="evenodd" d="M78.6572 317.372C79.2878 317.372 79.9178 317.371 80.5483 317.371C79.9173 317.371 79.2878 317.372 78.6572 317.372Z" fill="white" />
  <path fill-rule="evenodd" clip-rule="evenodd" d="M425.668 248.253C425.691 248.786 425.715 249.319 425.738 249.849C425.716 249.314 425.692 248.784 425.668 248.253Z" fill="white" />
  <path fill-rule="evenodd" clip-rule="evenodd" d="M65.2725 318.022C65.8924 317.61 66.5137 317.646 67.1361 318.015C66.5147 318.017 65.8933 318.02 65.2725 318.022Z" fill="white" />
  <path fill-rule="evenodd" clip-rule="evenodd" d="M81.5957 136.567C81.629 137.111 81.6628 137.656 81.6975 138.197C81.6642 137.651 81.63 137.109 81.5957 136.567Z" fill="white" />
  <path fill-rule="evenodd" clip-rule="evenodd" d="M62.0469 318.078C62.6914 318.081 63.3359 318.083 63.9799 318.086C63.3335 318.526 62.6895 318.547 62.0469 318.078Z" fill="white" />
  <path fill-rule="evenodd" clip-rule="evenodd" d="M418.937 128.025C418.942 127.472 418.947 126.92 418.951 126.368C418.946 126.922 418.941 127.473 418.937 128.025Z" fill="white" />
  <path fill-rule="evenodd" clip-rule="evenodd" d="M123.044 118.357C123.66 118.437 124.277 118.518 124.893 118.598C124.277 118.517 123.66 118.437 123.044 118.357Z" fill="white" />
  <path fill-rule="evenodd" clip-rule="evenodd" d="M73.667 177.991C73.6752 178.508 73.6834 179.024 73.693 179.538C73.6848 179.021 73.6762 178.506 73.667 177.991Z" fill="white" />
  <path fill-rule="evenodd" clip-rule="evenodd" d="M462.547 177.757C462.513 177.231 462.479 176.706 462.445 176.182C462.479 176.709 462.513 177.233 462.547 177.757Z" fill="white" />
  <path fill-rule="evenodd" clip-rule="evenodd" d="M279.291 317.462C280.052 317.531 280.813 317.6 281.573 317.668C280.812 317.599 280.052 317.531 279.291 317.462Z" fill="white" />
  <path fill-rule="evenodd" clip-rule="evenodd" d="M276.749 297.768C276.338 297.775 275.927 297.781 275.52 297.79C275.932 297.784 276.341 297.776 276.749 297.768Z" fill="white" />
  <path fill-rule="evenodd" clip-rule="evenodd" d="M276.784 317.16C277.422 317.223 278.061 317.286 278.698 317.349C278.06 317.286 277.422 317.223 276.784 317.16Z" fill="white" />
  <path fill-rule="evenodd" clip-rule="evenodd" d="M175.368 296.242C176.198 300.933 168.908 305.521 168.33 298.853C168.119 296.414 169.749 294.7 171.575 293.209C174.167 291.094 175.615 293.119 175.368 296.242Z" fill="white" />
  <path fill-rule="evenodd" clip-rule="evenodd" d="M87.8134 233.827C89.5308 234.53 102.652 238.806 95.8365 240.956C94.0323 241.526 91.3051 241.611 89.7411 240.608C87.8597 239.401 85.9618 235.839 87.8134 233.827Z" fill="white" />
  <path fill-rule="evenodd" clip-rule="evenodd" d="M84.8275 153.431C89.2812 152.914 93.3847 160.229 87.8938 159.992C83.8969 159.818 78.5218 153.431 84.8275 153.431Z" fill="white" />
  <path fill-rule="evenodd" clip-rule="evenodd" d="M108.276 183.806C111.995 187.05 105.102 194.312 102.365 191.502C100.968 190.066 102.257 186.973 103.41 185.772C104.594 184.539 106.7 184.308 108.276 183.806Z" fill="white" />
  <path fill-rule="evenodd" clip-rule="evenodd" d="M120.075 275.726C117.88 276.075 108.225 279.23 110.238 273.499C111.006 271.314 113.148 271.962 115.106 272.063C118.262 272.224 120.075 272.073 120.075 275.726Z" fill="white" />
  <path fill-rule="evenodd" clip-rule="evenodd" d="M113.538 292.293C116.824 294.052 112.02 303.892 109.296 301.799C105.516 298.893 110.686 293.177 113.538 292.293Z" fill="white" />
  <path fill-rule="evenodd" clip-rule="evenodd" d="M129.769 283.61C131.367 282.958 138.901 290.204 136.033 292.221C134.563 293.254 131.778 291.482 130.892 290.414C129.231 288.411 129.08 285.94 129.769 283.61Z" fill="white" />
  <path fill-rule="evenodd" clip-rule="evenodd" d="M81.7282 218.625C83.3617 218.893 86.1819 218.978 86.2876 221.273C86.3802 223.29 83.8509 223.944 82.0702 224.102C80.2226 224.266 77.7767 223.745 77.7415 221.422C77.7043 218.916 81.6703 219.067 81.7282 218.625Z" fill="white" />
  <path fill-rule="evenodd" clip-rule="evenodd" d="M116.62 302.989C118.359 304.045 126.474 307.847 122.996 310.594C121.694 311.622 117.748 309.499 116.86 308.42C115.8 307.132 114.764 304.114 116.62 302.989Z" fill="white" />
  <path fill-rule="evenodd" clip-rule="evenodd" d="M151.058 297.576C150.807 293.379 157.888 291.708 156.42 297.666C156.006 299.346 155.606 301.895 153.529 301.993C151.074 302.108 150.986 299.204 151.058 297.576Z" fill="white" />
  <path fill-rule="evenodd" clip-rule="evenodd" d="M126.468 217.565C126.517 220.749 120.417 223.557 120.369 218.51C120.327 214.001 126.696 212.681 126.468 217.565Z" fill="white" />
  <path fill-rule="evenodd" clip-rule="evenodd" d="M122.298 199.673C123.802 200.157 125.799 200.406 125.931 202.316C126.072 204.338 124.194 205.237 122.505 205.124C121.119 205.031 119.069 204.005 118.817 202.502C118.448 200.295 120.602 200.151 122.298 199.673Z" fill="white" />
  <path fill-rule="evenodd" clip-rule="evenodd" d="M91.9718 263.242C91.9462 260.615 97.2114 257.457 98.181 260.506C98.4912 261.481 96.0096 265.855 95.1842 266.183C93.0003 267.05 92.6954 265.029 91.9718 263.242Z" fill="white" />
  <path fill-rule="evenodd" clip-rule="evenodd" d="M128.468 287.849C126.689 289.442 121.352 293.915 121.751 287.91C122.005 284.074 128.937 284.274 128.468 287.849Z" fill="white" />
  <path fill-rule="evenodd" clip-rule="evenodd" d="M215.421 305.013C216.004 302.488 224.354 306.868 221.567 310.057C220.632 311.128 218.187 310.159 217.247 309.525C215.386 308.269 215.345 307.11 215.421 305.013Z" fill="white" />
  <path fill-rule="evenodd" clip-rule="evenodd" d="M183.669 270.723C183.995 269.597 184.356 267.607 185.43 266.889C187.373 265.589 189.065 267.549 189.066 269.616C189.066 273.47 184.679 274.686 183.669 270.723Z" fill="white" />
  <path fill-rule="evenodd" clip-rule="evenodd" d="M148.204 296.03C150.372 296.527 155.199 301.797 152.4 303.947C149.705 306.016 146.122 297.604 148.204 296.03Z" fill="white" />
  <path fill-rule="evenodd" clip-rule="evenodd" d="M162.995 276.815C165.782 277.038 169.614 281.552 165.281 282.269C161.892 282.831 157.951 277.921 162.995 276.815Z" fill="white" />
  <path fill-rule="evenodd" clip-rule="evenodd" d="M190.915 299.515C191.614 297.16 198.527 299.683 198.139 302.276C197.932 303.654 195.106 303.978 193.62 303.613C191.433 303.076 190.865 301.642 190.915 299.515Z" fill="white" />
  <path fill-rule="evenodd" clip-rule="evenodd" d="M94.0143 145.401C94.0644 142.357 99.9138 141.116 100.342 144.184C100.73 146.955 93.9409 149.904 94.0143 145.401Z" fill="white" />
  <path fill-rule="evenodd" clip-rule="evenodd" d="M173.57 308.278C173.992 306.747 174.174 304.905 176.086 304.703C178.275 304.472 178.21 306.151 177.953 307.891C177.253 312.624 174.578 312.86 173.57 308.278Z" fill="white" />
  <path fill-rule="evenodd" clip-rule="evenodd" d="M86.8369 194.417C83.7875 195.105 78.2025 189.232 81.6161 187.972C84.0215 187.083 86.8369 192.645 86.8369 194.417Z" fill="white" />
  <path fill-rule="evenodd" clip-rule="evenodd" d="M129.744 244.493C128.192 245.224 127.834 245.667 126.642 244.468C125.604 243.424 125.65 240.514 126.541 239.427C129.954 235.267 129.874 242.81 129.744 244.493Z" fill="white" />
  <path fill-rule="evenodd" clip-rule="evenodd" d="M143.991 235.847C145.609 236.053 150.419 240.615 147.914 242.428C144.846 244.649 143.109 237.691 143.991 235.847Z" fill="white" />
  <path fill-rule="evenodd" clip-rule="evenodd" d="M182.049 236.731C180.873 241.261 177.936 238.213 178.102 234.785C178.37 229.294 181.413 234.076 182.049 236.731Z" fill="white" />
  <path fill-rule="evenodd" clip-rule="evenodd" d="M185.627 292.763C187.618 293.587 190.319 301.195 187.476 301.604C184.283 302.061 185.347 294.347 185.627 292.763Z" fill="white" />
  <path fill-rule="evenodd" clip-rule="evenodd" d="M160.77 288.488C163.048 287.72 163.883 292.524 162.559 293.417C159.646 295.38 160.261 289.622 160.77 288.488Z" fill="white" />
  <path fill-rule="evenodd" clip-rule="evenodd" d="M151.052 297.944C151.023 298.582 150.995 299.22 150.965 299.854C150.993 299.215 151.022 298.579 151.052 297.944Z" fill="white" />
  <path fill-rule="evenodd" clip-rule="evenodd" d="M215.421 305.013C215.397 305.667 215.373 306.321 215.349 306.971C215.371 306.316 215.396 305.664 215.421 305.013Z" fill="white" />
  <path fill-rule="evenodd" clip-rule="evenodd" d="M175.503 276.912C175.491 277.466 175.477 278.021 175.463 278.573C175.475 278.016 175.49 277.464 175.503 276.912Z" fill="white" />
  <path fill-rule="evenodd" clip-rule="evenodd" d="M464.062 288.987C468.784 288.835 474.051 287.058 478.691 287.624C479.969 287.779 482.909 288.101 480.863 289.996C479.884 290.902 475.198 290.433 473.78 290.734C465.11 292.569 455.269 293.753 446.379 293.6C442.218 293.529 438.025 293.196 433.866 292.976C429.709 292.756 429.301 291.067 433.978 290.529C438.835 289.972 443.82 290.179 448.701 290.173C453.833 290.166 458.94 289.329 464.062 288.987Z" fill="white" />
  <path fill-rule="evenodd" clip-rule="evenodd" d="M478.166 276.128C477.712 277.422 477.313 280.392 475.571 280.587C473.132 280.859 472.728 276.671 472.818 275.14C472.927 273.291 473.592 270.22 475.89 270.861C477.831 271.401 478.025 274.649 478.166 276.128Z" fill="white" />
  <path fill-rule="evenodd" clip-rule="evenodd" d="M462.485 275.16C462.842 273.775 463.017 270.651 464.977 270.544C467.167 270.426 467.792 273.681 467.778 275.241C467.764 276.721 467.216 279.518 465.472 279.86C463.108 280.324 462.896 276.744 462.485 275.16Z" fill="white" />
  <path fill-rule="evenodd" clip-rule="evenodd" d="M435.007 277.73C434.297 279.395 433.828 281.689 431.632 280.553C429.934 279.675 429.697 276.134 430.017 274.512C430.349 272.833 431.052 270.906 432.982 271.661C435.208 272.533 434.983 275.896 435.007 277.73Z" fill="white" />
  <path fill-rule="evenodd" clip-rule="evenodd" d="M455.471 276.18C453.378 282.525 449.56 278.232 451.01 273.494C452.526 268.543 455.279 273.352 455.471 276.18Z" fill="white" />
  <path fill-rule="evenodd" clip-rule="evenodd" d="M444.297 276.478C443.716 277.595 443.098 280.005 441.531 279.752C439.61 279.44 439.548 275.743 439.759 274.366C439.942 273.161 440.484 271.153 442.092 271.179C444.415 271.217 444.259 275.032 444.297 276.478Z" fill="white" />
  <path fill-rule="evenodd" clip-rule="evenodd" d="M490.252 277.974C488.694 281.47 486.55 278.459 487.236 275.976C488.254 272.293 490.163 275.556 490.252 277.974Z" fill="white" />
  <path fill-rule="evenodd" clip-rule="evenodd" d="M448.192 290.406C446.491 290.399 444.788 290.393 443.087 290.387C444.79 290.066 446.493 289.941 448.192 290.406Z" fill="white" />
  <path fill-rule="evenodd" clip-rule="evenodd" d="M485.363 287.588C483.887 287.598 482.411 287.607 480.936 287.617C482.409 287.175 483.885 287.165 485.363 287.588Z" fill="white" />
  <path fill-rule="evenodd" clip-rule="evenodd" d="M466.968 289.13C465.787 289.209 464.606 289.288 463.425 289.367C464.606 289.288 465.787 289.209 466.968 289.13Z" fill="white" />
  <path fill-rule="evenodd" clip-rule="evenodd" d="M435.5 278.089C435.489 277.241 435.478 276.393 435.468 275.546C435.904 276.39 435.874 277.237 435.5 278.089Z" fill="white" />
  <path fill-rule="evenodd" clip-rule="evenodd" d="M445.663 294.172C446.348 294.178 447.033 294.184 447.712 294.19C447.025 294.184 446.344 294.178 445.663 294.172Z" fill="white" />
  <path fill-rule="evenodd" clip-rule="evenodd" d="M433.042 293.507C433.736 293.507 434.43 293.506 435.119 293.507C434.422 293.507 433.732 293.507 433.042 293.507Z" fill="white" />
  <path fill-rule="evenodd" clip-rule="evenodd" d="M439.002 290.516C438.038 290.595 437.073 290.675 436.108 290.754C437.073 290.675 438.038 290.595 439.002 290.516Z" fill="white" />
  <path fill-rule="evenodd" clip-rule="evenodd" d="M453.318 290.395C452.365 290.397 451.413 290.399 450.46 290.401C451.412 289.999 452.365 289.988 453.318 290.395Z" fill="white" />
  <path fill-rule="evenodd" clip-rule="evenodd" d="M444.739 276.735C444.715 275.852 444.692 274.968 444.67 274.085C444.694 274.969 444.716 275.853 444.739 276.735Z" fill="white" />
  <path fill-rule="evenodd" clip-rule="evenodd" d="M430.028 274.806C430.023 275.668 430.017 276.53 430.011 277.389C430.016 276.526 430.022 275.666 430.028 274.806Z" fill="white" />
  <path fill-rule="evenodd" clip-rule="evenodd" d="M473.006 288.778C472.164 288.854 471.322 288.93 470.48 289.006C471.323 288.93 472.165 288.854 473.006 288.778Z" fill="white" />
  <path fill-rule="evenodd" clip-rule="evenodd" d="M490.55 278.11C490.523 277.357 490.496 276.604 490.469 275.852C490.496 276.605 490.523 277.357 490.55 278.11Z" fill="white" />
  <path fill-rule="evenodd" clip-rule="evenodd" d="M451.247 294.197C451.833 294.186 452.419 294.174 453 294.164C452.412 294.176 451.829 294.186 451.247 294.197Z" fill="white" />
  <path fill-rule="evenodd" clip-rule="evenodd" d="M478.671 276.491C478.619 275.95 478.568 275.408 478.517 274.868C478.568 275.411 478.62 275.95 478.671 276.491Z" fill="white" />
  <path fill-rule="evenodd" clip-rule="evenodd" d="M455.925 276.487C455.887 275.931 455.849 275.375 455.812 274.82C455.85 275.377 455.887 275.932 455.925 276.487Z" fill="white" />
  <path fill-rule="evenodd" clip-rule="evenodd" d="M114.75 92.6736C112.445 92.0686 112.013 88.8287 112.383 86.8387C112.803 85.8796 113.223 84.9211 113.644 83.962C113.479 83.6074 113.315 83.2528 113.151 82.8983C113.362 80.9232 112.823 80.065 115.093 80.8649C119.309 82.3517 119.983 92.5211 114.75 92.6736Z" fill="white" />
  <path fill-rule="evenodd" clip-rule="evenodd" d="M148.877 86.409C150.777 86.2595 154.226 88.4714 152.336 90.6114C151.164 91.9371 147.305 91.31 145.73 91.5869C143.642 91.954 141.463 92.4562 142.593 89.3282C143.48 86.8717 146.649 86.3449 148.877 86.409Z" fill="white" />
  <path fill-rule="evenodd" clip-rule="evenodd" d="M146.879 101.122C144.95 99.575 145.811 92.5283 148.747 93.7961C151.767 95.101 148.489 100.105 146.879 101.122Z" fill="white" />
  <path fill-rule="evenodd" clip-rule="evenodd" d="M112.383 86.8384C112.383 87.5799 112.382 88.3218 112.381 89.0599C111.978 88.317 111.991 87.5774 112.383 86.8384Z" fill="white" />
  <path fill-rule="evenodd" clip-rule="evenodd" d="M114.75 92.6734C115.143 92.6623 115.537 92.6508 115.925 92.6406C115.53 92.6532 115.14 92.6633 114.75 92.6734Z" fill="white" />
  <path fill-rule="evenodd" clip-rule="evenodd" d="M352.962 295.612C352.782 298.817 349.34 296.448 349.584 294.303C350.027 290.412 352.227 294.258 352.962 295.612Z" fill="white" />
</svg>
