<svg fill="none" height="476" viewBox="0 0 1013 476" width="1013" xmlns="http://www.w3.org/2000/svg">
  <g clip-rule="evenodd" fill-rule="evenodd">
    <path d="m488.458 446.33c7.887-.579 7.166-2.212 12.163 5.275-5.386 2.777-7.637-1.607-12.163-5.275zm-462.0823-11.415c25.5082-.532 48.6882 12.618 73.7413 15.445 11.496 1.295 23.098 1.185 34.467 3.514 5.047 1.033 28.347 3.899 30.817 7.986 8.485-7.282 12.558-5.973 24.016-4.528 2.362 4.367 5.42 4.924 9.183 1.669 4.071-1.596 8.146-3.195 12.218-4.795-9.474 9.735 7.261 7.64 15.993 9.205 6.902 1.235 13.987 2.871 21.033 2.749 8.662-.153 14.576-4.891 10.445 7.654 6.043-2.585 12.91-7.167 19.323-7.335 9.228-.238 18.531 8.232 27.808 4.602 5.174-2.023 12.474-18.834 20.257-12.9 3.966 3.022-1.688 8.948.732 12.154 9.512 12.604 22.927-10.942 28.577-10.453 7.326.636 5.844 10.248 12.016 12.901 6.042 2.594 19.456-3.733 25.864-4.463.303-3.77-3.946-9.412.002-12.541.746-.594 21.908 7.636 25.065 7.67 3.106.033 11.162.662 12.757.465 6.332-.783 11.438-7.307 18.298-6.35 4.094.57 4.947 17.668 10.86.327 8.93 9.869 19.379.618 30.141-.458 13.838-1.381 27.919-.245 41.867-1.752 13.558-1.466 26.722-3.763 39.693-8.042 11.744-3.872 21.822-3.9 33.634-6.196 1.243-.827 2.487-1.655 3.731-2.483.861-4.876 3.466-5.672 7.82-2.389 6.434-1.828 12.92-2.625 19.449-3.955 7.586-1.546 14.413-4.754 21.865-6.478 9.88-2.291 19.651-.712 29.771-3.646 12.449-3.604 23.982-8.47 36.645-11.443 15.863-3.724 27.015-9.961 40.586-16.752 6.462-3.231 18.819.193 27.685-3.454 9.656-3.971 13.795-9.67 25.154-10.886 14.778-1.583 23.731-8.099 37.584-12.748 11.43-3.838 23.072-3.715 34.431-8.347 9.759-3.986 19.149-9.067 28.658-13.623 12.006-5.748 25.222-8.56 36.897-14.815-1.685.901 8.668-5.935 8.282-5.548 1.714-1.703 4.724-8.029 3.841-7.253 12.594-11.096 47.788-18.608 38.958-44.453-4.64-13.595-21.443-13.341-32.139-8.438-4.594 2.105-27.529 13.353-21.419 19.426-6.896 2.114-37.946 5.392-33.536 18.076-8.9-4.075-7.6 2.3-15.013 3.785-4.89.974-6.539-.827-13.531-1.247-19.224-1.151-42.367 10.99-60.916 15.408-46.165 10.997-91.155 25.082-137.371 36.086-44.047 10.486-87.111 24.293-131.349 33.702-50.306 10.704-100.239 28.236-151.84 31.788-1.736.122-5.852 4.474-8.569 4.995-4.724.914-11.466-1.837-16.459-1.891-17.307-.187-35.387 2.795-51.391 7.706-14.04 4.308-29.709-.203-44.893.942-21.403 1.62-42.754 3.744-64.178 5.11-33.346 2.125-64.212.839-97.651-1.115-21.67-1.266-42.973-3.613-64.105-8.702-19.4336-4.68-39.2701-10.79-59.49639-9.671 5.79857 7.215 13.49599 16.001 23.69209 15.785z" fill="#f5f5f5" />
    <path d="m498.296 25.988c-1.973 5.2228-3.945 10.4461-5.919 15.6688-1.265 3.3469-2.529 6.6931-3.793 10.04-.449 1.1866-.698 2.4038-1.565 3.2276-2.045 1.9396-5.713 3.1741-8.17 4.5386-1.646.9143-3.292 1.8286-4.938 2.743-.849.4718-2.73 1.0642-3.325 1.8472-.654.8627-.345 2.4471-.345 3.6401v10.3001 19.4078c8.501-1.0629 17.003-2.1252 25.505-3.1881-11.327 13.0689-22.653 26.1379-33.98 39.2069-2.791 3.221-6.18 6.321-8.26 10.068-4.426 7.977-8.753 16.011-13.128 24.015-4.074 7.451-8.147 14.902-12.22 22.353l36.643-1.56c9.488-.403 19.234.204 28.374-2.485 7.536-2.217 15.071-4.432 22.606-6.649 1.002-.295 4.124-.628 4.834-1.435.665-.756.651-3.61.839-4.577 3.557-18.28 8.085-38.425 18.465-54.161 7.442-11.28 17.485-21.1561 26.682-30.9927 3.59-3.839 7.242-7.6322 10.704-11.588.887-1.0132 2.168-2.1628 2.755-3.3934.379-.7951.908-2.3101.672-3.016-.102-.306-2.468-1.404-2.807-1.622-2.398-1.5412-4.775-3.1148-7.157-4.6808-6.694-4.4008-13.381-8.8125-20.113-13.1547-5.248-3.3857-10.482-6.9755-16.018-9.885-5.738-3.0159-12.057-5.1385-18.073-7.5213-6.079-2.4083-12.17-4.7892-18.268-7.1471z" fill="#31dcbd" />
    <path d="m704.623 304.999c-2.919 2.751-8.235 6.443-12.436 4.764-2.111-.843-3.914-2.694-5.836-3.888-2.258-1.402-4.382-2.806-6.296-4.675-3.82-3.732-6.713-9.183-11.224-12.104-1.517-.981-4.476-1.192-5.529-2.76-.471-.703-.515-1.77-.428-2.583.189-1.751 1.134-1.647-.446-2.933h2.454c.048-.948-.899-1.026-1.604-.904.328-1.503.662-7.384-2.077-4.718-2.375 2.31-1.187 6.143-2.868 8.645-1.287 1.916-4.704.364-5.165-1.744-.207-.947.836-2.425.96-3.354.273-2.058-.646-3.839-1.981-5.398-2.93 1.952-1.269 5.991-2.938 8.556-1.511 2.32-4.875 1.238-7.175.829-2.757-.489-5.874.006-8.512-.645-3.983-.983-2.496-5.659-2.89-8.678-.423-3.233-3.69-7.721-2.708-10.983 1.054-3.502 7.219-4.259 10.166-5.109 6.736-1.943 16.343-2.316 21.35-7.755 3.982 4.441 7.186 9.527 11.363 13.803 4.512 4.618 9.331 8.882 13.662 13.686 4.508 5 9.161 9.904 13.505 15.049 1.896 2.245 3.56 4.663 5.521 6.854 1.743 1.947 3.581 3.739 1.132 6.045zm-200.188-86.38c2.07-1.1 2.333-.41 2.332 1.856-.595-1.088-1.186-1.379-2.332-1.856zm-17.547 44.064v-3.996c1.995-.052.768 3.366 0 3.996zm-.488 5.95c0-1.77-.048-3.454.462-5.175.268 1.875.779 3.498-.462 5.175zm8.578 121.544c1.833.171 4.657-1.091 6.198.347 1.583 1.477 1.456 5.777 1.831 7.773.62 3.298 1.169 6.607 1.691 9.922.343 2.173.766 4.38-1.691 5.211-3.63 1.228-8.818-.525-12.602-.684-7.476-.315-14.948-.752-22.43-.904-7.251-.146-14.519-.03-21.738.724-3.261.34-6.449.942-9.677 1.487-1.701.288-6.26 1.489-7.796.055-2.891-2.699 1.915-9.002 3.982-10.782 3.837-3.304 9.293-5.686 14.104-7.121 2.571-.767 6.857-2.92 8.882-.512 1.554 1.848 1.492 4.313 3.718 5.713 5.159 3.243 2.141-6.059-1.083-7.205 2.165-5.066 6.291 2.087 8.002 3.806.609.611 2.59 2.627 3.45 1.613.644-.758-.642-3.477-.881-4.217-.362-1.123-1.278-2.832-1.015-4.051.477-2.204 3.569-2.805 5.422-2.989 2.872-.284 5.69.627 8.53.931 4.355.466 8.743.473 13.103.883zm-28.84-207.679c-5.671.451-11.377-.416-17.034.294-5.352.672-10.395 2.637-15.441 4.442 7.501-17.593 17.206-33.608 29.034-48.61 5.89-7.472 12.226-14.893 18.591-21.965 2.961-3.29 6.024-6.471 9.082-9.669 2.728-2.852 4.682-7.6969 7.956-9.8272 2.794-1.8185 7.677-.5216 10.773-.4087 3.5.1275 7.759.4457 11.172-.7193 2.474-.8442 3.154-3.0969.058-3.1715-3.652-.0886-7.243.292-10.943-.0503-9.585-.8857-18.825-2.3414-28.488-1.5157-2.214.1888-5.128 1.1318-7.3.8487-1.562-.2047-.535.5809-1.621-.6727-.416-.4795-.917-1.6068-1.04-2.2438-.692-3.5776 1.273-8.6901 1.743-12.292.435-3.3334.049-6.9972.863-10.2433.741-2.9541 2.999-3.3481 5.781-3.6637 7.608-.864 15.373-1.3237 23.016-1.9747 17.443-1.4857 35.44-3.7269 52.764-.0555 6.256 1.3256 13.883 3.3755 19.471 6.658 1.748 1.0259 3.511 2.2342 2.875 4.36-.659 2.2068-3.892 4.538-5.493 5.9917-11.833 10.7426-23.262 21.7001-31.575 35.484-10.601 17.577-16.685 36.561-20.254 56.703-.768 4.333-1.481 6.601-5.939 7.848-4.786 1.34-9.405 2.21-14.368 2.618-11.218.921-22.471.94-33.683 1.835zm3.799-116.4038c-.859 6.3985-2.023 12.783-2.138 19.2318-.043 2.4357-.274 3.6561-2.864 4.1994-3.053.6402-6.158 1.1171-9.225 1.7815-14.805 3.2085-29.33 7.149-43.814 11.5841-14.077 4.312-27.922 9.162-42.315 12.356-6.191 1.374-13.436 2.3-19.075 5.342-6.066 3.273-5.268 8.64-5.813 14.535-.727 7.876-3.063 15.502-3.884 23.374-.393 3.762-.751 7.547-.691 11.332.05 3.227.512 6.795-1.657 9.511-4.352-5.818-6.414-13.135-7.272-20.266-.417-3.466-.252-6.96-.371-10.442-.096-2.803-.034-7.263-1.86-9.604-3.97-5.088-9.132 15.303-9.623 17.48-.826 3.665-1.507 7.361-2.33 11.026-.364 1.625-.832 7.531-3.009 8.12-4.511 1.22-3.521-11.456-3.592-13.386-.143-3.896-.24-7.797-.149-11.696.066-2.814.611-5.868.288-8.684-.794-6.914-4.682.371-5.775 2.944-2.761 6.497-4.01 13.451-6.487 20.051-.412 1.098-1.38 4.794-2.913 4.863-1.706.076-1.693-3.741-1.791-4.856-.566-6.465-2.478-12.885-1.901-19.417.583-6.595 2.895-13.376 6.166-19.112 6.917-12.129 19.408-19.093 31.373-25.437 13.692-7.2583 28.147-12.993 42.911-17.6648 17.757-5.6187 35.989-10.1649 54.33-13.4002 9.332-1.6457 18.807-2.8227 28.235-3.7664 3.313-.3316 6.627-.5254 9.897-1.156 1.235-.2385 5.689-1.3715 5.349 1.1566zm9.538-20.7066c-4.678.037-9.457-2.231-14.014-3.1683-5.427-1.1171-10.726-2.7335-16.142-3.8997-10.607-2.2833-21.22-4.5099-31.817-6.8435-4.6-1.0132-9.223-1.895-13.805-2.9835-4.903-1.1642-10.2-2.4624-15.218-1.2082-7.606 1.9013-10.819 10.2229-13.612 16.717-1.973 4.587-3.518 9.7001-6.595 13.6916-1.095 1.4231-2.652 3.1205-4.638 2.6595-3.69-.8557-3.104-5.7386-2.634-8.4376.681-3.9169 1.645-7.7879 2.418-11.6869.311-1.5736 2.722-11.8731-1.583-10.2784-3.194 1.1828-4.884 8.9732-6.092 11.7557-.899 2.0678-1.851 4.1222-2.859 6.139-1.345 2.6901-5.184 11.6786-9.433 10.5194-6.082-1.659-.248-17.6473.788-21.0171.568-1.8497 6.75-15.878 1.533-14.7315-2.223.489-4.387 4.6163-5.52 6.3271-2.009 3.0344-4.012 6.0905-5.903 9.1995-1.946 3.1977-2.939 6.8372-4.869 9.9883-1.015 1.6584-3.086 3.8684-5.109 2.333-3.153-2.3917-1.284-10.7113-.732-13.8573 1.027-5.8489 3.579-11.845 7.08-16.6265 5.261-7.1847 15.188-9.5063 23.536-10.90201 10.775-1.80191 21.7-1.30903 32.52-.24294 12.169 1.19935 24.153 2.48355 36.148 4.93585 12.088 2.4714 24.183 4.923 36.086 8.1914 5.607 1.5399 11.294 2.905 16.822 4.7127 5.876 1.9211 11.611 4.3122 17.651 5.6964-2.125 5.3018-4.25 10.6036-6.374 15.906-2.034-2.0117-4.809-2.912-7.633-2.889zm104.138 14.6097c1.863-1.0189 3.921-1.4997 4.601-3.7517.601-1.99-.426-4.2446-.917-6.1549-1.373-5.3484-1.735-10.8886-.519-16.3001 1.161 1.7732 5.51 8.5938 8.155 4.4646 1.595-2.4905-2.68-6.0733-3.927-7.8242 2.737-1.6897 6.648-6.2244 9.803-3.4897 2.039 1.7681 2.902 3.4706 5.65 4.3301 3.335 1.0438 6.476.8046 9.882.5164 2.384-.2014 2.959-.5196 3.89 1.3167.732 1.4436 1.11 3.2302 1.537 4.7802.842 3.0561 2.791 9.0778.483 11.9407-2.022 2.5078-9.869.3577-10.958 3.5949-.595 1.7656 2.242 1.8287 3.325 2.7022 1.343 1.0814 2.453 2.8023 3.182 4.3396.54 1.1369 1.361 3.0153.442 4.1777-1.27 1.6081-3.624.3883-4.648-.7804-1.36-1.5526-1.801-3.6753-2.935-5.3662-2.082-3.1027-2.206-.6344-2.773 1.5934-.589 2.3145-1.981 2.1551-4.114 2.4523-3.742.5222-7.524 1.2586-11.167 2.2616-1.867.5139-3.676 1.1687-5.454 1.9339-1.146.4922-3.132 1.9836-4.376 1.9978-2.304.026-3.901-3.8271-5.09-5.4346 1.975-1.1024 3.944-2.2151 5.928-3.3003zm123.716 235.9327c-5.754-6.906-10.737-14.41-16.413-21.377-5.599-6.872-12.077-12.88-18.36-19.104-2.966-2.937-5.807-6.16-9.081-8.762-2.442-1.943-4.321-1.973-7.258-1.112-8.347 2.444-16.846 5.387-24.744 9.035-7.355 3.397-14.055 7.759-22.031 9.653-8.142 1.934-16.608 2.555-24.952 2.076-8.56-.492-16.632-2.273-24.772-4.89-7.709-2.479-15.747-4.644-22.34-9.558-6.912-5.15-12.252-12.559-17.2-19.527-2.505-3.527-4.992-7.231-6.679-11.229-1.465-3.47-2.422-7.564-5.05-10.392-.645.914-1.447 1.697-1.775 2.77-.149.488.73.473.64.86-.17.731-1.142 1.475-1.707 1.872-2.03 1.429-2.042.292-1.509 2.963.31 1.557-.277 5.07-2.816 3.922.935 1.119-.55 2.531-1.036 3.453-.333-.383-.748-.516-1.244-.401.928 1.849.38 1.898-.52 3.367-.164.268-.746 1.673-.663 1.554-.919 1.31-1.982 1.64-2.518 3.271-.44 1.339-.328 2.812-.819 4.15-.593-.821-1.187-1.641-1.78-2.461.121.645.363 1.6.645 2.185.177.366.937 1.221.927 1.42-.042.746-.972.567-1.238 1.211-.498 1.207.222 1.384-.049 2.562-.312 1.352-1.147.811-1.544 1.963-.075.219.511 1.08.418 1.552-.131.667-.735 1.04-.949 1.633-.543 1.508-.345 2.613-1.1 4.059-.292.561-.717.935-.923 1.573-.18.561.208 1.755-.14 2.258-1.682 2.422-1.446-1.751-1.318-2.786 1.071-8.688 4.505-17.656 7.649-25.777 1.562-4.035 3.083-8.196 5.041-12.061.788-1.556 1.698-3.162 3-4.353 1.648-1.506 3.986-2.108 5.478-3.79-.236.265 1.617-1.489 1.321-.912.265-.515-.198-1.213-.033-1.712.204-.619.591-.749 1.022-1.291.775-.973 1.695-1.457.479-2.697 1.805-.399 2.669-.985 3.03-2.919.263-1.415-.269-1.322.659-2.265.932-.948 1.404-.208 1.991-1.849.702-1.963 1.168-4.633 1.589-6.687.367-1.794-.524-4.432.988-5.698 1.914-1.603 3.628-.924 3.285-4.149-.335-3.145.642-5.049 1.624-8.024 1.959-5.94 2.717-12.211 4.434-18.221 3.667-12.826 10.145-24.391 17.11-35.681 6.436-10.433 15.434-19.3209 24.123-27.881 2.379-2.3445 4.732-4.7228 6.868-7.293 1.84-2.2132 2.681-5.2266 4.449-7.3275 1.075-1.2759 3.075-1.8217 4.575-2.4982 2.502-1.1286 5.484-2.6009 8.308-2.3726-1.123 3.783-1.489 8.2036 1.823 11.0404 4.018 3.4412 7.659-.1339 11.342-2.0959 6.713-3.5764 16.314-.2933 22.167-5.6537 1.394-1.2766 1.783-3.3163 3.232-4.5086 1.064-.8742 2.577-1.0961 3.774-1.7478 3.638-1.9798 5.403-5.604 3.987-9.6076-1.294-3.6599-3.306-4.9294 1.171-6.7842 3.635-1.5048 5.017-3.7722 3.372-7.8089-1.569-3.8487-4.442-4.2918-7.161-6.8104-2.633-2.4395.392-5.2789 2.364-7.1101 2.544-2.3624 3.031-4.4914.081-6.9481-3.088-2.5722-7.497-2.4823-11.098-1.2102-4.072 1.4378-6.754 3.8282-8.477 7.7018-1.755 3.9436-6.104 2.8431-9.626 1.7439-3.369-1.0508-4.246-3.3182-6.457-5.7596-2.46-2.7157-7.474-.3935-10.375.8473-7.147 3.0542-14.248 7.8746-14.532 16.413-.169 5.0913 1.984 9.4189 3.104 14.1978 1.024 4.3702-5.997 4.0259-7.213 8.2533-12.97-6.8659-27.414-8.9668-41.912-9.4342-15.409-.4973-31.04-.8958-46.318 1.5348 3.546-6.1785 5.419-12.9539 8.504-19.3013.889-1.8275 1.271-1.6712 3.231-1.1191 3.765 1.0604 7.502 2.247 11.26 3.3392 13.727 3.9902 27.183 8.7979 40.456 14.0633 1.29.512 4.17 1.9333 5.301.3877 1.304-1.7821-1.714-3.9794-2.935-4.8759-5.345-3.9207-11.968-6.3003-17.953-9.0509-13.086-6.0121-27.576-8.8661-41.23-13.3314-29.477-9.6414-59.972-16.96377-90.604-21.8001-7.475-1.18023-15.03-1.35302-22.538-2.229107-6.651-.77598-13.313-.758127-19.963.043358-12.282 1.481189-26.52 4.676929-33.457 15.919349-6.262 10.1509-10.442 21.5636-8.844 33.6044.48 3.6166 2.011 7.8994 6.474 6.9673 3.096-.6466 4.739-3.2768 6.177-5.8438 2.171-3.878 4.316-7.756 6.67-11.5301.873 5.6589-2.3 11.2234-1.801 16.9881.339 3.9118 2.501 10.0922 7.579 8.9847 6.961-1.5176 9.826-12.3921 13.173-17.6091.17 4.0182-1.239 7.9785-.808 12.0057.425 3.9781 3.534 7.7336 7.9 7.1885 4.117-.5139 6.793-4.9256 8.542-8.247 2.434-4.6221 4.182-9.5776 6.559-14.2303 2.228-4.3613 4.867-9.5534 10.186-10.3728 4.747-.732 10.188.9622 14.877 1.661 13.006 1.9384 25.751 5.2387 38.616 7.9052 13.793 2.8584 27.913 4.5947 41.281 9.2072-4.701 6.3979-17.001 5.0155-24.004 5.7022-10.582 1.0381-21.299 1.8191-31.821 3.3507-10.392 1.5124-20.567 4.1974-30.878 6.1466-10.256 1.939-20.495 3.8812-30.42 7.1879-18.426 6.1396-37.16 13.9096-53.395 24.6218-7.554 4.985-14.264 10.682-18.93 18.551-4.696 7.917-6.953 16.87-7.814 25.977-.535 5.671.375 10.579 1.473 16.098.796 3.996 1.054 10.686 4.258 13.612 6.115 5.585 11.192-17.068 12.322-19.804.813 4.484-.517 29.743 9.295 27.689 4.38-.916 5.373-6.927 6.099-10.547 1.325-6.6 2.512-13.333 4.778-19.689 1.454 8.564 2.061 17.487 5.194 25.667 2.081 5.432 8.019 15.072 12.159 5.772 3.105-6.975 2.04-14.981 2.412-22.386.413-8.206 2.769-16.121 3.603-24.247.323-3.148.031-6.696 3.194-8.414 2.715-1.474 6.686-1.954 9.651-2.777 8.782-2.438 17.622-4.68 26.362-7.266 8.744-2.589 17.367-5.613 25.995-8.565 8.251-2.823 16.676-4.427 25.028-6.845 4.748-1.374 9.439-2.812 14.254-3.9599 2.24-.5337 4.508-.9494 6.744-1.5022 1.657-.4094 3.84-1.9543 5.544-1.9269 1.753.0287 2.413 1.5131 4.423 1.6297 2.165.125 4.366-.3526 6.518-.5177 5.245-.4023 10.82-1.0527 16.052-.3258-3.145 3.7298-7.392 6.3088-11.115 9.3988-4.293 3.563-8.447 7.411-12.114 11.62-7.379 8.467-14.352 17.417-20.831 26.591-6.391 9.05-11.537 18.952-16.01 29.07-2.229 5.042-4.393 10.194-5.933 15.493-.633 2.177-1.149 4.362-2.291 6.342-1.048 1.816-2.524 3.381-1.286 5.574.853-.534 1.619-1.197 2.39-1.838-.891 6.275-2.814 12.345-3.802 18.601-.974 6.163-.935 12.501-.872 18.726.133 13.035 1.102 25.776 3.746 38.562 2.675 12.929 6.11 25.759 10.442 38.232 4.17 12.009 8.355 24.602 14.176 35.921 6.216 12.089 13.612 24.799 22.611 35.032-5.878 2.408-13.359 1.958-19.583 2.928-6.507 1.013-12.135 2.927-17.68 6.527-5.609 3.643-8.655 8.334-9.43 14.976-.551 4.728-2.188 11.274 4.015 12.516 4.462.893 9.449-.574 13.919-.937 7.82-.633 15.651-1.029 23.488-1.371 7.817-.341 15.635-.642 23.454-.884 3.678-.114 7.358-.171 11.034-.303 1.648-.059 2.647-.085 4.124.392 1.169.377 1.083 1.159 2.384.192 2.098-1.561 1.666-6.48 1.607-8.643-.089-3.338-.405-6.714-1.056-9.988-.387-1.946-5.077-14.49-1.43-15.018-4.237-4.656-5.929-11.305-7.832-17.14-2.385-7.311-4.478-14.602-6.121-22.121-3.51-16.062-5.062-32.3-5.062-48.734 16.271 10.029 33.486 15.461 52.65 16.067 19.054.603 39.986-.962 58.078-7.301 8.379-2.935 15.883-6.79 23.067-11.984 2.574-1.861 5.333-6.077 8.712-6.005 4.033.087 8.549 1.613 12.554 2.266 7.659 1.249 17.656 1.953 24.14 6.691 3.523 2.573 6.047 6.175 9.19 9.14 2.391 2.256 5.553 3.481 7.927 5.737 2.56 2.433 1.543 5.613 5.789 5.81 3.629.168 7.609-1.292 10.739-3.006 6.245-3.42 12.895-10.718 7.123-17.646z" fill="#2d1a45" />
    <path d="m647.307 133.282c9.139 6.491 19.621 10.926 29.171 16.772 2.391 1.464 9.838 4.502 9.766 7.216-.042 1.587-2.28 3.577-3.26 4.677-1.679 1.884-3.258 3.788-4.808 5.781-7.091 9.128-13.77 18.342-21.455 27.011-1.158 1.304-4.644 7.53-5.769 4.437-.51-1.402-.09-2.977-1.419-4.284-.685-.674-3.329-1.045-2.558-2.489.513.231 1.027.462 1.541.692-.399-1.154-.37-2.418-.968-3.509-.372-.678-1.098-.998-1.35-1.762-.348-1.054.242-2.28.143-3.367-.097-1.084-.659-2.109-.994-3.131-1.989-6.063-2.703-12.174-3.721-18.429-1.007-6.19-2.576-12.185-3.192-18.443-.651-6.611-1.449-13.207-2.513-19.765 1.899.267 3.359 2.331 4.703 3.498 2.112 1.833 4.405 3.477 6.683 5.095zm-7.165 63.996c-.436-.343-.777-.764-1.023-1.262 4.479-2.219 1.776 1.566 1.023 1.262zm-2.723-4.733c-1.953.538-3.356.647-4.861-.156-.143-.076.022-.663-.236-.784-.225-.104-.569.025-.761-.073-.656-.333-1.803.397-1.915-.879 2.492-.763 4.942-2.17 7.573-2.407 3.656-.329 3.487 3.393.2 4.299zm-8.555-7.358c-2.664.623-4.858 2.078-7.689 1.698-2.657-.356-4.966-1.734-7.061-3.321 5.243-1.485 10.741-1.752 15.98-3.188 1.705-.468 3.946-1.7 5.785-1.204 2.042.553 2.171 2.465 2.783 4.206-3.269.588-6.562 1.053-9.798 1.809zm-16.661-7.386c-2.56.611-5.176 1.948-7.316-.359-.345-.372-.648-.001-.607-1.148.043-1.209 1.141-1.988 2.085-2.414 2.221-1.001 5.333-.354 7.691-.502 3.761-.234 7.589-1.015 11.31-1.617 2.576-.417 5.236-1.341 7.869-1.159 2.033.141 4.485 1.874 1.523 3.137-2.698 1.152-6.743.975-9.666 1.474-4.32.737-8.626 1.569-12.889 2.588zm-2.5-12.041c.165.169.331.338.497.507-.027-.006.981-.823 1.248-.847 1.298-.113 2.603-.023 3.903-.097 2.994-.169 6.012-.69 8.952-1.265 2.396-.468 4.836-1.274 7.302-1.072 2.135.175 2.359.612 2.499 2.672-5.449 0-11.062-.115-16.418 1.039-3.486.75-7.329 2.986-9.075-1.044.364.036.728.071 1.092.107zm3.406-8.722c1.351 1.029 5.035-.682 6.655-.853 1.758-.186 3.413-.379 5.117-.817 1.511-.389 6.511-2.331 7.67-.474 1.777 2.846-5.418 3.368-6.559 3.509-4.784.591-9.748 1.115-14.403 2.37.507-1.245 1.013-2.49 1.52-3.735zm6.563-9.665c.349 1.315 11.168-3.532 11.365-.009.152 2.702-10.704 4.049-12.656 3.812.457-1.245 1.673-2.359 1.291-3.803zm3.632-8.268c.23-2.654.586-2.638 2.714-2.888 1.623-.191 3.853-1.142 3.431 1.75-.362 2.477-6.376 3.815-6.145 1.138zm3.867-9.129c.512-1.425 1.665.493 1.689 1.217.064 1.928-1.397 1.511-2.804 1.511.392-.901.764-1.811 1.115-2.728zm17.807-10.692c-.287-.346-1.897-.478-2.356-.646-1.127-.413-.967-1.293-2.409-.425-.072-.073.065-.726-.014-.756-.039-.015-1.05-.396-1.378-.607-.793-.507-1.507-1.004-2.235-1.641-.774-.676-1.55-1.658-2.434-2.197-.373-.227-.678-.549-1.127-.618-1.166-.18-.832.632-1.852.793-.628.1-1.085-.633-1.906-.317-.71.273-1.122 1.268-1.438 1.86-1.15 2.156-2.037 4.476-3.162 6.655-5.755 11.141-12.297 21.86-17.871 33.105-2.685 5.417-5.487 10.872-7.377 16.629-1.362 4.152-4.44 10.218-1.792 14.367 1.925 3.016 5.779 4.319 8.854 5.776 4.628 2.194 8.893 5.06 13.571 7.187 5.579 2.536 10.996 5.188 16.434 8.02 2.319 1.208 4.411 2.947 6.723 4.091 1.413.699 3.597-.494 4.057 1.109 1.772-2.146 4.64-.715 6.69-2.226 1.206-.889 2.087-2.64 3.092-3.735 1.509-1.641 3.146-3.164 4.685-4.776 6.109-6.405 11.75-13.076 17.309-19.955 5.308-6.569 11.511-12.776 15.995-19.967 1.781-2.855 2.103-5.848.928-9.002-.858-2.3-2.925-5.774-5.878-4.251 1.12-1.859-3.2-3.845-4.51-4.208-.02-.005-.278 1.423-.643 1.387.13.013-1.098-3.164-1.638-3.572-1.601-1.212-3.55-2.626-5.298-3.624-1.603-.915-3.294-1.368-4.847-2.392-1.882-1.241-3.61-2.713-5.499-3.945-1.824-1.19-3.858-2.597-5.874-3.415-1.748-.709-3.318-.848-4.891-2.011-1.946-1.439-3.643-2.416-5.888-3.407-1.941-.858-4.632-1.607-6.021-3.286z" fill="#2d1a45" />
    <path d="m379.948 291.595c.357-.838.713-1.677 1.07-2.515.441 1.462.565 2.189-1.07 2.515zm.475 3.873c-.773.138-.468-2.288-.468-2.711 1.335.757.229 1.663.468 2.711zm-1.205-6.999c.659-.39 1.318-.779 1.977-1.168-.918 1.701-.557.638-.179 1.774-.692.199-1.365-.033-1.798-.606zm-3.908 13.295c-2.471 8.967-10.321 16.039-18.612 19.702-4.764 2.104-9.448 2.631-14.593 2.396-1.984-.09-4.319-.735-6.229-.615-1.47.092-1.404.156-2.622 1.401-.539-.992-.148-1.689-1.229-2.266-1.349-.721-1.908.118-2.577 1.116-.876-.907-1.234-1.381-2.368-1.92.035.018-1.086-.025-1.04-.011-.203-.063-1.423-.847-1.805-.99-1.567-.588-3.379-.829-4.825-1.673-1.265-.736-2.307-2.804-3.755-1.215-.001-2.655-3.577-3.756-5.254-5.147-2.619-2.173-4.701-5.39-6.007-8.503-1.393-3.318-1.858-6.5-2.509-9.92-.455-2.39-3.437-5.845-1.647-8.256.427 1.011.227 2.047.935 2.964.638-1.229.989-2.604 1.277-3.949.141-.658.961-2.592.868-3.165-.189-1.175-1.643-1.239-.837-2.678 1.672 1.819 3.021-1.376 1.758-2.649-.624.703-.853 1.502-1.14 2.373-1.644-3.318 2.905-2.249 1.91-5.245 1.66-.319 2.615-.738 3.246-2.378.702-1.826.186-2.224 1.78-3.43.548-.414 2.099-1.011 2.383-1.693.549-1.318-.848-1.709.375-2.944.413.725 2.024 2.161 2.906.795.176-.272-.565-.466-.026-1.093.799-.928 1.693-1.839 3.044-1.644-1.07-2.675 5.767-2.886 7.518-3.518 1.754-.631 3.243-1.047 5.104-1.193 1.859-.147 1.951-.691 3.525-1.81.133 1.601.518 1.249 1.656 1.531.274-.469.554-.522.841-.158.286.272.635.399 1.047.384.625.032 1.334-.049 1.989-.036 1.537.03 3.123-.098 4.631-.066.389-.065.752-.2 1.093-.406.142.268.285.537.426.805.799.1.861 1.101 1.844.006.29 1.392 1.126.668 2.008 1.045.805.345.933.896 1.676 1.281.488.396 1.012.448 1.572.158.532.395 1.073.778 1.621 1.15 1.011.57 2.202.92 3.267 1.37.708.292 1.412.597 2.11.912.021.842.399 1.14 1.134.892.664.556.85.534 1.494 1.479 1.459 2.144 2.754 3.808 4.596 5.724 8.009 8.327 10.47 20.1 7.441 31.087zm2.458-35.409c-3.616-4.842-8.734-10.387-13.333-13.445-2.331-1.551-5.603-4.334-8.454-5.154-.676-.194-1.375-.207-2.04-.411-.513-.157-.792-.684-1.378-.779-.409-.066-.454.85-.889.766-.909-.178-1.486-1.08-2.128-1.644-1.379 2.376-2.128-1.62-4.153 1.067-2.41-3.78-8.072-2.953-11.921-2.763-1.141.057-1.677.463-2.689.764-.942.28-1.035.208-2.063.2-2.562-.02-4.836.302-7.203 1.427-3.977 1.889-7.628 4.833-11.406 7.11-4.223 2.545-8.029 5.784-11.259 9.506-11.677 13.457-14.799 33.1-5.488 48.701 14.789 24.779 52.938 27.427 74.556 10.614 16.701-12.99 23.057-38.275 9.848-55.959z" fill="#2d1a45" />
    <path d="m560.821 196.627c-.415.99-4.292.657-4.376-.511-.127-1.744 5.097-1.21 4.376.511zm4.117-.648c2.196.179 5.805 1.671 7.922.769 3.231-1.376-.162-3.488-1.895-4.119-1.764-.642-4.391-.301-5.297-2.145-.682-1.387 1.003-5.258-1.088-4.636-2.195.653-1.556 6.199-5 4.329-1.643-.892-.973-6.325-3.724-3.549-.753.759-.819 2.154-1.816 2.72-1.017.578-2.294-.024-3.368.026-2.845.133-3.751 2.794-.869 3.849 1.067.391 5.088.868 2.652 2.611-1.535 1.098-4.944-1.206-6.262.705-1.811 2.626 3.041 2.685 4.344 3.471 2.209 1.33.385 4.437.561 6.65.269 3.38 2.233 2.674 2.947-.187.605-2.427-.145-5.922 3.514-4.957 5.959 1.571-3.313 9.137 1.052 11.072 2.783 1.235 3.177-5.438 3.393-6.587.8-4.241 3.182-3.251 6.791-3.121 4.216.152 5.234-2.967.769-3.86-1.424-.285-3.384.075-4.621-.832-.732-.537-1.738-2.349-.005-2.209z" fill="#2d1a45" />
    <path d="m409.278 334.53c-3.412-1.222-9.12-.958-9.964 3.448-.353 1.845.335 3.796 1.609 5.136 1.477 1.554 3.83 1.698 3.704-1.008-.087-1.872-1.869-3.499 1.264-3.876 1.95-.235 4.834 1.223 4.931 3.377.219 4.855-8.185 5.236-11.282 4.396-6.146-1.666-4.476-8.104-.255-11.042 1.09-.759 4.219-1.929 4.362-3.505.19-2.092-2.397-1.665-3.664-1.389-9.318 2.028-11.348 17.637-1.613 20.58 4.422 1.335 10.648-.044 13.313-4.048 2.498-3.754 2.531-10.302-2.405-12.069z" fill="#2d1a45" />
    <path d="m285.739 224.033c-2.913 1.402-5.825 2.804-8.737 4.206-.963-2.06-2.59-7.688-5.032-8.407-3.953-1.163-1.436 4.972-.754 6.375.561 1.152 1.861 2.937 1.545 4.311-.423 1.85-3.033 2.505-4.4 3.46-3.381 2.363-3.354 7.326 1.543 5.223 2.771-1.191 6.202-4.492 8.326-.744.98 1.729 3.304 11.391 5.73 5.073 1.502-3.912-5.725-7.976-2.162-11.286 1.147-1.065 2.49-1.154 3.635-1.767 2.768-1.478 1.207-4.21.306-6.444z" fill="#2d1a45" />
    <path d="m712.742 84.0508c-1.737-.6351-3.885-1.8752-5.815-1.4525-2.051.4489-2.877 2.5033-4.368 3.7384-4.055 3.3583-6.416-1.647-8.644-4.39-2.104-2.59-4.671-3.2187-7.64-1.6272-1.183.6344-6.166 3.5413-5.297 5.4038.625 1.3402 3.087.1371 3.927-.1556 1.823-.6344 3.515-1.1898 5.38-.2646 3.497 1.7343 4.404 6.4903 8.636 7.2318 4.375.7671 4.518-3.3965 7.641-4.9638 2.093-1.0502 3.551.8091 5.571.4387 1.924-.3526 2.814-3.153.609-3.959z" fill="#2d1a45" />
    <path d="m677.418 100.831c1.548.336 2.558-2.6653 3.526-3.4266 1.607-1.2619 4.393-1.5163 6.029-.2461 3.195 2.479 2.094 7.8307 6.643 9.2267 4.066 1.247 5.982-4.109 9.405-5.442 1.99-.775 4.174-1.2827 3.397-4.0647-.536-1.9236-2.116-2.4178-3.834-1.6788-2.952 1.2689-3.954 6.4385-7.454 6.5305-3.621.096-4.014-5.1246-5.568-7.3983-2.37-3.4654-7.242-4.3026-10.011-.9889-.836.9997-5.08 6.8502-2.133 7.4882z" fill="#2d1a45" />
    <path d="m605.842 41.6533c2.152 1.4729 6.442 1.4219 8.425-.4049 2.018-1.8587-.676-2.1443-2.319-2.0876-1.265.044-3.632.6708-2.911-1.513.639-1.9377 4.155-.9514 4.448-3.0784-2.646-.4744-5.559-.3035-7.516 1.7757-1.415 1.5029-2.142 3.929-.127 5.3082z" fill="#2d1a45" />
  </g>
</svg>